<svg xmlns="http://www.w3.org/2000/svg" viewBox="0 0 256 237"><defs><style>.cls-1{fill:#e5b13b;}.cls-2{fill:#fff;}.cls-3{fill:#010101;}.cls-4{fill:#00b91a;}.cls-5{fill:#b96300;}.cls-6{fill:#fdfdfd;}</style></defs><g id="Camada_2" data-name="Camada 2"><rect class="cls-1" x="10" width="237" height="237" rx="12.89"/><circle class="cls-2" cx="125" cy="120" r="105.5"/></g><g id="Camada_1" data-name="Camada 1"><path class="cls-3" d="M124.46,235.16c-2-.16-3.94.21-5.85,0-3-.38-6.13-.38-9.11-1-1.7-.32-3.46-.53-5.17-.91a40.47,40.47,0,0,1-4.52-1,12,12,0,0,0-1.92-.42A23.58,23.58,0,0,1,94.7,231c-.91-.32-2-.32-2.77-1a1,1,0,0,0-.54-.1c-.37-.06-.74,0-1-.38-.06-.05-.11-.1-.16-.1a10.21,10.21,0,0,1-3-.91,9.55,9.55,0,0,1-2.92-1.28.51.51,0,0,0-.32-.16,34.11,34.11,0,0,1-3.31-1.33,24.71,24.71,0,0,1-4.36-2c-2.61-1.44-5.38-2.61-7.78-4.42a.63.63,0,0,0-.21-.16,11.62,11.62,0,0,1-2.93-1.86c-1.44-1-2.87-2-4.26-3-3.09-2.18-5.8-4.74-8.68-7.13A37.59,37.59,0,0,1,49,203.53c-1.33-1.38-2.77-2.66-4-4.1a18.08,18.08,0,0,1-2-2.45,4.75,4.75,0,0,0-.69-.85,45,45,0,0,1-3.09-3.94c-1.28-1.55-2.13-3.3-3.46-4.8a10.59,10.59,0,0,1-1.33-2.13,8.94,8.94,0,0,0-.75-1.17c-.47-.74-.9-1.49-1.33-2.23-.8-1.33-1.38-2.72-2.13-4a41.22,41.22,0,0,1-2.18-4.36,34.88,34.88,0,0,1-1.44-3.25c-.32-1-.85-1.87-1.22-2.82-.59-1.55-1.07-3.09-1.71-4.58a11.76,11.76,0,0,1-.74-2.29c-.32-1.6-1-3.15-1.39-4.74a15.36,15.36,0,0,1-.42-2.19,7.11,7.11,0,0,0-.54-2.07,9.62,9.62,0,0,1-.42-2.51,11.7,11.7,0,0,0-.64-3,5.62,5.62,0,0,1-.16-2.13,1.23,1.23,0,0,0-.32-1c-.21-.22-.16-.48-.16-.75,0-.8-.05-1.6-.05-2.4a1.37,1.37,0,0,0-.32-1.06.76.76,0,0,1-.11-.27,15.37,15.37,0,0,0-.11-2.71c.06-5.22,0-10.49,0-15.71a2.72,2.72,0,0,1,.32-1.55,1,1,0,0,0,.11-.69c0-.9,0-1.81,0-2.77,0-.16,0-.32.06-.42.74-.8.32-1.76.42-2.67a2.24,2.24,0,0,1,.43-1.49c.21-.26.16-.74.16-1.17a4.67,4.67,0,0,1,.43-1.91,1.23,1.23,0,0,0-.22-1.55,14.09,14.09,0,0,1-.8-1.49c-.53-.75-1-1.54-1.49-2.18-.69-.8-1.06-1.81-1.75-2.56a8.33,8.33,0,0,1-1-1.38,22.92,22.92,0,0,0-1.49-2.08c-.42-.48-.85-1-1.22-1.44-.91-1.54-2.45-2.55-3.36-4.15A8.17,8.17,0,0,0,7,88.67a28.42,28.42,0,0,0-3.57-3.25,2.05,2.05,0,0,0-.58-.37A5.05,5.05,0,0,1,.34,82.6,3.14,3.14,0,0,1,.07,82c-.21-1.71,0-3.41,1.54-4.42A6.06,6.06,0,0,1,5,76.47a34.13,34.13,0,0,1,7,.75,36.87,36.87,0,0,0,4.2.9,32.52,32.52,0,0,1,3.84.75c1.28.32,2.66.58,4.05.8a34.82,34.82,0,0,0,3.88.69.37.37,0,0,1,.27.11c.64.37,1.06.16,1.44-.48,1.06-1.81,1.75-3.78,3.09-5.43.63-.86,1-1.87,1.59-2.72s1.28-1.86,1.87-2.77c1.06-1.54,2-3.14,3.19-4.58,1.49-1.81,2.88-3.67,4.32-5.48,0-.06.1-.16.15-.22,1.76-1.81,3.52-3.62,5.22-5.48.64-.64,1.33-1.23,2-1.92,1.71-1.86,3.89-3.19,5.65-5.06A22.25,22.25,0,0,1,60,43.78a21.31,21.31,0,0,1,3.09-2.29c1.44-.75,2.61-1.92,4-2.67,1-.53,1.92-1.27,2.93-1.91,1.81-1.07,3.68-2.08,5.54-3a13.65,13.65,0,0,0,2.29-1.22,1.62,1.62,0,0,1,.69-.32,13.55,13.55,0,0,0,2.82-1.28c.64-.37,1.49-.53,2.19-.85a29.73,29.73,0,0,1,4.1-1.6c.85-.27,1.65-.59,2.5-.8a13.1,13.1,0,0,0,1.92-.64A35,35,0,0,1,95.92,26c1.17-.27,2.34-.64,3.57-.9s2.24-.54,3.35-.7a27.78,27.78,0,0,1,4.16-.8,5.5,5.5,0,0,0,1.86-.31,7.15,7.15,0,0,1,1.81-.27c2.13-.11,4.21-.75,6.34-.59,2,.16,3.83-.58,5.75-.42,1.54.1,3.09.1,4.63.1,2,0,4,.38,6,.32,1.22-.05,2.45.38,3.67.38,1.76,0,3.36.58,5.06.69a19.35,19.35,0,0,1,3.57.64,17.1,17.1,0,0,1,2.93.69,4.29,4.29,0,0,0,1.17.16,1,1,0,0,1,.85.32.5.5,0,0,0,.54.16,10.14,10.14,0,0,1,3.08.8,7.13,7.13,0,0,0,1.5.32,1,1,0,0,1,.37.05c.8.8,2,.59,2.93,1a16,16,0,0,0,2.07.8c1.71.59,3.41,1.23,5.06,2l3.94,1.76c1.33.58,2.72,1.33,4,2,.75.37,1.22,1,2,1.28.32.11.59.37,1,.48A10.17,10.17,0,0,1,180,37.71a12.17,12.17,0,0,0,1.87.95,2.09,2.09,0,0,1,1.12.91.46.46,0,0,0,.42.27.6.6,0,0,1,.43.16c.58.48,1.28.74,1.81,1.22,2.08,1.7,4.26,3.2,6.28,4.9a34.53,34.53,0,0,1,3,2.61c.74.8,1.86,1.28,2.61,2.13,1.33,1.6,3.14,2.77,4.31,4.47l.32.32a67.82,67.82,0,0,1,4.9,5.43,33.85,33.85,0,0,1,2.34,3.09,25.37,25.37,0,0,0,2.08,2.72,7.19,7.19,0,0,1,1.22,1.81A13.43,13.43,0,0,0,214.24,71c.91,1.17,1.55,2.61,2.4,3.83,1,1.39,1.49,3,2.5,4.42.43.59.59,1.49,1,2.19a15.84,15.84,0,0,1,1.43,3,.83.83,0,0,0,1.07.48,33.73,33.73,0,0,1,5.7-.48,7,7,0,0,0,1.11-.11c1.92-.53,3.89-.21,5.81-.58s3.78-.21,5.7-.59a9.13,9.13,0,0,1,1.65-.16A7.71,7.71,0,0,0,245,82.6a7.3,7.3,0,0,1,2.4-.27c1.49,0,2.77-.85,4.15-1.33.48-.16.91-.37,1.39.11.16.21.53.21.8.32A3.26,3.26,0,0,1,256,84.51a4.13,4.13,0,0,1-.8,2.72c-1.33,1.76-2.82,3.35-4.2,5.06-.69.8-1.39,1.65-2,2.45a10.57,10.57,0,0,1-1.81,2c-.48.37-.64,1-1,1.38-.64.64-1.22,1.39-1.86,2a25.77,25.77,0,0,0-2.66,3.3c-1.76,2.34-3.73,4.42-5.65,6.6-1.44,1.6-2.56,3.46-4.05,5a1.25,1.25,0,0,1-.37.42,2.34,2.34,0,0,0-.8,2.88,7.63,7.63,0,0,1,.16,2.23c0,4.16,0,8.31.11,12.47,0,2.23-.43,4.42-.48,6.65,0,.69,0,1.39,0,2a3.4,3.4,0,0,1-.27,1.27,7.77,7.77,0,0,0-.21,2.51.85.85,0,0,1-.27.79.41.41,0,0,0-.16.38,32.81,32.81,0,0,1-1.92,9,4.87,4.87,0,0,0-.26,1.49.9.9,0,0,1-.38.9l-.1.11c.16.8-.43,1.44-.53,2.18a9.39,9.39,0,0,1-.8,2.45c-.54,1.17-.8,2.4-1.33,3.57a10.44,10.44,0,0,1-1.12,2.45,1.63,1.63,0,0,0-.22.37c-.31,1.49-1.17,2.72-1.59,4.16a5.16,5.16,0,0,1-1.23,2.23c0,.06,0,.06,0,.11a22.57,22.57,0,0,1-1.81,3.73,21.89,21.89,0,0,1-1.07,2,43.19,43.19,0,0,0-2.55,4.31,8.18,8.18,0,0,1-.75,1.07c-.53.58-.85,1.33-1.33,1.91a15,15,0,0,1-2.18,3l-.06,0c-.48,1.17-1.54,1.86-2.13,3a13,13,0,0,1-1.59,1.87,47.6,47.6,0,0,1-4.85,5.38c-1.92,1.91-3.89,3.78-5.86,5.69-1.43,1.39-3.09,2.45-4.47,3.84a8.22,8.22,0,0,1-2.34,1.86c-.91.43-1.49,1.23-2.29,1.65a16.76,16.76,0,0,0-2.24,1.49c-1.81,1.39-3.78,2.35-5.64,3.62-1.12.75-2.4,1.23-3.52,2-.85.59-1.81.91-2.66,1.39-1.23.69-2.5,1.22-3.78,1.81-1.76.8-3.52,1.54-5.27,2.18-1,.38-2,.8-3,1.17-1.54.54-3.14,1-4.68,1.6a7.69,7.69,0,0,1-1.55.43,30.91,30.91,0,0,1-3.24.9,3.05,3.05,0,0,0-1.92.54c-.16.16-.53.1-.8.1a2.67,2.67,0,0,0-1.65.43,4.32,4.32,0,0,1-1.44.26,15.26,15.26,0,0,0-3.73.64,10.06,10.06,0,0,1-1.81.22c-2.93.48-5.85.58-8.78,1A33.89,33.89,0,0,1,124.46,235.16ZM173.24,90.74l.16.48c.37,1.33,1.07,2.51,1.55,3.78a18.49,18.49,0,0,0,.42,1.81,3.4,3.4,0,0,1,.32,1.6,1.91,1.91,0,0,0,.32,1.33.93.93,0,0,1,.11.64c0,2.93,0,5.86,0,8.84,0,.22.05.43-.11.53a1.92,1.92,0,0,0-.42,1.44,1.33,1.33,0,0,1-.38,1.07,23.45,23.45,0,0,1-.58-3.68c-.05-2.55-.05-5.16-.05-7.72a6.12,6.12,0,0,0-.16-1.33c-.38-1.44-.64-3-1.12-4.42-.16-.53-.37-1.06-.59-1.6s-.53-1.06-.85-1.59a6.38,6.38,0,0,0-1.76-2.45,54.5,54.5,0,0,0-4.74-3c-1.43-.8-2.77-1.76-4.2-2.56s-2.77-1.33-4.1-2.18a33.14,33.14,0,0,0-4.05-1.81,8.25,8.25,0,0,0-1.44-.64A32.65,32.65,0,0,1,148.43,78a13.59,13.59,0,0,0-2.45-.9,4.53,4.53,0,0,1-1.17-.32c-.54-.21-1-.43-1.55-.59-1.38-.26-2.77-.69-4.15-1-1-.26-2-.37-2.93-.58a34.55,34.55,0,0,0-4.1-.54c-2.29-.16-4.63-.21-7-.16-1.75.06-3.46.64-5.27.64a3.59,3.59,0,0,0-1.28.22,25.63,25.63,0,0,1-3.51.69c-.37,0-.85,0-1,.21-.48.53-1,.37-1.55.43-.16,0-.37-.06-.42,0-.59.64-1.39.48-2.08.64a20.59,20.59,0,0,0-2.5.9,19.16,19.16,0,0,1-3,1c-.16,0-.26.11-.37.16A9.4,9.4,0,0,1,101.3,80c-.91.37-1.92.8-2.88,1.12A29.55,29.55,0,0,0,95,82.81c-1.91,1-4,1.7-5.64,3.19a1.41,1.41,0,0,1-.48.22,30.41,30.41,0,0,0-6.44,4.15c-.22.16-.32.43-.54.48-1.33.43-2.13,1.6-3.3,2.24a2.49,2.49,0,0,1-2.18.37A12.83,12.83,0,0,1,75.1,93c-1.38-.69-2.93-1-4.42-1.59-1.86-.7-3.89-.75-5.86-1.18-1.81-.42-3.72-.63-5.59-.9-1.38-.21-2.77-.53-4.1-.85s-2.45-.53-3.67-.69a42.92,42.92,0,0,1-5.59-1.28C44,86,42,86.16,40.22,85.21c-.37-.22-.9-.06-1.38-.16-1.6-.32-3.15-.59-4.74-1-2.08-.48-4.21-.69-6.23-1.23-1.44-.37-2.88-.64-4.32-.9a63.62,63.62,0,0,0-6.33-1.12c-.11,0-.16,0-.27,0-1.33-.7-2.88-.59-4.31-.91a12.49,12.49,0,0,0-1.92-.53c-.91-.11-1.81-.27-2.72-.43-1.75-.32-3.46-.48-5,.53a1.4,1.4,0,0,0-.8,1.5,2.18,2.18,0,0,0,1.27,1.86,11,11,0,0,1,3.73,2.93,8.69,8.69,0,0,0,1,1,21.2,21.2,0,0,1,2.82,3,28,28,0,0,0,2.56,2.93,4.8,4.8,0,0,1,1,1.28,7.39,7.39,0,0,0,1.28,1.81c.85,1,1.6,2.13,2.34,3.14,1,1.39,2,2.77,2.93,4.21,1.33,2,2.29,4.26,3.73,6.23.37.53.64,1.22,1,1.7a14.33,14.33,0,0,1,1.06,1.49,16.56,16.56,0,0,0,1,1.65,73,73,0,0,0,4.42,6.18.26.26,0,0,1,.11.21,4.54,4.54,0,0,0,1.28,1.87c.37.42.69.85,1.06,1.28a25.82,25.82,0,0,0,4.53,4.15c1.28,1,3,1.33,4.15,2.56,1,.16,1.65,1,2.67,1.06a1.76,1.76,0,0,1,.79.32,9,9,0,0,0,3.25,1.28c.43,0,.48.58,1,.53a2.7,2.7,0,0,1,1.28.32,35.05,35.05,0,0,0,4,1.23c1.17.31,2.34.69,3.51,1,2,.48,4.05.91,6.12,1.28,2.56.48,5.17.75,7.73,1.17a3.67,3.67,0,0,1,2.66,1.6,2.42,2.42,0,0,0,1.38,1.12l1,.48a2.84,2.84,0,0,0,2.61.16,4.1,4.1,0,0,1,2.4-.21c.74.1,1.43.31,2.18.42a10.68,10.68,0,0,1,3.3,1.39A12.71,12.71,0,0,1,91.87,146a.93.93,0,0,0,1.07.31c.48-.15,1-.21,1.49-.31,1.76-.38,3.25.63,4.95.63a.39.39,0,0,1,.32.16,4.08,4.08,0,0,0,1.6.64,4.13,4.13,0,0,1,.85.38c.85.48,1.65,1.06,2.72.37a1.39,1.39,0,0,1,.8-.11c.69,0,1.38-.1,2.07-.21a40.3,40.3,0,0,1,9.11-.32,6.1,6.1,0,0,0,2.77-.37,5,5,0,0,1,2.34-.22c.69.11,1.39.27,2.08.38a4.14,4.14,0,0,0,3.14-.48c1-.59,2-1.12,3.09-1.65a9.58,9.58,0,0,1,3.19-.91,16,16,0,0,1,4.21-.16,15.23,15.23,0,0,1,4.05,1,7.12,7.12,0,0,1,1.75.7,1.7,1.7,0,0,0,1.81-.38c.7-1.33,2.08-1.65,3.25-2.23.38-.16.7-.59,1.17-.54a5.46,5.46,0,0,0,1.82-.26c1.27-.32,2.44.26,3.67.37a.26.26,0,0,1,.16.11c.37.58.9.37,1.38.21a7,7,0,0,0,1.71-.91,3.94,3.94,0,0,1,2.29-.58c1.17.05,2.39.05,3.57.05a1.44,1.44,0,0,0,.95-.21A6.62,6.62,0,0,1,170,140c.91.05,1.81,0,2.67,0,.21,0,.42.05.58-.16a1.07,1.07,0,0,1,.85-.37c.43,0,.54-.21.54-.53v-1.71c.05-2,1.27-2.93,3.24-2.5.91.21,1.76.74,2.61.9a15.9,15.9,0,0,0,4.53.64c.64-.05,1.33,0,2,0a11.17,11.17,0,0,0,2.66-.1c2.24-.64,4.64-.7,6.82-1.55a27.94,27.94,0,0,0,2.87-.8,9.92,9.92,0,0,1,2.72-1.06,9.76,9.76,0,0,0,1.7-.69c1.71-.8,3.47-1.55,5.22-2.29.91-.38,1.65-1,2.56-1.33,1.22-.54,2.29-1.44,3.57-1.92a36.09,36.09,0,0,0,3.46-1.92,4.17,4.17,0,0,0,1-.53,9.67,9.67,0,0,1,2.82-1.92,12.48,12.48,0,0,0,4-3.83c1.33-1.76,2.88-3.36,4.26-5.11,1.55-2,3.09-3.94,4.8-5.81.63-.69,1.22-1.44,1.86-2.13a3.22,3.22,0,0,0,.58-.69c1.07-2,2.93-3.41,4.32-5.22a26.89,26.89,0,0,1,4.47-5.06c.11,0,.16-.16.21-.21a19.31,19.31,0,0,1,2.77-3.41c.75-.85,1.39-1.81,2.19-2.61a10.15,10.15,0,0,0,1.86-2.61,1.12,1.12,0,0,0,0-1,1.65,1.65,0,0,0-2.5-.64,2.38,2.38,0,0,1-1,.27c-.16,0-.38-.06-.48.1a1.54,1.54,0,0,1-1.39.43,11.31,11.31,0,0,0-1.92.16,12.87,12.87,0,0,1-3.19.37,2.68,2.68,0,0,0-1.12.11,4.21,4.21,0,0,1-2.39.37,13.05,13.05,0,0,0-1.5.06c-1.7.31-3.46.42-5.16.63-2.93.43-5.91.54-8.89.8a81.28,81.28,0,0,1-9.59.64c-.27,0-.53.06-.8.06a43.1,43.1,0,0,1-6.92.42,1.15,1.15,0,0,0-.59.11,16.81,16.81,0,0,1-2.87.37,12.7,12.7,0,0,1-3.2,0c-1.06-.16-2,.86-3.09.27a.22.22,0,0,0-.16,0,4.21,4.21,0,0,1-1.81.27c-.74,0-1.54,0-2.29,0-1.81.16-3.67.32-5.48.43-4.05.27-8,.85-12.09.69-.58-.16-1.17.64-2,.21ZM214,85.47a1.84,1.84,0,0,0-.42-.85c-.64-1.22-1.34-2.45-1.92-3.67A8.16,8.16,0,0,0,210.62,79a8.35,8.35,0,0,1-1-1.65c-.54-1.12-1.55-2-1.92-3.25a.05.05,0,0,0-.06,0c-.69-.38-.85-1.17-1.33-1.71-1.27-1.54-2.13-3.41-3.56-4.79a3.22,3.22,0,0,1-.48-.64,34.49,34.49,0,0,0-3-3.78c-1.54-1.92-3.51-3.46-5.11-5.32-1.06-1.18-2.34-2.19-3.46-3.31-.9-.9-2-1.54-2.93-2.45a27.41,27.41,0,0,0-3.94-3.14c-2.23-1.54-4.42-3.14-6.71-4.63-2.07-1.39-4.36-2.34-6.39-3.73a.92.92,0,0,0-.48-.16,3.1,3.1,0,0,1-1.54-.69c-1.65-1.12-3.57-1.65-5.27-2.56-1.28-.69-2.77-1-4.16-1.59a21.36,21.36,0,0,0-2.66-.91c-1-.21-1.86-.69-2.82-1q-2.56-.8-5.11-1.44a39.76,39.76,0,0,1-4.37-1.06,18.69,18.69,0,0,0-3.52-.53,63,63,0,0,0-7.77-1,11.7,11.7,0,0,1-3.3-.27,5.31,5.31,0,0,0-1.87-.21h-1.86a55,55,0,0,0-6,0,32.53,32.53,0,0,1-5.11.43,4.39,4.39,0,0,0-2.34.37,1.18,1.18,0,0,1-.75.1,20.63,20.63,0,0,0-6.23,1,.92.92,0,0,1-.37.05,13.56,13.56,0,0,0-4.1.85c-1.65.43-3.3.85-5,1.33-1.81.54-3.46,1.44-5.33,1.71,0,0,0,0-.1,0a19.4,19.4,0,0,1-3.25,1.28c-.8.32-1.6.69-2.4,1.06a23.47,23.47,0,0,1-2.4,1.12,20,20,0,0,0-3.35,1.65,38.69,38.69,0,0,0-5.27,2.93c-.69.48-1.49.75-2.13,1.23-1.33.95-2.66,1.86-4,2.76-2.24,1.55-4.37,3.25-6.44,5a26.11,26.11,0,0,0-3.25,2.77c-1.33,1.43-2.77,2.71-4.1,4.1-1.12,1.17-2.4,2.13-3.41,3.35C49.22,64.23,47.57,66,46.18,68c-.9,1.23-1.86,2.45-2.71,3.68-1.12,1.59-2.18,3.3-3.25,5a7.6,7.6,0,0,0-.9,1.38,8.06,8.06,0,0,1-1.5,2.51A3.19,3.19,0,0,0,37.13,82c-.05.16-.1.32.16.32a30.19,30.19,0,0,1,3.2.64c2.18.27,4.26,1,6.44,1.28,1.33.21,2.56.85,3.94.9a1.67,1.67,0,0,1,.48.11,32,32,0,0,0,4.42,1c1.28.32,2.61.48,3.94.75s2.93.53,4.37.85c1.22.26,2.39.42,3.62.8,1,.32,2.18.42,3.25.64a29,29,0,0,1,6,1.91c.16.06.27,0,.43-.1a11.64,11.64,0,0,0,2.13-1.39,8.77,8.77,0,0,1,2.13-1.54,3,3,0,0,0,1-.64A75.83,75.83,0,0,1,91,82.38c1.28-.74,2.66-1.27,3.94-2,1.81-1.06,3.78-1.76,5.64-2.72,1.5-.74,3.15-1,4.64-1.65A13.59,13.59,0,0,1,109,74.82a.28.28,0,0,0,.21-.1c.21-.43.64-.38,1-.43.22,0,.48,0,.53-.05.48-.54,1.12-.43,1.71-.48a1,1,0,0,0,.53-.16,1.51,1.51,0,0,1,1.07-.32,1.83,1.83,0,0,0,1.17-.22,1.48,1.48,0,0,1,1-.31c.48-.06,1,.16,1.38-.06a3.9,3.9,0,0,1,1.86-.48,43.16,43.16,0,0,1,6.93-.48c2,.06,4.1,0,6.12.06a38.12,38.12,0,0,0,4.31.42h.06c1.44.7,3.14.48,4.63,1.12,1.12.48,2.34.43,3.46,1a11,11,0,0,0,1.87.69c.79.21,1.54.43,2.34.69s1.6,1,2.61,1a.61.61,0,0,1,.32.16,2.46,2.46,0,0,0,1.33.58,8.38,8.38,0,0,1,1.44.53c1.27.64,2.61,1.18,3.83,1.87a18.55,18.55,0,0,0,3.09,1.54.41.41,0,0,1,.21.22,2.71,2.71,0,0,0,1.12.79A41.7,41.7,0,0,1,169,85.9L170.63,87c.43.32,1,.53,1.44.85a2.71,2.71,0,0,0,1.38.42c4.42.11,8.84-.74,13.26-.69,1.55,0,3-.42,4.58-.48a51.91,51.91,0,0,0,7.14-.48c2.4-.42,4.79-.21,7.19-.48a64.25,64.25,0,0,0,8.41-.69ZM85.16,185.42c0-.16,0-.32,0-.53-.21-.58,0-.8.53-1,.75-.21,1.55-.53,2.29-.8.16,0,.38-.1.43-.32a4.86,4.86,0,0,0,.64-2.44c0-.16,0-.38.11-.48.37-.16.37-.48.37-.8a1.4,1.4,0,0,1,1.17-.85c.48.1.37.53.37.9,0,1.81,0,3.57,0,5.38a7.22,7.22,0,0,1-.58,3.19,3.3,3.3,0,0,0-.43,2.13,3.21,3.21,0,0,1-.05,1.6,7.42,7.42,0,0,1-.8,2.56,23.08,23.08,0,0,1-1.71,2.29c-.1.1-.26.21,0,.42a3.09,3.09,0,0,1,1,2.08,9.21,9.21,0,0,1,0,4.21c-.1.42-.48.69-.53,1.12a15.36,15.36,0,0,1-1.49,3.62c-.27.64-.85,1.11-.75,1.91.06.38-.42.54-.42,1a19.88,19.88,0,0,0,0,2.56,7.13,7.13,0,0,1-.85,4.42,3.94,3.94,0,0,0-.32.74c-.27.43-.16.64.21.91.58.42,1.33.37,1.86.74a11.19,11.19,0,0,0,3.25,1.28c1.71.53,3.25,1.49,5,1.65h.05a6.94,6.94,0,0,0,3,1c1.54.32,2.92,1.12,4.52,1.07a.25.25,0,0,1,.21.11,2.38,2.38,0,0,0,1.34.37c.42.05.95-.11,1.27.21a1.67,1.67,0,0,0,1.12.37,3.78,3.78,0,0,1,1.71.16,4.48,4.48,0,0,0,1.7.38c.75,0,1.44.1,2.13.21,2.45.27,4.9.64,7.4.8,2,.16,3.94.11,5.91.11.75,0,1.12-.43.7-.91s-.43-1.22-.75-1.81a6.69,6.69,0,0,1-.64-2,23.56,23.56,0,0,1-.74-3.83c0-.59-.38-1.18-.38-1.82,0-2.82,0-5.64,0-8.41a3.61,3.61,0,0,1,.37-2.34.93.93,0,0,0,.11-.53c-.11-1.07.48-2.08.58-3.09a.46.46,0,0,1,.16-.27c.11,0,.27.05.27.21,0,.48.48.86.43,1.34-.11.69.1,1.38-.06,2.07a2.65,2.65,0,0,0,.06,1.92.65.65,0,0,1-.11.53,1.68,1.68,0,0,0,0,1.6,2.08,2.08,0,0,1,.16.8c0,1.17,0,2.29,0,3.46a26.11,26.11,0,0,0,.43,5.38,33.33,33.33,0,0,1,.21,4,11.54,11.54,0,0,1,.43,2.29c-.06,1.33,0,1.33,1.28,1.33a18.44,18.44,0,0,0,4.58-.16c2.45-.53,4.95-.42,7.4-.9a15.77,15.77,0,0,1,4.2-.64,1.8,1.8,0,0,0,.75-.16,5.71,5.71,0,0,1,1.6-.37,3.22,3.22,0,0,0,1-.16,38.4,38.4,0,0,1,4.47-1.07c1.49-.37,3-.85,4.47-1.38a23.58,23.58,0,0,0,4.05-1.44,12.24,12.24,0,0,1,2.71-1.07,28.45,28.45,0,0,0,2.93-1.27c.64-.32.75-.7.32-1.34a2.68,2.68,0,0,1-.32-.9,26,26,0,0,1-.64-4.85,9.76,9.76,0,0,1,.11-4.1,3.21,3.21,0,0,0,.05-.69V196.34a1.05,1.05,0,0,0-.1-.69,3.86,3.86,0,0,1-.43-1.87,2.54,2.54,0,0,0-.16-1.27c-.74-1.39-.58-3-1.33-4.53a35.35,35.35,0,0,1-1.65-4.47c0-.16-.11-.43-.32-.43s-.27.27-.27.43a2,2,0,0,1-.21.53c-1.12,1.65-2.13,3.35-3.35,4.9a31.1,31.1,0,0,0-2.67,4.26,4.19,4.19,0,0,0-.74,1.92c0,.16,0,.37-.16.42s-.37-.1-.48-.21a1.39,1.39,0,0,1-.21-1.55c.42-1,.26-2.13.85-3.14a9.47,9.47,0,0,1,.69-1.54c.59-.75,1-1.65,1.65-2.4a17.49,17.49,0,0,0,2.34-3.41c.11-.21.22-.48.32-.69a11,11,0,0,1,.8-1.92,1.66,1.66,0,0,0,.11-1.65,2.58,2.58,0,0,1-.43-1.65c0-.53,0-1.06-.05-1.59,0-.75,0-.7-.69-.32-1.92,1.22-3.62,2.71-5.81,3.46-.21,0-.48.32-.69.1s.16-.37.32-.53a11.75,11.75,0,0,0,1.44-1.76,4.29,4.29,0,0,1,1.54-1.54,8.51,8.51,0,0,0,2.45-2.34,13.21,13.21,0,0,0,1.12-1.87,1.53,1.53,0,0,1,1.44-.9,1.11,1.11,0,0,1,1.22.85,2.83,2.83,0,0,0,1,1.22,8.66,8.66,0,0,1,1.71,1.71c.8,1,1.6,2,2.4,3.09a31.47,31.47,0,0,1,2,2.5c1.22,2,2.92,3.57,4,5.7a.8.8,0,0,0,1.06.42h.06a9.43,9.43,0,0,0,2.77-1.54,3,3,0,0,1,2.07-1,4.48,4.48,0,0,0,2.13-.75,9.13,9.13,0,0,0,3.52-4c.64-1.39,1.7-2.61,2.07-4.15a13.34,13.34,0,0,0,.7-4.32c-.11-.69-.22-.8-.8-.48a37.31,37.31,0,0,1-3.78,2,6.61,6.61,0,0,1-3.62.95c-.22,0-.32,0-.32.32,0,.91-.8,1.81-.22,2.77a.19.19,0,0,1-.05.16,8.31,8.31,0,0,0-.27,2.29,2.61,2.61,0,0,1-1.54,2.4.3.3,0,0,1-.48,0,0,0,0,0,0,0,0,4,4,0,0,1-1.23-2.29,6.8,6.8,0,0,0-1.28-4,4.14,4.14,0,0,1-.63-1.49,2.05,2.05,0,0,0-.22-.48,5.23,5.23,0,0,1-1.06-2.29,21.17,21.17,0,0,1-.69-2.66,29.55,29.55,0,0,1-1-4.47,1.78,1.78,0,0,0-.16-.7,4,4,0,0,1-.16-2.23c.16-.64.32-1.33.48-2a3,3,0,0,1,1.17-2,1.19,1.19,0,0,0,.48-.79,1,1,0,0,1,.26-.64,20.63,20.63,0,0,1,2.4-2.45c1.33-1.07,2.56-2.35,4.47-2.35.06,0,.11-.05.16-.1.27-.48.7-.32,1.07-.38a1.77,1.77,0,0,0,.74-.1c.48-.22.48-.59.11-.85a3.58,3.58,0,0,0-.8-.27,3.53,3.53,0,0,0-3.62.05,16.47,16.47,0,0,1-4.21,1.12,19.42,19.42,0,0,1-2.93.69c-.32,0-.47.27-.63.59-.38.69-.7,1.33-1.12,2-.27.48-.54.85,0,1.33a.85.85,0,0,1,.16.54,4.28,4.28,0,0,1-.8,3,5.38,5.38,0,0,0-.8,1.86,7.64,7.64,0,0,1-.69,2.35,5.28,5.28,0,0,1-4.42,3.19c-.27.05-.69,0-.64.37.1,1-.64,1.71-1,2.56a6.61,6.61,0,0,1-4.37,3.51c-.32.11-.53.27-.53.59a1.78,1.78,0,0,1-.69,1.38,7,7,0,0,0-.86.86,6,6,0,0,1-4.84,2.45,8.45,8.45,0,0,1-1.23-.06,1.16,1.16,0,0,0-1,.32c-.32.27-.63.59-.9.85-.75.75-1.92.75-2.66,1.49h-.11a2.42,2.42,0,0,0-1.07.22,2.38,2.38,0,0,1-1.38.1,2.64,2.64,0,0,0-2.5.27A8.14,8.14,0,0,1,133,181a1.06,1.06,0,0,0-1,.64,6.57,6.57,0,0,0-.75,2.18c0,.64-.58,1.18-.42,1.81.21,1-.75,1.87-.16,2.83.05.05,0,.1-.06.16a2.46,2.46,0,0,0,0,2.61,1.09,1.09,0,0,1,.11.42c0,1.12.11,2.18.11,3.3,0,.22.05.54-.27.59s-.32-.21-.43-.37a15.87,15.87,0,0,1-1.54-4.58c-.16-1.44-.59-2.83-.21-4.26a20.54,20.54,0,0,0,.32-2.45c0-.16,0-.43.1-.48.43-.38.32-.85.38-1.28s-.16-.59-.59-.59h-2.34c-.64,0-1.39.22-1.92-.32a.41.41,0,0,0-.43.06,2.88,2.88,0,0,1-1.49.53,2.36,2.36,0,0,0-1.54,1,11.88,11.88,0,0,0-1.86,5.11c-.11,1-.64,1.87-.54,2.88,0,.11-.1.21-.32.21-.1-1.33-.16-2.71-.16-4,0-.48-.1-1,.38-1.39a.76.76,0,0,0,.1-.48,3.88,3.88,0,0,1,.7-2c.58-.85.31-1.44-.75-1.54a5.34,5.34,0,0,1-1.54-.43,5.87,5.87,0,0,0-2.72-.69,3.77,3.77,0,0,1-2.24-.53c-.42-.22-.42-.64-.69-1-1.33-1.44-4.63-1.65-6-.59-1,.75-2,.48-3.09.53a.26.26,0,0,1-.21-.1,4.15,4.15,0,0,1-1.12-2.4.66.66,0,0,0-.64-.69h-.16a1,1,0,0,1-.75-.21,7.55,7.55,0,0,1-2-2.08,1.74,1.74,0,0,0-1.71-.91,19.74,19.74,0,0,0-2.55.06,4.88,4.88,0,0,1-4-1.44A10.75,10.75,0,0,1,88,169.93a1.4,1.4,0,0,0-1.44-.64,9.09,9.09,0,0,1-1.65,0c-1.76-.27-3.41-.75-4.31-2.56-.11-.21-.27-.42-.37-.64a1,1,0,0,0-1.82-.1,3.63,3.63,0,0,1-.53.48,12.52,12.52,0,0,0-2.45,1.91,2.1,2.1,0,0,1-.42.32,4.08,4.08,0,0,0-2.24,2,18.33,18.33,0,0,1-4.31,4.74,1.58,1.58,0,0,0-.59,1.23,6.12,6.12,0,0,0,.8,3.41c1.12,2.29,2.08,4.68,4,6.55,1.07,1.06,2.08,2.23,3.15,3.35a1.25,1.25,0,0,0,.42.37,11.28,11.28,0,0,1,2.56,1.92,6.81,6.81,0,0,1,2.45,4.47,2.07,2.07,0,0,0,.42,1.07.47.47,0,0,0,.64.21c.06,0,.06-.05.11-.05,2.08-1.33,4.37-2.4,5.38-4.9,0,0,.1,0,.16-.11.53-.58.32-1.38.58-2A4.87,4.87,0,0,0,86,188.62a9.55,9.55,0,0,1-1.12-.43,56.54,56.54,0,0,0-5.17-2.39,3.34,3.34,0,0,1-2.07-2.08c-.22-.53-.38-1.12-.59-1.65s-.48-.59-.64-1a17.93,17.93,0,0,0-1.22-2.77,2,2,0,0,1-.22-.59,6.14,6.14,0,0,0-.42-1.7,1.2,1.2,0,0,1,.05-1.12,4.61,4.61,0,0,1,1,1c.64,1,1.44,1.87,2,2.93a24.74,24.74,0,0,1,1.91,3.73,2.61,2.61,0,0,0,2.08,1.76,7.9,7.9,0,0,1,1.92.85,5.24,5.24,0,0,1,1.59.26ZM73.5,140.59c-2.45-.54-4.9-.75-7.35-1.17l-6.28-1.23c-2.93-.59-5.75-1.54-8.68-2.34-.9-.27-1.7-.69-2.61-1a28.69,28.69,0,0,1-5.11-2.13c-1.55-.85-3.25-1.39-4.53-2.72a.84.84,0,0,0-.37-.21,3.35,3.35,0,0,1-1.17-.75,22.79,22.79,0,0,1-3.94-3.67A18.25,18.25,0,0,0,31.33,123c-.37-.27-.16-.8-.48-1.06a5.65,5.65,0,0,1-1.17-1.55c-.38-.64-1-1-1.28-1.7a12.41,12.41,0,0,0-2-2.72,2.47,2.47,0,0,0-.27,1.33c-.05.38.11.8-.16,1.12a1.38,1.38,0,0,0-.32,1.07v4.42a3.12,3.12,0,0,1-.37,2,1,1,0,0,0-.11.85,4.27,4.27,0,0,1,.22,2.45,17.31,17.31,0,0,0,.21,3.73c.05,1.75.05,3.46.11,5.21,0,.8.53,1.5.48,2.35,0,1-.22,2,.42,3a.59.59,0,0,1,.05.43c-.26,1.7.48,3.24.75,4.89.21,1.34.59,2.67.8,4,.11.48.58.64.58,1.17s-.15,1.28.43,1.76c.11.05.05.26.05.42a8.84,8.84,0,0,0,.7,2.83,10.25,10.25,0,0,1,.85,2.44,34.73,34.73,0,0,0,1.28,3.36c.32.9.69,1.81,1.11,2.72s.91,1.81,1.34,2.71a5.79,5.79,0,0,0,.69,1.55,24.31,24.31,0,0,1,1.44,2.76c.85,1.39,1.27,2.93,2.39,4.16a.83.83,0,0,1,.27.48,3,3,0,0,0,.58,1.22c1.6,2.56,3.41,4.95,5.17,7.4a40.75,40.75,0,0,0,4.9,6,5.78,5.78,0,0,1,1.6,1.81,2.26,2.26,0,0,0,.64.9c1.54,1.23,2.76,2.83,4.31,4.16,1,.8,1.92,1.7,2.82,2.61s2.08,1.59,3,2.55a9,9,0,0,0,2.5,2,33.35,33.35,0,0,1,3.62,2.51c1,.63,1.92,1.33,2.88,2,1.75,1.17,3.62,2.18,5.43,3.24.16.11.37.16.53.27,1.06.43,2,1.12,3,1.65a1.14,1.14,0,0,0,1.39-.16,5.59,5.59,0,0,0,1.33-3.35,9.37,9.37,0,0,0,0-3,5.65,5.65,0,0,1,.64-2.82c.58-1.86,1.75-3.46,2.23-5.38,0-.05.06-.1.11-.16.21-.1.21-.26.21-.47v-3.47c0-.37-.1-.42-.42-.32a11.57,11.57,0,0,0-2.56,1.28,2.46,2.46,0,0,1-3,0c-.64-.53-.32-1.54-.91-2.08.22-1.33-.64-2.29-1.11-3.41a1.1,1.1,0,0,0-1.12-.53c-.43,0-.43.37-.59.64s-.32.59-.48.85A10,10,0,0,0,74.89,197a2.42,2.42,0,0,1-1.71,1.33l-.53.16a2.2,2.2,0,0,1-2.88-.37,2.71,2.71,0,0,1-1-2.29c.11-1,0-2,.06-2.93a11.83,11.83,0,0,1,.26-3.62,4.9,4.9,0,0,0,.27-1.76.8.8,0,0,1,.27-.74.78.78,0,0,0,0-1.07,6.29,6.29,0,0,0-.32-.59C68.82,184,68.18,183,67.59,182c-.37-.64-.53-1.39-.85-2.08a7.35,7.35,0,0,1-.69-3.2,4.53,4.53,0,0,1,.69-2.76,6.63,6.63,0,0,1,1.49-1.5,16.93,16.93,0,0,0,2.56-2.66c1-1.28,1.86-2.66,3.35-3.35.59-.27,1.17-.59,1.76-.91.27-.16.8-.16.8-.53s-.53-.43-.8-.59a17.39,17.39,0,0,1-2.18-1.33A19,19,0,0,1,72,160.29a.56.56,0,0,1-.06-.43,1.89,1.89,0,0,0-.85-2c-1.38-1.12-1.86-2.77-2.29-4.42a2.06,2.06,0,0,1,.06-1.6c.32-.53.42-1.12.8-1.65a1.15,1.15,0,0,0-.11-1.44,8.63,8.63,0,0,1-.75-2.07.45.45,0,0,1,.06-.27,3.94,3.94,0,0,0,.26-1.38,3.66,3.66,0,0,1,2.51-3.14,2.88,2.88,0,0,0,1.91-1.28Zm112.26-2.29h0l-4.21,0c-.16,0-.37,0-.43.21s.16.27.32.32l.8.32a2.11,2.11,0,0,1,1.12,2.77l-.16.32a21.47,21.47,0,0,1-2.45,3c-.32.38-.43.91-.05,1a5.09,5.09,0,0,1,1.86,1.07c.75.53,1.76.91,1.76,2.08,0,0,.1.16.21.26a1.05,1.05,0,0,0,1.39.11,20.48,20.48,0,0,1,3.62-1.92,5.84,5.84,0,0,1,1.33-.48c1.6-.26,2.55,0,3.19,1a5.64,5.64,0,0,1,.69,1.44c.11.37.32.85-.05,1.17a1,1,0,0,0-.32.69,2,2,0,0,1-1.33,1.6,9.44,9.44,0,0,0-1.44.69c-.74.48-.69,1.12.06,1.65.48.32,1,.16,1.43.38a10.88,10.88,0,0,1,4.21,2.5,16.17,16.17,0,0,1,1.23,2c.21.37.05,1,.42,1.44a.73.73,0,0,1-.05.8,4.68,4.68,0,0,0-.37.79.84.84,0,0,1-.91.8,13.67,13.67,0,0,1-4.9-.26c-.58-.22-1-.22-1.12.53a.78.78,0,0,1-.32.48c-.8.64-1.43,1.54-2.18,2.24a1.82,1.82,0,0,0-.64,1.59c.05,1.39.05,2.83.05,4.21a5.82,5.82,0,0,1-.58,2.82c-.53,1.12-1.33,2.13-1.76,3.3a17,17,0,0,1-1.65,2.67,9.7,9.7,0,0,1-4.37,3.14,1.41,1.41,0,0,1-.64.1,2.33,2.33,0,0,0-2.18,1c-.8,1-2.08,1.07-3,1.65-.11,0-.16.06-.27,0h-2.29a6.93,6.93,0,0,1-5.11-2.39,9,9,0,0,0-2.13-1.6c-.16-.05-.37-.21-.43.05a2,2,0,0,0,.06,1.12,6.14,6.14,0,0,1,1,2.5c0,.22.1.48.16.7.21,1.06.9,2,.85,3.14a.33.33,0,0,0,.05.21c.59.43.43,1,.48,1.6.05,1.65.64,3.19.53,4.85a9.15,9.15,0,0,0,.11,2.39,7.17,7.17,0,0,1,0,3.68,4.29,4.29,0,0,0-.11.79,24.55,24.55,0,0,1-.37,5.6,1,1,0,0,0,0,.53c.48,1.76.11,3.67.85,5.43a3.75,3.75,0,0,0,.48,1c.11.11.16.27.38.16a10.22,10.22,0,0,0,2.23-1c1.71-1.12,3.57-2,5.27-3.09a94.09,94.09,0,0,0,8.1-5.54,3.78,3.78,0,0,1,.64-.37,3.14,3.14,0,0,0,1-.69c1.22-1.55,3-2.45,4.31-3.94,1-1.07,2.29-1.71,3.25-2.77,1.54-1.76,3.36-3.3,4.79-5.17a19.45,19.45,0,0,1,2-2.13,36.91,36.91,0,0,0,3.14-4,12.81,12.81,0,0,0,1.33-1.65c.53-1,1.28-1.81,1.86-2.72,1-1.6,2.24-3.09,3.2-4.74.53-.9,1.06-1.81,1.54-2.77.59-1.27,1.28-2.5,2-3.78a14.52,14.52,0,0,0,1.23-2.61c.48-1.65,1.49-3,2.07-4.58a35,35,0,0,1,1.18-3.35c.16-.27.48-.48.48-.85a6.42,6.42,0,0,1,.47-1.92c.22-.64.75-1.17.7-1.92a2.64,2.64,0,0,1,.21-.95,10.69,10.69,0,0,0,.75-2.19c.1-1.06.79-2,.63-3.14,0-.05.06-.05.06-.11a3.51,3.51,0,0,0,.42-1.65c0-.21-.05-.42.06-.53.58-.59.42-1.33.48-2.08,0-.21-.06-.42.05-.53.53-.69.32-1.54.53-2.34.43-2,.32-4.05,1-6V138c.05-1.86.05-3.73.11-5.59,0-.59-.11-1.17.32-1.65.1-.11.05-.27,0-.43a6.41,6.41,0,0,1-.32-2.5,25,25,0,0,0-.11-3.46c0-.32-.16-.48-.43-.21a11.77,11.77,0,0,1-2.5,1.65c-1.33.8-2.61,1.65-3.94,2.29-2.24,1.11-4.37,2.45-6.71,3.46-1.86.8-3.67,1.75-5.64,2.45a7.32,7.32,0,0,0-1,.42,26.71,26.71,0,0,1-5.32,1.81c-1.22.32-2.4,1.07-3.73,1-.05,0-.1,0-.1.05a29,29,0,0,1-4.58,1,29.79,29.79,0,0,1-3.78,0Zm-10.5,21.14a2.88,2.88,0,0,1,.27-1.92,1,1,0,0,0,.21-.8c-.05-.8.54-1.33.91-2,.11-.21.37-.27.64-.32.48-.11.64,0,.64.53-.06,1.6,0,3.25,0,4.85,0,1.17.21,1.38,1.38,1.38a10.75,10.75,0,0,1,3.2.43c1.49.53,1.75,1.7.69,2.87a13.36,13.36,0,0,1-1.65,1.39c-1.07.8-1.55.8-2.5-.16a1.15,1.15,0,0,0-1.39-.21c-.8.31-.74.95-.85,1.65a2,2,0,0,0,1,2.13,1.46,1.46,0,0,1,.69,1.06c0,.37.16.43.48.43a5.42,5.42,0,0,0,3.57-1,11.63,11.63,0,0,1,2.23-1.33,9.6,9.6,0,0,0,2.24-1.33c1.44-1.18,3-2.24,3.83-3.94.38-.8.91-.91,1.71-.91,1.12.05,2.13.53,3.25.59,1.54.05,1.54.1,1.49-1.55,0-.42.05-.9-.32-1.17-.85-.69-1.49-1.7-2.61-2.13a15.15,15.15,0,0,0-2.18-.85c-.64-.11-1.28-.27-1.92-.37-1-.22-1.28-.86-.8-1.66a1.24,1.24,0,0,0,.27-.74c-.06-1.28.9-1.81,1.81-2.08a2.9,2.9,0,0,0,1.81-1.65,1.34,1.34,0,0,0-1.07-1.76,2.81,2.81,0,0,0-2.39.59,1,1,0,0,1-.48.21c-1.28.22-2.13,1.33-3.41,1.6a2.9,2.9,0,0,1-1.65,0c-.85-.37-1.65-.75-2.51-1.06a.73.73,0,0,0-.47-.11c-1.39.42-2.83.53-4.05,1.33a13.93,13.93,0,0,0-4.42,4.05c-.16.26-.27.53,0,.8s.32.37,0,.58-.26.43.06.64a.77.77,0,0,1,.21.64.61.61,0,0,1-.06.32c-.1.64.22,1.38-.15,2s.31,1.28.26,2c-.05.27-.21.75.27.91s.69-.21,1-.43a.87.87,0,0,0,.37-.58A10.9,10.9,0,0,0,175.26,159.44ZM75.69,192.77a1.2,1.2,0,0,0-.32-.9c-1.23-1.33-2.77-2.35-3.84-3.78a.34.34,0,0,0-.42-.16c-.22,0-.22.26-.22.42a2.12,2.12,0,0,1-.21,1.17,2,2,0,0,0-.27,1.12,18.86,18.86,0,0,1-.21,4.26c-.16.7.37,1.17.21,1.81a.21.21,0,0,1,.06.11,2.08,2.08,0,0,0,3.19-.53,6.05,6.05,0,0,1,1.17-2,13.47,13.47,0,0,0,.86-1.49Zm102.56-54.42a9.36,9.36,0,0,0,1.75-.11c.16-.05.43,0,.38-.26s-.27-.16-.43-.16c-.48-.11-1.06,0-1.49-.27a2,2,0,0,0-1.06-.37c-.38,0-.64,0-.64.53s.21.64.69.59A4.25,4.25,0,0,0,178.25,138.35Z" transform="translate(0 -9)"/><path class="cls-4" d="M173.24,90.74c.8.43,1.33-.37,2-.32,4.05.16,8.05-.42,12.09-.69,1.81-.1,3.62-.26,5.49-.42.74-.06,1.54,0,2.29-.06a3.5,3.5,0,0,0,1.81-.26.17.17,0,0,1,.16-.06c1.06.59,2-.42,3.09-.26a10.67,10.67,0,0,0,3.19-.06,17.74,17.74,0,0,0,2.88-.37,2,2,0,0,1,.58-.11,42,42,0,0,0,6.93-.42c.26,0,.53,0,.79,0a85.79,85.79,0,0,0,9.59-.64c2.93-.27,5.91-.38,8.89-.8,1.71-.27,3.46-.32,5.17-.64a6.66,6.66,0,0,1,1.49,0,4.68,4.68,0,0,0,2.39-.38,2,2,0,0,1,1.12-.1,11,11,0,0,0,3.2-.38,8.31,8.31,0,0,1,1.92-.16c.53,0,1,.06,1.38-.42.11-.16.32-.06.48-.11a2.33,2.33,0,0,0,1-.26,1.64,1.64,0,0,1,2.5.63,1.14,1.14,0,0,1,0,1A10.25,10.25,0,0,1,251.84,88a31.26,31.26,0,0,0-2.18,2.6A18.88,18.88,0,0,0,246.89,94a.47.47,0,0,1-.22.22,27.19,27.19,0,0,0-4.47,5.05c-1.38,1.76-3.25,3.15-4.31,5.22a3.59,3.59,0,0,1-.59.7c-.64.69-1.22,1.43-1.86,2.13-1.71,1.86-3.25,3.83-4.79,5.8-1.34,1.76-2.93,3.3-4.26,5.11a12.55,12.55,0,0,1-4,3.84,8.64,8.64,0,0,0-2.82,1.91,2.82,2.82,0,0,1-1,.54,27,27,0,0,1-3.46,1.91c-1.28.43-2.34,1.39-3.57,1.92-.85.37-1.65,1-2.55,1.33-1.76.75-3.52,1.49-5.22,2.29a9.41,9.41,0,0,1-1.71.69,10.08,10.08,0,0,0-2.71,1.07,13.85,13.85,0,0,1-2.88.8c-2.18.85-4.58.9-6.81,1.54a8.81,8.81,0,0,1-2.67.11c-.64,0-1.33-.06-2,0a16.51,16.51,0,0,1-4.52-.64c-.91-.16-1.71-.69-2.61-.91-2-.42-3.2.48-3.25,2.51v1.7c0,.32-.11.59-.53.53a1,1,0,0,0-.86.38c-.16.21-.37.15-.58.15-.91,0-1.81.06-2.66,0a6.69,6.69,0,0,0-4.74,1.44,1.23,1.23,0,0,1-1,.22c-1.17,0-2.4,0-3.57-.06a3.88,3.88,0,0,0-2.29.59,10.25,10.25,0,0,1-1.7.9c-.48.16-1,.38-1.39-.21-.05-.05-.1-.11-.16-.11-1.22-.1-2.39-.69-3.67-.37a4.55,4.55,0,0,1-1.87.27c-.47-.06-.79.37-1.17.53-1.17.59-2.55.91-3.25,2.24a1.62,1.62,0,0,1-1.81.37,6.72,6.72,0,0,0-1.75-.69,14.85,14.85,0,0,0-4.05-1,15.91,15.91,0,0,0-4.21.15,9.58,9.58,0,0,0-3.19.91,24.18,24.18,0,0,0-3.09,1.65,4,4,0,0,1-3.14.48c-.69-.11-1.39-.27-2.08-.37a3.9,3.9,0,0,0-2.34.21,6.86,6.86,0,0,1-2.77.37,40.3,40.3,0,0,0-9.11.32c-.69.11-1.38.16-2.07.22a4.27,4.27,0,0,0-.8.1c-1,.69-1.87.06-2.72-.37a4.87,4.87,0,0,0-.85-.37,4.24,4.24,0,0,1-1.6-.64c-.1-.11-.21-.11-.32-.16-1.65,0-3.19-1.07-4.95-.64l-1.49.32a.92.92,0,0,1-1.07-.32,11.5,11.5,0,0,0-2.66-2.45,10.68,10.68,0,0,0-3.3-1.39c-.75-.1-1.44-.31-2.18-.42a4.14,4.14,0,0,0-2.4.21,2.55,2.55,0,0,1-2.61-.16l-1-.48a2.59,2.59,0,0,1-1.38-1.12,3.62,3.62,0,0,0-2.66-1.59c-2.56-.43-5.17-.75-7.73-1.17-2-.38-4.1-.8-6.07-1.28-1.17-.27-2.34-.64-3.51-1a35.05,35.05,0,0,1-4-1.23,2.85,2.85,0,0,0-1.28-.32c-.42.06-.53-.47-.95-.53a8.88,8.88,0,0,1-3.25-1.28,2.79,2.79,0,0,0-.8-.32c-1-.05-1.71-.9-2.66-1.06-1.18-1.23-2.88-1.54-4.16-2.56a25,25,0,0,1-4.52-4.15c-.32-.43-.7-.85-1.07-1.28s-1.12-1-1.28-1.86a.26.26,0,0,0-.1-.21,72.34,72.34,0,0,1-4.42-6.18,9.45,9.45,0,0,1-1-1.65,13.41,13.41,0,0,0-1.07-1.49c-.37-.54-.64-1.18-1-1.71-1.44-2-2.4-4.2-3.73-6.23-.9-1.44-1.91-2.82-2.93-4.2a25.44,25.44,0,0,0-2.34-3.15,8.53,8.53,0,0,1-1.22-1.86,4.13,4.13,0,0,0-1-1.28c-1-.85-1.66-2-2.56-2.93a24.63,24.63,0,0,0-2.82-3,4,4,0,0,1-1-1A11.24,11.24,0,0,0,3.53,82.7a2.2,2.2,0,0,1-1.28-1.86,1.37,1.37,0,0,1,.8-1.49c1.6-1,3.3-.85,5.06-.53.91.16,1.81.26,2.72.42.64.11,1.22.43,1.91.53,1.44.32,3,.22,4.32.91.05,0,.16,0,.26,0,2.13.16,4.21.75,6.34,1.12,1.44.27,2.93.53,4.37.91,2.07.53,4.15.74,6.23,1.22,1.59.37,3.14.64,4.74,1,.48.11,1,0,1.38.16,1.76,1,3.78.75,5.65,1.33a32.64,32.64,0,0,0,5.59,1.28,29.59,29.59,0,0,1,3.67.69c1.39.32,2.77.64,4.1.85,1.86.27,3.73.54,5.59.91a41.62,41.62,0,0,1,5.86,1.17c1.44.59,3,.91,4.42,1.6a10.62,10.62,0,0,0,1.28.42A2.49,2.49,0,0,0,78.72,93c1.17-.64,2-1.81,3.3-2.24.22,0,.38-.32.54-.48A31.73,31.73,0,0,1,89,86.11c.16,0,.32-.16.48-.21,1.65-1.49,3.73-2.24,5.64-3.2a29.55,29.55,0,0,1,3.46-1.65c1-.37,2-.74,2.88-1.12a9.37,9.37,0,0,0,2.77-1.27.53.53,0,0,1,.37-.16,15.77,15.77,0,0,0,3-1c.85-.22,1.59-.75,2.5-.91.69-.1,1.49,0,2.08-.64,0,0,.26,0,.42,0,.53,0,1.07.11,1.55-.43.21-.21.69-.16,1-.21a27.2,27.2,0,0,0,3.51-.69A5.19,5.19,0,0,1,120,74.4c1.76,0,3.46-.59,5.27-.64,2.35-.06,4.64,0,6.92.16a34,34,0,0,1,4.11.53c1,.21,2,.32,2.92.59,1.39.37,2.72.74,4.16,1a14,14,0,0,1,1.54.58,4.13,4.13,0,0,0,1.17.32,10.5,10.5,0,0,1,2.45.91,34.41,34.41,0,0,0,3.2,1.28,9,9,0,0,1,1.44.63,34.29,34.29,0,0,1,4,1.82c1.33.85,2.77,1.43,4.1,2.18s2.77,1.76,4.21,2.55a54.5,54.5,0,0,1,4.74,3A5.9,5.9,0,0,1,172,91.81a10.76,10.76,0,0,1,.85,1.6c.21.53.42,1.06.58,1.59.48,1.44.7,2.93,1.12,4.42a5.58,5.58,0,0,1,.16,1.34c0,2.55,0,5.16.06,7.72a21.22,21.22,0,0,0,.58,3.67,1.28,1.28,0,0,0,.37-1.06,1.81,1.81,0,0,1,.43-1.44c.16-.11.11-.37.11-.53,0-2.93,0-5.86-.06-8.84a2.76,2.76,0,0,0-.1-.64,2.81,2.81,0,0,1-.32-1.33,4.12,4.12,0,0,0-.32-1.6c-.27-.59-.22-1.23-.43-1.81-.42-1.28-1.17-2.45-1.54-3.78A.69.69,0,0,1,173.24,90.74ZM13.17,83.45c-.21.11-.75-.27-.8.21a2.67,2.67,0,0,0,.21,1.92,9.32,9.32,0,0,1,1,1.86,33.08,33.08,0,0,0,1.6,3.14,2.81,2.81,0,0,0,.32.7A7.46,7.46,0,0,1,17,93.19a53.87,53.87,0,0,1,4.21,6.29,2.69,2.69,0,0,0,.74.8,1.42,1.42,0,0,1,.59,1,.55.55,0,0,0,.26.43,4.82,4.82,0,0,1,.8,1.07,9.5,9.5,0,0,0,1.81,2.55,1.12,1.12,0,0,1,.27.43,9.9,9.9,0,0,0,2.13,3c1.12,1.12,2.08,2.4,3.09,3.62A104.13,104.13,0,0,0,38.62,120a48.57,48.57,0,0,0,4.9,3.68,41.7,41.7,0,0,0,5.22,3.3,14,14,0,0,0,7.3,1.86,50.46,50.46,0,0,1,8.46.8,14.28,14.28,0,0,0,5,.27,1,1,0,0,0,1-1c.16-1,0-1.87.21-2.83A16.17,16.17,0,0,0,71,121a8,8,0,0,1-.11-2.23c.11-1.6.16-3.2.11-4.8,0-.15,0-.37-.11-.47-.53-.38-.37-1-.37-1.44,0-.22,0-.48-.06-.53a3.8,3.8,0,0,1-.69-2.08,17.45,17.45,0,0,0-1.54-3.2,12.53,12.53,0,0,0-4.48-5.06A22.71,22.71,0,0,0,56,97.4a6.81,6.81,0,0,0-1.86-.53c-.11,0-.21-.11-.27-.16a1.18,1.18,0,0,0-.8-.32c-1.11,0-2.07-.75-3.19-.59,0,0-.11,0-.11,0-.48-.59-1.12-.43-1.7-.48a1.34,1.34,0,0,1-.64,0,8.32,8.32,0,0,0-3.2-.85A37.12,37.12,0,0,1,38.36,93a72.64,72.64,0,0,1-8.26-3,31,31,0,0,1-4.68-2.08c-.59-.37-1.33-.43-2-.75a26.75,26.75,0,0,0-6.29-2.45.6.6,0,0,1-.16,0c-.37-.48-.9-.43-1.38-.48a1.5,1.5,0,0,1-.8-.21A1.84,1.84,0,0,0,13.17,83.45ZM206.74,97.29v.11c-2,0-3.94-.05-5.91,0a10.58,10.58,0,0,0-3.79.85c-1.17.54-2.5.8-3.72,1.33-.64.32-1.17.75-1.81,1.07a10.29,10.29,0,0,0-3.15,2c-1.43,1.39-3,2.61-4.42,4a28.31,28.31,0,0,0-4.52,5.54,4,4,0,0,0-.48,2.18c0,.48.48.59.64.91a1.11,1.11,0,0,1,.26.42c.22.75.91,1.39.7,2.24a.79.79,0,0,0,.1.32,3.2,3.2,0,0,1,.38,1.81c0,2.45,0,5,0,7.4,0,1,.43,1.28,1.44,1.17,1.75-.1,3.35-1,5.11-1.06a.27.27,0,0,0,.21-.11,2,2,0,0,1,1.44-.43,2.89,2.89,0,0,0,1.38-.16,13.39,13.39,0,0,1,3.52-.74c2.56-.43,5.06-1.07,7.61-1.55a38.43,38.43,0,0,0,5.49-1.65c1.12-.37,2.18-.85,3.25-1.27,2-.8,3.83-1.87,5.85-2.61a7.33,7.33,0,0,0,1.5-.7,31,31,0,0,1,3-1.38,16.26,16.26,0,0,0,2.93-1.76c1.22-1.06,2.39-2.23,3.62-3.3a13.81,13.81,0,0,0,2.39-2.61,19.59,19.59,0,0,1,1.92-2.23,4.06,4.06,0,0,0,.43-.54c1.81-2.07,3-4.58,4.9-6.6.58-.64,1.06-1.33,1.59-2,1.76-2.08,3.68-3.94,5.38-6.07a2.84,2.84,0,0,0,1-2c0-.42-.16-.64-.64-.64a6.65,6.65,0,0,0-2.08.38c-1.22.42-2.29,1.22-3.62,1.43a1.11,1.11,0,0,0-.37.11,16.77,16.77,0,0,1-4.15,1.54c-.43.16-.85.32-1.33.48-.75.27-1.39.75-2.19,1a25.11,25.11,0,0,0-3.88,1.17,18.31,18.31,0,0,1-5.38,1.28c-1.39.16-2.83,0-4.21.21s-3,.22-4.53.38a42.32,42.32,0,0,1-5.85.1ZM148.91,133.5h2.23a1.12,1.12,0,0,0,.59-.1,1.91,1.91,0,0,1,1.33-.32c2.08.11,3.89-1,5.91-1.17a.21.21,0,0,0,.11-.06,14.21,14.21,0,0,1,3.3-1.22,23.24,23.24,0,0,0,2.66-1.28,19.41,19.41,0,0,0,3.14-2.08,6.8,6.8,0,0,0,2.61-3.72,9.78,9.78,0,0,0,.11-4.1,13,13,0,0,0-1.6-5.59c-.21-.32-.27-.75-.48-1.12a14.25,14.25,0,0,0-1.49-2.08,11,11,0,0,0-1.54-1.22c-1-.75-2.29-.86-3.41-1.39-.53-.21-1.23-.11-1.81-.27-1-.32-1.92.11-2.93,0a9.22,9.22,0,0,0-1.65.16,16.26,16.26,0,0,0-5.49,1.34c-1.33.47-2.5,1.38-3.83,2a2.1,2.1,0,0,0-.59.37,42.89,42.89,0,0,0-4.74,5,6.34,6.34,0,0,0-1.17,1.87,4.46,4.46,0,0,1-.8,1.6,1.82,1.82,0,0,0-.42.79c-.22.91-.75,1.65-.91,2.56-.1.64-.69,1.12-.69,1.81a3.63,3.63,0,0,1-.32,1.49c-.21.53-.53,1.17.11,1.65.1.06.1.22.1.38a3.68,3.68,0,0,0,2.72,2.55,3.71,3.71,0,0,1,1.33.43A14.4,14.4,0,0,0,148.91,133.5Zm-46.44-1.06a10,10,0,0,0,4.69-.64c1.06-.32,2-1,3-1.33a5,5,0,0,0,3.51-2.66,2.29,2.29,0,0,0,.11-2.13,6.06,6.06,0,0,1-.53-1.71,11.4,11.4,0,0,0-1.65-4.26,4.93,4.93,0,0,1-.54-1.22c-.58-1.76-2-3-3-4.42a15.34,15.34,0,0,0-3.09-2.82,35.86,35.86,0,0,0-3-1.92,14.18,14.18,0,0,0-3.25-1.28,24,24,0,0,1-2.56-.59,5.76,5.76,0,0,0-1.6-.15,9,9,0,0,0-3.4,0,3.1,3.1,0,0,1-1,0,8,8,0,0,0-3,.74,9.31,9.31,0,0,0-3.24,2.45c-.27.22-.48.43-.7.64a16.06,16.06,0,0,0-2.34,6.39c-.21,1.23.05,2.51-.32,3.73a1.57,1.57,0,0,0,0,.48,6.77,6.77,0,0,0,2.67,4.47c2.18,2,5,3,7.72,4a33.24,33.24,0,0,0,5.48,1.43c2,.43,4,1,6,.75ZM131.07,88c.48.32,1.06.26,1.54.53a11.8,11.8,0,0,0,3.73,1.28c1.65.37,3.19,1.22,5,1.12,1.5-.06,2.93.37,4.42.42,2.24.06,4.48,0,6.71.06s4.32-.16,6.45.48l2,.63a12.64,12.64,0,0,1,4.26,1.92l.43.16a.33.33,0,0,0,.42-.11c.11-.1.06-.31-.05-.42a6.21,6.21,0,0,0-.85-.85,17.43,17.43,0,0,0-4.8-2.61,18.55,18.55,0,0,0-4.79-1.28c-3-.21-6-.11-9-.11a19.72,19.72,0,0,1-4.36-.1,17.54,17.54,0,0,0-4.69-.38c-.21,0-.43.06-.53,0a2.15,2.15,0,0,0-1.71-.43,6.72,6.72,0,0,1-2.93-.42,1.12,1.12,0,0,0-1.27.16ZM75.69,108.26a15.78,15.78,0,0,0-.16-3.88,23.2,23.2,0,0,1-.43-3.46,11.56,11.56,0,0,0-.53-2.29c-.06-.11-.11-.27-.22-.27a.54.54,0,0,0-.26.21c0,.85-.59,1.55-.53,2.4,0,2.39,0,4.79,0,7.24a1,1,0,0,1-.16.75,1,1,0,0,0-.11,1.11,2.56,2.56,0,0,1,0,1.66c-.16.53-.53,1.11-.21,1.7a1.8,1.8,0,0,1,.11,1.38,5.89,5.89,0,0,0-.11,1c-.21,2,.53,3.88.43,5.91v.1c0,.11,0,.27.21.27s.21-.11.32-.27c.26-.69.74-1.33.58-2.13a.66.66,0,0,1,.22-.48,1.45,1.45,0,0,0,.32-1.38,3,3,0,0,1,.05-1.39c.27-.85-.05-1.75.32-2.6a.67.67,0,0,0-.11-.54,2,2,0,0,1,0-1.54,2.49,2.49,0,0,0,.22-.85,19.79,19.79,0,0,1,0-2.67Zm19.7-14.37a.79.79,0,0,0,.58.21c1.39,0,2.72,0,4.1,0,1.82,0,3.52-.48,5.33-.54a9.62,9.62,0,0,0,5.91-2.34,3.68,3.68,0,0,1,1.49-.75,25.34,25.34,0,0,0,2.82-.31A1.73,1.73,0,0,0,114,89.2c-.53,0-1.06,0-1.59,0A4.75,4.75,0,0,0,109,90.32a1.68,1.68,0,0,1-1.44.53.46.46,0,0,0-.48.16,1,1,0,0,1-.9.32,14.58,14.58,0,0,0-2.56,0c-2.08.48-4.15.7-6.18,1.33a14.73,14.73,0,0,0-2,1.18Zm20.77-11.83a1.55,1.55,0,0,0,1.06.32h18.37a9.13,9.13,0,0,0,3.62-.53c.16,0,.32,0,.27-.26s-.21-.16-.32-.16c-.8-.11-1.54-.43-2.34-.54s-1.28-.58-2-.58c-1.39-.06-2.72-.06-4.1-.06-1.92.06-3.73.54-5.65.59-2.61,0-5.22.69-7.88.53a1.23,1.23,0,0,0-1.06.69ZM92.62,104.7a12.2,12.2,0,0,0,2.34,0c.85,0,1.6-.43,2.45-.48,1.28,0,2.5,0,3.78,0a.76.76,0,0,1,.59.16,1.06,1.06,0,0,0,1,.27,3,3,0,0,1,1.65.42,4.75,4.75,0,0,0,1.49.53.43.43,0,0,0,.53-.21c.11-.16.21-.42,0-.53-.37-.27-.47-.75-.85-1a17,17,0,0,0-2.18-.75,17.48,17.48,0,0,0-1.86-.37,5.88,5.88,0,0,0-2-.21c-1.5.05-2.93.48-4.42.48a3,3,0,0,0-2.56,1.65Zm64.86-.48c.21-.06.53.16.69-.11s0-.48-.21-.69a2.83,2.83,0,0,0-2.08-1.28c-.42-.11-1-.43-1.33-.27-1.12.48-2.29.54-3.41,1a10.48,10.48,0,0,1-2.45.85,13.29,13.29,0,0,0-2.5,1.17c-.27.11-.27.37-.27.58s.27.27.48.32a2.57,2.57,0,0,0,1.55-.21,9.82,9.82,0,0,1,2.13-.69c1.49-.16,2.66-1,4.1-1.33a2.47,2.47,0,0,1,2.13.32A2.29,2.29,0,0,0,157.48,104.22Zm-36.85,24.6a6.24,6.24,0,0,0-1.12,1.28,1.44,1.44,0,0,0,1.23,2.34h.74a4.06,4.06,0,0,1,1.81.11,6.15,6.15,0,0,0,4.37-.11c1.65-.53,2.13-1.23,2.18-2.61,0-.69-.48-.64-.85-.69s-.11.37-.21.58a.31.31,0,0,0,0,.32c.1.43-.16.59-.54.75a7.41,7.41,0,0,1-3.56.48,11.28,11.28,0,0,0-3.57-.11c-.43.11-.75-.16-.69-.69a1.24,1.24,0,0,1,.21-.75.57.57,0,0,0,0-.9Zm10.6,11.07h1.33c.16,0,.48.11.53-.21s-.27-.26-.48-.32c-2-.05-4-.64-6.07-.58-3.25.1-6.5-.64-9.8.05-2.39-.27-4.74.64-7.13.59-.11,0-.27,0-.32.16s.16.21.32.21a6.61,6.61,0,0,0,3.78-.32,2,2,0,0,1,.53-.11h9.37a22.78,22.78,0,0,1,5,.27,6.73,6.73,0,0,0,2.93.26Zm-10.12,1.6c-.48-.1-1.12.27-1.81.43a9.37,9.37,0,0,0-3.57,1.44c-.21.16-.75.26-.59.58s.59.11.86.06c1.49-.38,2.82-1.07,4.42-1,1.86.05,3.78-.16,5.59.58a12.57,12.57,0,0,0,1.38.48c.11.05.22.11.32,0a.18.18,0,0,0,0-.27h0a7.65,7.65,0,0,0-1.44-1.06,12.25,12.25,0,0,0-5.06-1.23Zm13.31-1.06c.21-.16.69.16.69-.22s-.48-.16-.69-.21-.74-.21-.74.16.53.11.74.27Z" transform="translate(0 -9)"/><path class="cls-5" d="M85.16,185.42a7.68,7.68,0,0,1-1.49-.58,14.51,14.51,0,0,0-1.91-.85,2.71,2.71,0,0,1-2.08-1.76,23.9,23.9,0,0,0-1.92-3.73c-.58-1.06-1.38-1.92-2-2.93a3.25,3.25,0,0,0-1-1,1.36,1.36,0,0,0-.06,1.12,5.82,5.82,0,0,1,.43,1.7,1.16,1.16,0,0,0,.21.59,18,18,0,0,1,1.23,2.77c.16.37.53.58.64,1a15.21,15.21,0,0,0,.58,1.65,3.24,3.24,0,0,0,2.08,2.08A50,50,0,0,1,85,187.87a11.14,11.14,0,0,0,1.12.43,4.86,4.86,0,0,1,2.56,2.29c-.27.64-.05,1.44-.59,2,0,.06-.1.06-.16.11-1,2.5-3.3,3.62-5.37,4.9a.51.51,0,0,1-.7-.05c0-.06,0-.06,0-.11a2.77,2.77,0,0,1-.43-1.07,6.73,6.73,0,0,0-2.45-4.47A10.05,10.05,0,0,0,76.38,190a1.39,1.39,0,0,1-.43-.37c-1.06-1.12-2.07-2.29-3.14-3.35-1.86-1.87-2.88-4.26-4-6.55a6.12,6.12,0,0,1-.8-3.41,1.61,1.61,0,0,1,.58-1.23,16.47,16.47,0,0,0,4.32-4.74,4.3,4.3,0,0,1,2.23-2,.83.83,0,0,0,.43-.32A12,12,0,0,1,78,166.15a1.6,1.6,0,0,0,.53-.48,1,1,0,0,1,1.81.1c.11.22.27.43.37.64.91,1.76,2.56,2.29,4.32,2.56a9.09,9.09,0,0,0,1.65,0,1.4,1.4,0,0,1,1.44.64,11.78,11.78,0,0,0,1.06,1.17,4.87,4.87,0,0,0,4,1.44c.85-.11,1.7,0,2.55-.06a1.83,1.83,0,0,1,1.71.91,7.55,7.55,0,0,0,2,2.08,1,1,0,0,0,.74.21.68.68,0,0,1,.8.53v.16a4.27,4.27,0,0,0,1.12,2.4.28.28,0,0,0,.21.1c1.07-.05,2.13.27,3.09-.53,1.33-1.06,4.64-.85,6,.59.26.26.26.69.69,1a3.75,3.75,0,0,0,2.24.53,6,6,0,0,1,2.71.69,7.69,7.69,0,0,0,1.55.43c1,.1,1.27.69.74,1.54a3.72,3.72,0,0,0-.69,2c0,.16,0,.43-.11.48-.48.37-.37.91-.37,1.39,0,1.33,0,2.71.16,4,.21.06.32,0,.32-.21-.11-1,.43-1.86.53-2.88a11.5,11.5,0,0,1,1.87-5.11,2.36,2.36,0,0,1,1.54-1,3,3,0,0,0,1.49-.53.41.41,0,0,1,.43-.06c.58.54,1.27.32,1.91.32a15.36,15.36,0,0,0,2.35,0c.42,0,.64.16.58.59s.06,1-.37,1.28c-.11.05-.11.32-.11.48-.1.8-.16,1.65-.32,2.45a12.61,12.61,0,0,0,.22,4.26,14,14,0,0,0,1.54,4.58c.05.16.16.48.43.37s.26-.37.26-.59c0-1.11,0-2.18-.1-3.3a1.31,1.31,0,0,0-.11-.42,2.42,2.42,0,0,1,0-2.61.29.29,0,0,0,0-.16c-.58-1,.38-1.87.16-2.83-.16-.63.43-1.22.43-1.81a6,6,0,0,1,.74-2.18,1.07,1.07,0,0,1,1-.64,8.32,8.32,0,0,0,4.1-1.65,2.83,2.83,0,0,1,2.51-.27,2.38,2.38,0,0,0,1.38-.1,2.38,2.38,0,0,1,1.07-.21h.1c.75-.75,1.92-.7,2.67-1.5a11.83,11.83,0,0,1,.9-.85,1.28,1.28,0,0,1,1-.32,8.38,8.38,0,0,0,1.22.06,6.14,6.14,0,0,0,4.85-2.45,4.62,4.62,0,0,1,.85-.86,1.75,1.75,0,0,0,.69-1.38c0-.32.22-.48.54-.59a6.6,6.6,0,0,0,4.36-3.51c.38-.8,1.07-1.54,1-2.56,0-.37.38-.32.64-.37a5,5,0,0,0,4.42-3.19,7.39,7.39,0,0,0,.7-2.35,3.88,3.88,0,0,1,.79-1.86,4,4,0,0,0,.8-3c0-.22,0-.43-.16-.54-.53-.47-.32-.85,0-1.33.38-.64.75-1.33,1.12-2,.16-.27.32-.53.64-.59a18.1,18.1,0,0,0,2.93-.69,16.71,16.71,0,0,0,4.21-1.12,3.78,3.78,0,0,1,3.62-.05,5.38,5.38,0,0,1,.8.27c.42.32.37.64-.11.85a3.86,3.86,0,0,1-.75.1c-.37.06-.85,0-1.06.38a.28.28,0,0,1-.16.1c-1.86,0-3.14,1.34-4.47,2.35a16.35,16.35,0,0,0-2.4,2.45.88.88,0,0,0-.27.64,1.1,1.1,0,0,1-.48.79,3.11,3.11,0,0,0-1.17,2c-.16.64-.32,1.33-.48,2a4,4,0,0,0,.16,2.23c.06.22.11.43.16.7a35.67,35.67,0,0,0,1,4.47,25.37,25.37,0,0,0,.69,2.66,6.88,6.88,0,0,0,1.07,2.29,1.23,1.23,0,0,1,.21.48,6.09,6.09,0,0,0,.64,1.49,6.87,6.87,0,0,1,1.28,4,4.44,4.44,0,0,0,1.22,2.29.34.34,0,0,0,.48.1s.06,0,.06-.05a2.58,2.58,0,0,0,1.54-2.4,6.69,6.69,0,0,1,.27-2.29.6.6,0,0,1,.05-.16c-.59-1,.21-1.86.21-2.77,0-.26.11-.31.32-.31,1.33.21,2.4-.43,3.62-1s2.56-1.28,3.78-2c.59-.32.75-.21.8.48.22,1.49-.37,2.88-.69,4.32s-1.38,2.76-2.08,4.15a9.11,9.11,0,0,1-3.51,4,4.38,4.38,0,0,1-2.13.75,3.09,3.09,0,0,0-2.08,1,8.54,8.54,0,0,1-2.77,1.54.77.77,0,0,1-1.06-.37v0c-1.07-2.08-2.77-3.73-4-5.7a28.93,28.93,0,0,0-2-2.5c-.79-1-1.54-2.08-2.39-3.09a8.35,8.35,0,0,0-1.71-1.7,3.34,3.34,0,0,1-1-1.23,1.2,1.2,0,0,0-1.22-.85,1.58,1.58,0,0,0-1.44.9,13.21,13.21,0,0,1-1.12,1.87,9.43,9.43,0,0,1-2.45,2.34,4.29,4.29,0,0,0-1.54,1.54,11.75,11.75,0,0,1-1.44,1.76c-.11.16-.53.27-.32.53s.48,0,.69-.1a32.64,32.64,0,0,0,5.81-3.46c.64-.43.64-.43.69.32.05.53.05,1.06.05,1.59a2.57,2.57,0,0,0,.43,1.65,1.68,1.68,0,0,1-.11,1.66,14.89,14.89,0,0,0-.8,1.91,5.61,5.61,0,0,1-.32.69,20.59,20.59,0,0,1-2.34,3.41c-.64.75-1.06,1.65-1.65,2.4a9.47,9.47,0,0,0-.69,1.54c-.59,1-.43,2.13-.85,3.15a1.36,1.36,0,0,0,.21,1.54c.11.11.27.27.48.21s.16-.26.16-.42a4.9,4.9,0,0,1,.74-1.92,31.1,31.1,0,0,1,2.67-4.26c1.17-1.54,2.23-3.25,3.35-4.9a2,2,0,0,0,.21-.53c.06-.16.06-.43.27-.43s.27.27.32.43a41,41,0,0,0,1.65,4.47c.75,1.44.59,3.09,1.33,4.53a2.69,2.69,0,0,1,.16,1.28,3.85,3.85,0,0,0,.43,1.86,1.52,1.52,0,0,1,.1.69v10.81a3.21,3.21,0,0,1-.05.69,8.26,8.26,0,0,0-.11,4.1,26,26,0,0,0,.64,4.85,3.13,3.13,0,0,0,.32.9c.38.64.32,1-.32,1.34a27.26,27.26,0,0,1-2.93,1.27,12.24,12.24,0,0,0-2.71,1.07,23.58,23.58,0,0,1-4.05,1.44,31.74,31.74,0,0,1-4.47,1.38,45.28,45.28,0,0,0-4.47,1.07,3.22,3.22,0,0,1-1,.16,4.38,4.38,0,0,0-1.6.37,1.65,1.65,0,0,1-.75.16,18.64,18.64,0,0,0-4.2.64c-2.45.48-5,.42-7.4.9a25.86,25.86,0,0,1-4.58.16c-1.28,0-1.34,0-1.28-1.33a10.9,10.9,0,0,0-.43-2.29c-.21-1.33.05-2.66-.21-4a26.68,26.68,0,0,1-.43-5.38c0-1.17,0-2.29,0-3.46a2.08,2.08,0,0,0-.16-.8,1.68,1.68,0,0,1,0-1.6A.65.65,0,0,0,125,208a2.93,2.93,0,0,1-.06-1.92c.16-.64-.1-1.33.06-2.07.1-.43-.38-.86-.43-1.34a.36.36,0,0,0-.27-.21.3.3,0,0,0-.16.27c-.16,1.06-.69,2-.58,3.09a.62.62,0,0,1-.11.53,3.56,3.56,0,0,0-.37,2.34c0,2.82,0,5.65,0,8.42,0,.63.38,1.17.38,1.81a15.27,15.27,0,0,0,.74,3.83,6.69,6.69,0,0,0,.64,2,12.61,12.61,0,0,0,.75,1.81c.42.59,0,.91-.7.91-2,0-3.94.05-5.91-.11-2.45-.16-5-.53-7.4-.8-.75,0-1.44-.16-2.13-.21a4.48,4.48,0,0,1-1.7-.38,4.64,4.64,0,0,0-1.71-.15,1.45,1.45,0,0,1-1.12-.38c-.32-.32-.85-.16-1.27-.21a2.38,2.38,0,0,1-1.34-.37.36.36,0,0,0-.21-.11c-1.6.05-3-.8-4.52-1.06a7.08,7.08,0,0,1-3-1h0c-1.81-.21-3.36-1.17-5-1.65a11.77,11.77,0,0,1-3.25-1.28c-.53-.37-1.33-.31-1.86-.74-.37-.27-.48-.53-.21-.91a4.73,4.73,0,0,0,.32-.74,7.13,7.13,0,0,0,.85-4.42c-.06-.85.05-1.71,0-2.56,0-.42.48-.58.42-1-.1-.79.48-1.27.75-1.91A17,17,0,0,0,88,203.8c0-.43.43-.64.53-1.12a11,11,0,0,0,0-4.21,2.71,2.71,0,0,0-1-2.08c-.21-.16,0-.26,0-.42.64-.75,1.12-1.55,1.71-2.29a7,7,0,0,0,.8-2.56,3.21,3.21,0,0,0,0-1.6,3,3,0,0,1,.43-2.13,7.36,7.36,0,0,0,.58-3.19c-.05-1.81,0-3.57,0-5.38,0-.32.11-.8-.37-.9a1.4,1.4,0,0,0-1.17.85.8.8,0,0,1-.38.8c-.16.1-.1.32-.1.48a5,5,0,0,1-.64,2.45.62.62,0,0,1-.43.31c-.74.27-1.49.59-2.29.8-.53.16-.8.43-.53,1A3.55,3.55,0,0,0,85.16,185.42Zm24.34,26.1a9.31,9.31,0,0,0,0-3.41,12.49,12.49,0,0,1-.32-3.09.79.79,0,0,0-.21-.69,1,1,0,0,1-.27-.85c0-1.18.21-2.4-.37-3.52a.79.79,0,0,1,0-.48,6.47,6.47,0,0,0,.11-3.62c-.06-.21-.11-.42,0-.58a.71.71,0,0,0-.11-1h0a.61.61,0,0,1,0-.9l.11-.11c.15-.1.31-.32.15-.48-.31-.37,0-.74,0-1.06,0-.16.16-.32,0-.48s-.37.05-.48.21a4.18,4.18,0,0,0-1.54,3.3,1.67,1.67,0,0,1-.11.48,5.05,5.05,0,0,0-.32,3.3c.32,1.76.69,3.47,1.12,5.17a18.8,18.8,0,0,0,1.38,4.74.61.61,0,0,1,.06.32c-.16,1,.58,1.81.85,2.77Z" transform="translate(0 -9)"/><path class="cls-4" d="M175.26,159.44a8.42,8.42,0,0,1-.53,3,1.37,1.37,0,0,1-.37.59c-.32.21-.64.53-1,.42s-.27-.64-.27-.9c.11-.7-.69-1.28-.26-2s.05-1.34.16-2a.74.74,0,0,1,.05-.32.62.62,0,0,0-.21-.64c-.32-.21-.27-.42-.06-.63s.27-.38,0-.59a.59.59,0,0,1,0-.8,14,14,0,0,1,4.42-4.05,16.74,16.74,0,0,1,4.05-1.33.77.77,0,0,1,.48.11c.85.37,1.7.69,2.5,1.06a2.9,2.9,0,0,0,1.65,0c1.28-.26,2.13-1.33,3.41-1.59a.94.94,0,0,0,.48-.22c.63-.74,1.49-.64,2.39-.58a1.33,1.33,0,0,1,1.07,1.75,3,3,0,0,1-1.81,1.66,2.1,2.1,0,0,0-1.81,2.07,1.3,1.3,0,0,1-.27.75c-.48.8-.16,1.49.8,1.65.64.11,1.28.26,1.92.37a10.94,10.94,0,0,1,2.18.85c1.17.43,1.76,1.39,2.61,2.13.37.32.32.75.32,1.17.05,1.6.05,1.6-1.49,1.55-1.12-.05-2.13-.53-3.25-.59-.8,0-1.33.11-1.71.91-.85,1.7-2.39,2.77-3.83,3.94a7.47,7.47,0,0,1-2.24,1.33,12,12,0,0,0-2.23,1.33,5.23,5.23,0,0,1-3.57,1c-.27-.05-.48-.05-.48-.43a1.46,1.46,0,0,0-.69-1.06,2,2,0,0,1-1-2.13c.11-.69,0-1.33.85-1.65a1.14,1.14,0,0,1,1.39.21c1,1,1.43,1,2.5.16A10.41,10.41,0,0,0,183,164.5c1.06-1.17.75-2.35-.69-2.88a9.1,9.1,0,0,0-3.2-.42c-1.17-.06-1.38-.27-1.38-1.39V155c0-.53-.16-.63-.64-.53-.27.06-.53.11-.64.32-.32.64-1,1.17-.91,2a1.08,1.08,0,0,1-.21.79A3.62,3.62,0,0,0,175.26,159.44Z" transform="translate(0 -9)"/><path class="cls-4" d="M75.69,192.77a5.25,5.25,0,0,1-.91,1.44,6.11,6.11,0,0,0-1.17,2,2.09,2.09,0,0,1-3.2.54c0-.06-.1-.06,0-.11.16-.64-.37-1.12-.21-1.81a28.55,28.55,0,0,0,.21-4.26,2.11,2.11,0,0,1,.27-1.12,1.82,1.82,0,0,0,.21-1.17.4.4,0,0,1,.21-.43.34.34,0,0,1,.43.16c1.12,1.44,2.66,2.45,3.83,3.78A1.13,1.13,0,0,1,75.69,192.77Z" transform="translate(0 -9)"/><path class="cls-6" d="M178.25,138.35h-.8c-.48.05-.64-.16-.69-.59s.26-.53.64-.53a1.65,1.65,0,0,1,1.06.37c.43.32,1,.16,1.49.27.16,0,.43-.05.43.16s-.22.21-.38.27A10.24,10.24,0,0,1,178.25,138.35Z" transform="translate(0 -9)"/><path class="cls-3" d="M13.17,83.45a1.84,1.84,0,0,1,1.49.32,1.37,1.37,0,0,0,.8.21c.53,0,1,0,1.38.48a.22.22,0,0,0,.16.05A32.57,32.57,0,0,1,23.29,87c.64.32,1.38.38,2,.75a31,31,0,0,0,4.68,2.08,81.29,81.29,0,0,0,8.26,3,43.63,43.63,0,0,0,5.85,1.39,7.52,7.52,0,0,1,3.2.85,1.34,1.34,0,0,0,.64,0c.58,0,1.28-.11,1.7.48.06,0,.06,0,.11,0,1.12-.1,2.08.64,3.19.59a1.09,1.09,0,0,1,.8.32c.06,0,.16.16.27.16a6.81,6.81,0,0,1,1.86.53,22.71,22.71,0,0,1,7.72,3.83A13.21,13.21,0,0,1,68,106.13a17.45,17.45,0,0,1,1.54,3.2,3.8,3.8,0,0,0,.69,2.08c.11.1,0,.37.06.53,0,.53-.16,1.06.37,1.44.16.1.11.32.11.48,0,1.59,0,3.19-.11,4.79a8,8,0,0,0,.11,2.23,16.17,16.17,0,0,1-.27,5.06c-.16.91,0,1.87-.21,2.83a1.15,1.15,0,0,1-1,1,14.28,14.28,0,0,1-5-.27,50,50,0,0,0-8.46-.8,14,14,0,0,1-7.3-1.86,41.7,41.7,0,0,1-5.22-3.3,55,55,0,0,1-4.9-3.68,106.08,106.08,0,0,1-7.77-7.67c-1-1.17-2-2.45-3.09-3.62a9.9,9.9,0,0,1-2.13-3,1.12,1.12,0,0,0-.27-.43,9.83,9.83,0,0,1-1.81-2.55,4.82,4.82,0,0,0-.8-1.07.55.55,0,0,1-.26-.43,1.39,1.39,0,0,0-.59-.95,3.62,3.62,0,0,1-.69-.8A63.79,63.79,0,0,0,16.84,93a6.34,6.34,0,0,0-1.49-1.91c-.16-.11-.21-.48-.32-.7a33,33,0,0,1-1.59-3.14,12.54,12.54,0,0,0-1-1.81,2.64,2.64,0,0,1-.22-1.91C12.42,83.24,13,83.56,13.17,83.45Z" transform="translate(0 -9)"/><path class="cls-3" d="M206.74,97.29a51.9,51.9,0,0,0,5.85-.05c1.55-.16,3-.16,4.53-.37s2.82,0,4.21-.21a15.86,15.86,0,0,0,5.38-1.28,24.06,24.06,0,0,1,3.88-1.17c.8-.22,1.44-.7,2.19-1,.42-.16.85-.32,1.33-.48a22.77,22.77,0,0,0,4.15-1.55.81.81,0,0,1,.37-.1,21.5,21.5,0,0,0,3.62-1.44,7.29,7.29,0,0,1,2.08-.37c.48,0,.59.21.64.64a3,3,0,0,1-1,2c-1.7,2.08-3.62,4-5.38,6.07-.53.64-1,1.38-1.59,2-1.87,2-3.15,4.53-4.9,6.61-.16.16-.27.37-.43.53a19.7,19.7,0,0,0-1.92,2.24,14.07,14.07,0,0,1-2.39,2.6c-1.23,1.12-2.4,2.24-3.62,3.31a15.14,15.14,0,0,1-2.93,1.75,31.09,31.09,0,0,0-3,1.39,5.36,5.36,0,0,1-1.5.69c-2,.75-3.88,1.81-5.85,2.61-1.07.43-2.13.9-3.25,1.28a39.08,39.08,0,0,1-5.49,1.65c-2.55.48-5.05,1.12-7.61,1.54a11.67,11.67,0,0,0-3.52.75,3,3,0,0,1-1.38.16,2,2,0,0,0-1.44.42.36.36,0,0,1-.21.11c-1.76,0-3.36,1-5.11,1.07-1,0-1.44-.16-1.44-1.18,0-2.45,0-5,0-7.4a3.46,3.46,0,0,0-.38-1.81.79.79,0,0,1-.1-.32c.21-.9-.48-1.49-.7-2.23a1.24,1.24,0,0,0-.26-.43c-.21-.32-.69-.43-.64-.91a3.93,3.93,0,0,1,.48-2.18,30.57,30.57,0,0,1,4.52-5.54c1.39-1.44,3-2.66,4.42-4a10.14,10.14,0,0,1,3.15-2c.64-.26,1.17-.74,1.81-1.06,1.22-.54,2.5-.8,3.72-1.33a10.09,10.09,0,0,1,3.79-.86c2,0,3.94,0,5.91,0v-.16Z" transform="translate(0 -9)"/><path class="cls-3" d="M148.91,133.5a12.94,12.94,0,0,1-7.51-1.81,3.9,3.9,0,0,0-1.33-.42,3.67,3.67,0,0,1-2.72-2.56.92.92,0,0,0-.11-.37c-.64-.53-.37-1.12-.1-1.65a3.63,3.63,0,0,0,.32-1.49c0-.69.58-1.12.69-1.81.16-.91.74-1.65.9-2.56a2.1,2.1,0,0,1,.43-.8,4.54,4.54,0,0,0,.8-1.6,7.33,7.33,0,0,1,1.17-1.86,42.07,42.07,0,0,1,4.74-5,1.43,1.43,0,0,1,.59-.38c1.33-.58,2.5-1.49,3.83-2a15.91,15.91,0,0,1,5.48-1.33,14.38,14.38,0,0,1,1.66-.16c.95.11,1.91-.32,2.92,0a14.47,14.47,0,0,1,1.81.27c1.12.53,2.4.64,3.41,1.38a8.47,8.47,0,0,1,1.55,1.23,15.56,15.56,0,0,1,1.49,2.07c.21.32.26.75.48,1.12a12.93,12.93,0,0,1,1.59,5.59,9.59,9.59,0,0,1-.1,4.1,6.87,6.87,0,0,1-2.61,3.73,18,18,0,0,1-3.14,2.08c-.91.37-1.71.9-2.67,1.28a14.38,14.38,0,0,0-3.3,1.22c-.05,0-.05,0-.1,0-2,.22-3.84,1.28-5.91,1.18a2,2,0,0,0-1.34.31.73.73,0,0,1-.58.11Zm4.42-22.36c-1.44-.27-2.83.53-4.1,1.22A10.77,10.77,0,0,0,145,116a2.44,2.44,0,0,1-.32.37,4.16,4.16,0,0,0-1.44,2.66.61.61,0,0,1-.16.32c-.74.86.32,2.72,1.12,3a4.3,4.3,0,0,0,3,.15,8.84,8.84,0,0,1,1.65-.53c.53,0,.74-.69,1.27-.69a.55.55,0,0,0,.54-.32c.16-.27.42-.21.69-.16s.26.27.26.48A2.16,2.16,0,0,0,154,123c1.6-.32,2.07-1,2.07-2.66,0-1.07-.31-1.49-1.33-1.71-.26,0-.37-.16-.26-.42a2.11,2.11,0,0,1,.26-.59,13.25,13.25,0,0,0,1.6-2.61,3.56,3.56,0,0,0,.11-2.66,1.74,1.74,0,0,0-1.76-1.17Z" transform="translate(0 -9)"/><path class="cls-3" d="M102.47,132.44c-2.08.32-4-.32-6-.69A33.13,33.13,0,0,1,91,130.31c-2.71-1.07-5.54-2-7.72-4-1.33-1.23-2.5-2.56-2.66-4.48a1.32,1.32,0,0,1-.06-.48,20.84,20.84,0,0,0,.32-3.72,15.16,15.16,0,0,1,2.35-6.39,3.5,3.5,0,0,1,.69-.64,9.47,9.47,0,0,1,3.25-2.45,8.34,8.34,0,0,1,3-.75,3.1,3.1,0,0,0,1,0,9.09,9.09,0,0,1,3.41,0,4.11,4.11,0,0,1,1.59.16,19.43,19.43,0,0,0,2.56.58,13.59,13.59,0,0,1,3.25,1.28c1,.64,2.08,1.23,3,1.92a15.39,15.39,0,0,1,3.09,2.82c1.07,1.44,2.45,2.66,3,4.42a5,5,0,0,0,.53,1.23,11.18,11.18,0,0,1,1.65,4.31,6.59,6.59,0,0,0,.53,1.7,2.67,2.67,0,0,1-.1,2.13,5,5,0,0,1-3.52,2.67c-1.06.32-1.91,1-3,1.33A14.17,14.17,0,0,1,102.47,132.44Zm-9.85-21.83c-1.86-.32-3.3.85-4.74,2a11.37,11.37,0,0,0-4.15,6,3.29,3.29,0,0,0,0,1.76c.37,1.65,2.18,1.81,3.62,1.33a10.87,10.87,0,0,0,2.82-1.38c.64-.43.64-.43.85.37.06.11.06.21.11.27a2.4,2.4,0,0,0,2.29,1.22c1.44-.26,1.76-.58,1.92-2a2.39,2.39,0,0,0-1.76-2.61c-.64-.1-.37-.37-.21-.64.31-.42.58-.8.9-1.22a8,8,0,0,0,.85-2.88,1.77,1.77,0,0,0-1.33-2.13c-.11,0-.21,0-.32,0h-.85Z" transform="translate(0 -9)"/><path class="cls-3" d="M131.07,88a1,1,0,0,1,1.22-.21,7.1,7.1,0,0,0,2.93.42,2.22,2.22,0,0,1,1.7.43c.16.16.38,0,.54,0a17.22,17.22,0,0,1,4.68.37,16.84,16.84,0,0,0,4.37.11c3,0,6,0,9,.11a18.94,18.94,0,0,1,4.79,1.27,19.25,19.25,0,0,1,4.79,2.61,7,7,0,0,1,.86.86.32.32,0,0,1,.05.42c-.11.16-.27.11-.43.11a.74.74,0,0,1-.42-.16,12.26,12.26,0,0,0-4.26-1.92c-.69-.16-1.33-.42-2-.64-2.13-.64-4.31-.37-6.44-.48s-4.47,0-6.71,0a44.06,44.06,0,0,0-4.42-.43c-1.81.11-3.35-.74-5-1.11a15.82,15.82,0,0,1-3.73-1.28C132.13,88.29,131.55,88.35,131.07,88Z" transform="translate(0 -9)"/><path class="cls-3" d="M75.69,108.32a20.42,20.42,0,0,0,0,2.71,1.54,1.54,0,0,1-.22.85,2,2,0,0,0,0,1.55.93.93,0,0,1,.11.53c-.37.85,0,1.76-.32,2.61a2.42,2.42,0,0,0-.05,1.39,1.63,1.63,0,0,1-.32,1.38.53.53,0,0,0-.22.48c.16.8-.32,1.44-.58,2.13,0,.16-.11.32-.32.27s-.16-.16-.21-.27v-.11c.1-2-.64-3.88-.43-5.91a5.78,5.78,0,0,1,.11-1,1.78,1.78,0,0,0-.11-1.38c-.32-.59.05-1.18.21-1.71a2.53,2.53,0,0,0,0-1.65,1,1,0,0,1,.11-1.12.93.93,0,0,0,.16-.74c0-2.4,0-4.8,0-7.25,0-.85.48-1.59.53-2.39a.34.34,0,0,1,.26-.21c.11,0,.22.16.22.26A11.73,11.73,0,0,1,75.1,101a23.2,23.2,0,0,0,.43,3.46A15.26,15.26,0,0,1,75.69,108.32Z" transform="translate(0 -9)"/><path class="cls-3" d="M95.39,93.89a7.38,7.38,0,0,1,2-1c2-.63,4.16-.9,6.18-1.33a14.58,14.58,0,0,1,2.56-.05,1,1,0,0,0,.9-.32.41.41,0,0,1,.48-.16,1.68,1.68,0,0,0,1.44-.53,4.39,4.39,0,0,1,3.41-1.17c.53,0,1.06,0,1.59,0a1.89,1.89,0,0,1,1.65.9c-1,.27-1.91.11-2.82.32a3.4,3.4,0,0,0-1.49.75,9.62,9.62,0,0,1-5.91,2.34c-1.81.06-3.51.54-5.33.54-1.38,0-2.71,0-4.1.05A2.3,2.3,0,0,1,95.39,93.89Z" transform="translate(0 -9)"/><path class="cls-3" d="M116.16,82.06a1.25,1.25,0,0,1,1.11-.69c2.67.16,5.22-.42,7.89-.53,1.91,0,3.72-.53,5.64-.59,1.39,0,2.72,0,4.1.06.69,0,1.28.48,2,.58s1.55.43,2.34.54c.11,0,.27,0,.32.16s-.16.21-.26.26a9.16,9.16,0,0,1-3.62.53H117.27A1.3,1.3,0,0,1,116.16,82.06Z" transform="translate(0 -9)"/><path class="cls-3" d="M92.62,104.7a2.78,2.78,0,0,1,2.5-1.55c1.49-.05,2.93-.48,4.42-.48a4.93,4.93,0,0,1,2,.22,17.68,17.68,0,0,1,1.87.37c.74.37,1.54.37,2.18.74.37.22.48.75.85,1,.16.1,0,.37,0,.53a.51.51,0,0,1-.53.21,5.26,5.26,0,0,1-1.5-.53,3.38,3.38,0,0,0-1.65-.43,1.22,1.22,0,0,1-1-.26.59.59,0,0,0-.59-.16H97.36c-.85,0-1.6.42-2.45.48S93.37,104.8,92.62,104.7Z" transform="translate(0 -9)"/><path class="cls-3" d="M157.48,104.22a1.66,1.66,0,0,1-1.12-.38,2.73,2.73,0,0,0-2.13-.32c-1.38.32-2.61,1.18-4.1,1.34a10,10,0,0,0-2.13.69,3.1,3.1,0,0,1-1.54.21c-.22-.05-.43,0-.48-.32s0-.53.26-.58c.86-.32,1.49-1,2.51-1.18a7.84,7.84,0,0,0,2.45-.85c1.11-.48,2.29-.53,3.4-1,.38-.16.91.11,1.33.27a3,3,0,0,1,2.08,1.27c.11.22.32.43.21.7S157.69,104.22,157.48,104.22Z" transform="translate(0 -9)"/><path class="cls-3" d="M120.63,128.82a.67.67,0,0,1,.05,1h0a1.21,1.21,0,0,0-.21.74c0,.54.27.85.69.69,1.23-.37,2.4.06,3.57.11a7.63,7.63,0,0,0,3.57-.48c.37-.16.64-.32.53-.74a.36.36,0,0,1,0-.32c.11-.22-.21-.64.21-.59s.86,0,.86.69c-.06,1.39-.59,2.08-2.19,2.61a5.63,5.63,0,0,1-4.36.11,4.32,4.32,0,0,0-1.82-.11h-.74a1.45,1.45,0,0,1-1.23-2.34A4.36,4.36,0,0,1,120.63,128.82Z" transform="translate(0 -9)"/><path class="cls-3" d="M131.23,139.89a7.34,7.34,0,0,1-2.88-.21,17.52,17.52,0,0,0-5-.26H114a1,1,0,0,0-.53.1,7,7,0,0,1-3.78.32c-.11,0-.32,0-.32-.21s.16-.16.32-.16c2.4,0,4.74-.91,7.14-.59,3.24-.69,6.49.06,9.79,0,2.08-.05,4,.53,6.07.59.22,0,.48,0,.48.32s-.32.15-.53.21A11.5,11.5,0,0,0,131.23,139.89Z" transform="translate(0 -9)"/><path class="cls-3" d="M121.11,141.49a13.12,13.12,0,0,1,5.16,1.23,7.05,7.05,0,0,1,1.44,1.06.14.14,0,0,1,.06.22v.05c-.11.16-.22,0-.32,0l-1.39-.48c-1.81-.74-3.73-.48-5.59-.58a14.78,14.78,0,0,0-4.42,1c-.32.05-.75.31-.85-.06s.32-.42.58-.58a8.63,8.63,0,0,1,3.57-1.44C120,141.76,120.63,141.39,121.11,141.49Z" transform="translate(0 -9)"/><path class="cls-3" d="M134.42,140.43c-.26-.16-.74.21-.74-.27s.48-.21.74-.16.69-.16.69.21S134.69,140.27,134.42,140.43Z" transform="translate(0 -9)"/><path class="cls-3" d="M109.55,211.57c-.32-1-1.06-1.86-.85-2.93a.74.74,0,0,0,0-.32,18.82,18.82,0,0,1-1.39-4.74c-.42-1.7-.8-3.41-1.11-5.16a4.46,4.46,0,0,1,.31-3.3.77.77,0,0,0,.11-.48,4.13,4.13,0,0,1,1.55-3.3c.1-.11.26-.32.47-.22s.06.32,0,.48c0,.37-.26.75.06,1.07.16.16,0,.37-.16.48a.66.66,0,0,0-.16.9l.11.11a.7.7,0,0,1,.1,1h0c-.16.21-.05.43-.05.58a6.49,6.49,0,0,1-.11,3.63.79.79,0,0,0,0,.48,8.68,8.68,0,0,1,.37,3.51,1,1,0,0,0,.27.85.66.66,0,0,1,.21.69,15,15,0,0,0,.32,3.09A13.32,13.32,0,0,1,109.55,211.57Z" transform="translate(0 -9)"/><path class="cls-6" d="M153.33,111.14h1.27a1.74,1.74,0,0,1,1.76,1.17,3.29,3.29,0,0,1-.11,2.66,12.75,12.75,0,0,1-1.59,2.61,1.88,1.88,0,0,0-.27.59c-.11.26,0,.37.27.42,1,.22,1.33.64,1.33,1.71,0,1.7-.48,2.39-2.08,2.66a2.31,2.31,0,0,1-2.34-1.65c0-.21.05-.43-.27-.48s-.53-.11-.69.16a.52.52,0,0,1-.53.32c-.54,0-.75.59-1.28.69a8.84,8.84,0,0,0-1.65.53,4.3,4.3,0,0,1-3-.15c-.74-.27-1.81-2.08-1.12-3a.43.43,0,0,0,.16-.32,4.16,4.16,0,0,1,1.44-2.66,2.05,2.05,0,0,0,.32-.37,11.26,11.26,0,0,1,4.21-3.68C150.56,111.67,151.94,110.87,153.33,111.14Z" transform="translate(0 -9)"/><path class="cls-6" d="M92.62,110.61h.85a1.79,1.79,0,0,1,1.71,1.86.61.61,0,0,1-.06.32,8,8,0,0,1-.85,2.88,12.39,12.39,0,0,1-.9,1.22c-.22.27-.48.53.21.64a2.32,2.32,0,0,1,1.76,2.61c-.16,1.33-.48,1.65-1.92,2a2.43,2.43,0,0,1-2.29-1.23c0-.1-.11-.16-.11-.26-.21-.8-.21-.8-.85-.37a12.9,12.9,0,0,1-2.82,1.38c-1.49.48-3.25.32-3.62-1.33a3.29,3.29,0,0,1,0-1.76,11.64,11.64,0,0,1,4.15-6C89.32,111.46,90.76,110.29,92.62,110.61Z" transform="translate(0 -9)"/></g></svg>