<?xml version="1.0" encoding="utf-8"?>
<!-- Generator: Adobe Illustrator 25.1.0, SVG Export Plug-In . SVG Version: 6.00 Build 0)  -->
<svg version="1.1" id="Camada_1" xmlns="http://www.w3.org/2000/svg" xmlns:xlink="http://www.w3.org/1999/xlink" x="0px" y="0px"
	 viewBox="0 0 480.9 400.6" style="enable-background:new 0 0 480.9 400.6;" xml:space="preserve">
<style type="text/css">
	.st0{fill:#010101;}
	.st1{fill:#00B91A;}
	.st2{fill:#B96300;}
	.st3{fill:#FDFDFD;}
</style>
<path class="st0" d="M233.7,400.6c-3.7-0.3-7.4,0.4-11-0.1c-5.7-0.7-11.5-0.7-17.1-1.8c-3.2-0.6-6.5-1-9.7-1.7
	c-2.9-0.5-5.7-1.1-8.5-1.9c-1.2-0.4-2.4-0.6-3.6-0.8c-2-0.4-4-0.9-6-1.6c-1.7-0.6-3.7-0.6-5.2-1.9c-0.3-0.2-0.7-0.2-1-0.2
	c-0.7-0.1-1.4,0-1.8-0.7c-0.1-0.1-0.2-0.2-0.3-0.2c-2,0-3.7-1.1-5.6-1.7c-2-0.5-3.8-1.3-5.5-2.4c-0.2-0.2-0.4-0.3-0.6-0.3
	c-2.2-0.5-4.1-1.8-6.2-2.5c-2.9-1-5.6-2.3-8.2-3.8c-4.9-2.7-10.1-4.9-14.6-8.3c-0.1-0.1-0.2-0.2-0.4-0.3c-2.1-0.6-3.7-2.3-5.5-3.5
	c-2.7-1.8-5.4-3.7-8-5.6c-5.8-4.1-10.9-8.9-16.3-13.4c-2.4-2.1-4.6-4.3-6.7-6.7c-2.5-2.6-5.2-5-7.6-7.7c-1.4-1.4-2.7-3-3.8-4.6
	c-0.4-0.6-0.8-1.1-1.3-1.6c-2.3-2.2-3.8-5-5.8-7.4c-2.4-2.9-4-6.2-6.5-9c-1-1.2-1.8-2.6-2.5-4c-0.4-0.8-0.9-1.5-1.4-2.2
	c-0.9-1.4-1.7-2.8-2.5-4.2c-1.5-2.5-2.6-5.1-4-7.5c-1.5-2.6-2.9-5.4-4.1-8.2c-0.9-2-2-4-2.7-6.1c-0.6-1.8-1.6-3.5-2.3-5.3
	c-1.1-2.9-2-5.8-3.2-8.6c-0.6-1.4-1.1-2.8-1.4-4.3c-0.6-3-1.8-5.9-2.6-8.9c-0.4-1.4-0.6-2.7-0.8-4.1c-0.1-1.3-0.5-2.7-1-3.9
	c-0.7-1.4-0.5-3.1-0.8-4.7c-0.3-1.9-0.4-3.9-1.2-5.7c-0.6-1.2-0.2-2.7-0.3-4c0-0.7,0-1.3-0.6-1.9c-0.4-0.4-0.3-0.9-0.3-1.4
	c0-1.5-0.1-3-0.1-4.5c0.1-0.7-0.1-1.4-0.6-2c-0.1-0.2-0.2-0.4-0.2-0.5c0.3-1.7-0.2-3.4-0.2-5.1c0.1-9.8,0-19.7,0-29.5
	c-0.1-1,0.1-2,0.6-2.9c0.2-0.4,0.3-0.8,0.2-1.3c0-1.7,0-3.4,0.1-5.2c0-0.3-0.1-0.6,0.1-0.8c1.4-1.5,0.6-3.3,0.8-5
	c0.1-1,0-1.9,0.8-2.8c0.4-0.5,0.3-1.4,0.3-2.2c0-1.2,0.3-2.5,0.8-3.6c0.6-0.9,0.4-2.2-0.4-2.9c-0.7-0.8-0.9-1.9-1.5-2.8
	c-1-1.4-1.8-2.9-2.8-4.1c-1.3-1.5-2-3.4-3.3-4.8c-0.7-0.8-1.4-1.7-1.9-2.6c-0.8-1.3-1.8-2.6-2.8-3.9c-0.8-0.9-1.6-1.8-2.3-2.7
	c-1.7-2.9-4.6-4.8-6.3-7.8c-0.7-1.3-2.2-2.3-3.4-3.4c-2.2-2-4.1-4.4-6.7-6.1c-0.3-0.3-0.7-0.5-1.1-0.7c-2.3-0.8-3.5-2.7-4.7-4.6
	c-0.2-0.4-0.4-0.8-0.5-1.2c-0.4-3.2,0-6.4,2.9-8.3c1.9-1.3,4.1-2,6.4-2c4.4,0,8.8,0.5,13.1,1.4c2.6,0.6,5.2,1.4,7.9,1.7
	c2.4,0.3,4.8,0.8,7.2,1.4s5,1.1,7.6,1.5s4.8,1.2,7.3,1.3c0.2,0,0.4,0.1,0.5,0.2c1.2,0.7,2,0.3,2.7-0.9c2-3.4,3.3-7.1,5.8-10.2
	c1.2-1.6,1.9-3.5,3-5.1c1.1-1.7,2.4-3.5,3.5-5.2c2-2.9,3.8-5.9,6-8.6c2.8-3.4,5.4-6.9,8.1-10.3c0.1-0.1,0.2-0.3,0.3-0.4
	c3.3-3.4,6.6-6.8,9.8-10.3c1.2-1.2,2.5-2.3,3.7-3.6c3.2-3.5,7.3-6,10.6-9.5c1.7-1.9,4.1-3.2,6.2-4.8c1.8-1.6,3.7-3,5.8-4.3
	c2.7-1.4,4.9-3.6,7.5-5c1.9-1,3.6-2.4,5.5-3.6c3.4-2,6.9-3.9,10.4-5.7c1.5-0.6,2.9-1.4,4.3-2.3c0.4-0.3,0.8-0.5,1.3-0.6
	c1.9-0.6,3.6-1.4,5.3-2.4c1.2-0.7,2.8-1,4.1-1.6c2.5-1.2,5.1-2.2,7.7-3c1.6-0.5,3.1-1.1,4.7-1.5c1.2-0.3,2.4-0.7,3.6-1.2
	c2.4-0.9,4.8-1.6,7.2-2.2c2.2-0.5,4.4-1.2,6.7-1.7s4.2-1,6.3-1.3c2.6-0.4,5.1-1.5,7.8-1.5c1.2,0,2.4-0.2,3.5-0.6
	c1.1-0.3,2.3-0.5,3.4-0.5c4-0.2,7.9-1.4,11.9-1.1c3.7,0.3,7.2-1.1,10.8-0.8c2.9,0.2,5.8,0.2,8.7,0.2c3.8,0,7.5,0.7,11.3,0.6
	c2.3-0.1,4.6,0.7,6.9,0.7c3.3,0,6.3,1.1,9.5,1.3c2.3,0.2,4.5,0.6,6.7,1.2c1.8,0.5,3.8,0.5,5.5,1.3c0.7,0.2,1.5,0.3,2.2,0.3
	c0.6-0.1,1.2,0.2,1.6,0.6c0.2,0.3,0.6,0.4,1,0.3c2.1-0.1,3.9,1,5.8,1.5c0.9,0.3,1.8,0.5,2.8,0.6c0.2,0,0.5,0,0.7,0.1
	c1.5,1.5,3.7,1.1,5.5,1.9c1.3,0.6,2.6,1.1,3.9,1.5c3.2,1.1,6.4,2.3,9.5,3.7c2.5,1.1,4.9,2.2,7.4,3.3s5.1,2.5,7.6,3.8
	c1.4,0.7,2.3,1.9,3.8,2.4c0.6,0.2,1.1,0.7,1.8,0.9c1.9,0.8,3.7,1.9,5.3,3.3c1.1,0.7,2.3,1.3,3.5,1.8c0.9,0.3,1.6,0.9,2.1,1.7
	c0.2,0.3,0.4,0.5,0.8,0.5c0.3,0,0.6,0.1,0.8,0.3c1.1,0.9,2.4,1.4,3.4,2.3c3.9,3.2,8,6,11.8,9.2c2,1.5,3.9,3.2,5.7,4.9
	c1.4,1.5,3.5,2.4,4.9,4c2.5,3,5.9,5.2,8.1,8.4c0.2,0.2,0.4,0.4,0.6,0.6c3.4,3.1,6.2,6.8,9.2,10.2c1.6,1.8,3,3.8,4.4,5.8
	c1.2,1.8,2.5,3.5,3.9,5.1c0.9,1,1.7,2.1,2.3,3.4c0.8,1.5,1.7,3,2.8,4.3c1.7,2.2,2.9,4.9,4.5,7.2c1.8,2.6,2.8,5.7,4.7,8.3
	c0.8,1.1,1.1,2.8,1.9,4.1c1.1,1.8,2,3.7,2.7,5.7c0.3,0.8,1.2,1.2,2,0.9c3.5-0.8,7.1-0.7,10.7-0.9c0.7,0,1.4-0.1,2.1-0.2
	c3.6-1,7.3-0.4,10.9-1.1s7.1-0.4,10.7-1.1c1-0.2,2.1-0.3,3.1-0.3c1.5,0,3-0.3,4.5-0.8c1.5-0.4,3-0.6,4.5-0.5
	c2.8-0.1,5.2-1.6,7.8-2.5c0.9-0.3,1.7-0.7,2.6,0.2c0.3,0.4,1,0.4,1.5,0.6c2.5,0.8,4.1,3.1,4.2,5.8c0.1,1.8-0.4,3.6-1.5,5.1
	c-2.5,3.3-5.3,6.3-7.9,9.5c-1.3,1.5-2.6,3.1-3.8,4.6c-1,1.4-2.1,2.6-3.4,3.7c-0.9,0.7-1.2,1.8-1.9,2.6c-1.2,1.2-2.3,2.6-3.5,3.8
	c-1.8,1.9-3.5,4-5,6.2c-3.3,4.4-7,8.3-10.6,12.4c-2.7,3-4.8,6.5-7.6,9.4c-0.2,0.3-0.4,0.6-0.7,0.8c-1.9,1.4-2.2,3.2-1.5,5.4
	c0.3,1.4,0.4,2.8,0.3,4.2c0,7.8-0.1,15.6,0.2,23.4c0.1,4.2-0.8,8.3-0.9,12.5c0,1.3-0.1,2.6-0.1,3.8c0,0.8-0.2,1.7-0.5,2.4
	c-0.6,1.5-0.3,3.1-0.4,4.7c0,0.6,0,1.1-0.5,1.5c-0.3,0.2-0.3,0.5-0.3,0.7c-0.2,5.8-1.8,11.4-3.6,16.9c-0.3,0.9-0.5,1.9-0.5,2.8
	c0.1,0.6-0.1,1.3-0.7,1.7c-0.1,0.1-0.2,0.2-0.2,0.2c0.3,1.5-0.8,2.7-1,4.1c-0.3,1.6-0.8,3.2-1.5,4.6c-1,2.2-1.5,4.5-2.5,6.7
	c-0.5,1.6-1.2,3.2-2.1,4.6c-0.2,0.2-0.3,0.5-0.4,0.7c-0.6,2.8-2.2,5.1-3,7.8c-0.4,1.6-1.2,3-2.3,4.2c0,0.1-0.1,0.1-0.1,0.2
	c-0.7,2.6-2.3,4.7-3.4,7c-0.6,1.3-1.3,2.5-2,3.7c-1.7,2.6-3.4,5.3-4.8,8.1c-0.4,0.7-0.9,1.4-1.4,2c-1,1.1-1.6,2.5-2.5,3.6
	c-1.3,1.9-2.3,4.1-4.1,5.7l-0.1,0.1c-0.9,2.2-2.9,3.5-4,5.6c-0.7,1.4-2.1,2.3-3,3.5c-2.8,3.6-5.8,7-9.1,10.1
	c-3.6,3.6-7.3,7.1-11,10.7c-2.7,2.6-5.8,4.6-8.4,7.2c-1.2,1.4-2.7,2.6-4.4,3.5c-1.7,0.8-2.8,2.3-4.3,3.1c-1.5,0.8-2.9,1.8-4.2,2.8
	c-3.4,2.6-7.1,4.4-10.6,6.8c-2.1,1.4-4.5,2.3-6.6,3.7c-1.6,1.1-3.4,1.7-5,2.6c-2.3,1.3-4.7,2.3-7.1,3.4c-3.3,1.5-6.6,2.9-9.9,4.1
	c-1.9,0.7-3.7,1.5-5.6,2.2c-2.9,1-5.9,1.9-8.8,3c-0.9,0.4-1.9,0.6-2.9,0.8c-2.1,0.4-3.9,1.5-6.1,1.7c-1.3-0.1-2.5,0.3-3.6,1
	c-0.3,0.3-1,0.2-1.5,0.2c-1.1-0.1-2.1,0.2-3.1,0.8c-0.8,0.3-1.8,0.5-2.7,0.5c-2.4,0.1-4.7,0.5-7,1.2c-1.1,0.2-2.3,0.4-3.4,0.4
	c-5.5,0.9-11,1.1-16.5,1.9C242,400.8,237.9,400.5,233.7,400.6z M325.3,129.4c0.1,0.3,0.2,0.6,0.3,0.9c0.7,2.5,2,4.7,2.9,7.1
	c0.4,1.1,0.3,2.4,0.8,3.4c0.4,0.9,0.7,2,0.6,3c-0.1,0.9,0.1,1.8,0.6,2.5c0.2,0.4,0.3,0.8,0.2,1.2c0,5.5,0,11,0.1,16.6
	c0,0.4,0.1,0.8-0.2,1c-0.6,0.7-0.9,1.7-0.8,2.7c0.1,0.7-0.2,1.5-0.7,2c-0.6-2.3-0.9-4.6-1.1-6.9c-0.1-4.8-0.1-9.7-0.1-14.5
	c0-0.8-0.1-1.7-0.3-2.5c-0.7-2.7-1.2-5.6-2.1-8.3c-0.3-1-0.7-2-1.1-3c-0.5-1-1-2-1.6-3c-0.9-1.7-1.8-3.6-3.3-4.6
	c-2.9-2-5.8-4-8.9-5.7c-2.7-1.5-5.2-3.3-7.9-4.8c-2.5-1.4-5.2-2.5-7.7-4.1c-2.3-1.4-5-2.3-7.6-3.4c-0.9-0.5-1.8-0.9-2.7-1.2
	c-2-0.7-4.1-1.5-6-2.4c-1.5-0.7-3-1.3-4.6-1.7c-0.7-0.1-1.5-0.3-2.2-0.6c-1-0.4-1.9-0.8-2.9-1.1c-2.6-0.5-5.2-1.3-7.8-1.9
	c-1.8-0.5-3.7-0.7-5.5-1.1c-2.5-0.5-5.1-0.8-7.7-1c-4.3-0.3-8.7-0.4-13.1-0.3c-3.3,0.1-6.5,1.2-9.9,1.2c-0.8,0-1.6,0.1-2.4,0.4
	c-2.2,0.6-4.3,1-6.6,1.3c-0.7,0.1-1.6,0-1.9,0.4c-0.9,1-1.9,0.7-2.9,0.8c-0.3,0-0.7-0.1-0.8,0.1c-1.1,1.2-2.6,0.9-3.9,1.2
	c-1.7,0.3-3.1,1.2-4.7,1.7c-1.9,0.5-3.7,1.6-5.7,1.8c-0.3,0-0.5,0.2-0.7,0.3c-1.5,1.3-3.5,1.7-5.2,2.4s-3.6,1.5-5.4,2.1
	c-2.2,0.9-4.4,1.9-6.5,3.1c-3.6,1.8-7.5,3.2-10.6,6c-0.3,0.2-0.5,0.3-0.9,0.4c-4.4,2.1-8.4,4.7-12.1,7.8c-0.4,0.3-0.6,0.8-1,0.9
	c-2.5,0.8-4,3-6.2,4.2c-1.4,0.8-2.6,1.2-4.1,0.7c-0.8-0.2-1.6-0.5-2.4-0.8c-2.6-1.3-5.5-1.9-8.3-3c-3.5-1.3-7.3-1.4-11-2.2
	c-3.4-0.8-7-1.2-10.5-1.7c-2.6-0.4-5.2-1-7.7-1.6c-2.3-0.5-4.6-1-6.9-1.3c-3.5-0.5-7-1.4-10.5-2.4c-3.5-1.1-7.3-0.7-10.6-2.5
	c-0.7-0.4-1.7-0.1-2.6-0.3c-3-0.6-5.9-1.1-8.9-1.8c-3.9-0.9-7.9-1.3-11.7-2.3c-2.7-0.7-5.4-1.2-8.1-1.7c-4-0.7-7.9-1.8-11.9-2.1
	c-0.2,0-0.3-0.1-0.5-0.1c-2.5-1.3-5.4-1.1-8.1-1.7c-1.2-0.3-2.4-0.9-3.6-1c-1.7-0.2-3.4-0.5-5.1-0.8c-3.3-0.6-6.5-0.9-9.5,1
	c-1.1,0.5-1.7,1.7-1.5,2.8c0.1,1.5,1,2.9,2.4,3.5c2.7,1.3,5.1,3.2,7,5.5c0.5,0.6,1.1,1.2,1.8,1.8c2.1,1.6,3.6,3.8,5.3,5.7
	s2.9,3.9,4.8,5.5c0.8,0.7,1.4,1.5,1.9,2.4c0.6,1.3,1.5,2.4,2.4,3.4c1.6,1.9,3,4,4.4,5.9c1.9,2.6,3.7,5.2,5.5,7.9
	c2.5,3.8,4.3,8,7,11.7c0.7,1,1.2,2.3,1.9,3.2c0.7,0.9,1.4,1.8,2,2.8c0.5,1.1,1.2,2.1,1.8,3.1c2.8,3.9,5.1,8,8.3,11.6
	c0.1,0.1,0.2,0.2,0.2,0.4c0.3,1.5,1.5,2.4,2.4,3.5c0.7,0.8,1.3,1.6,2,2.4c2.4,3.1,5.5,5.4,8.5,7.8c2.4,1.9,5.7,2.5,7.8,4.8
	c1.8,0.3,3.1,1.9,5,2c0.6,0.1,1.1,0.3,1.5,0.6c1.9,1.2,3.9,2,6.1,2.4c0.8,0.1,0.9,1.1,1.8,1c0.8,0,1.7,0.2,2.4,0.6
	c2.5,0.9,5,1.7,7.6,2.3c2.2,0.6,4.4,1.3,6.6,1.8c3.8,0.9,7.6,1.7,11.5,2.4c4.8,0.9,9.7,1.4,14.5,2.2c2,0.2,3.9,1.3,5,3
	c0.6,1,1.5,1.8,2.6,2.1c0.6,0.3,1.2,0.6,1.8,0.9c1.5,0.9,3.3,1,4.9,0.3c1.4-0.6,3-0.7,4.5-0.4c1.4,0.2,2.7,0.6,4.1,0.8
	c2.2,0.5,4.3,1.4,6.2,2.6c1.9,1.3,3.6,2.9,5,4.6c0.4,0.6,1.3,0.9,2,0.6c0.9-0.3,1.9-0.4,2.8-0.6c3.3-0.7,6.1,1.2,9.3,1.2
	c0.2,0,0.5,0.1,0.6,0.3c0.9,0.6,1.9,1,3,1.2c0.6,0.2,1.1,0.4,1.6,0.7c1.6,0.9,3.1,2,5.1,0.7c0.5-0.2,1-0.3,1.5-0.2
	c1.3-0.1,2.6-0.2,3.9-0.4c5.7-1,11.4-0.9,17.1-0.6c1.8,0.2,3.5-0.1,5.2-0.7c1.4-0.5,2.9-0.6,4.4-0.4c1.3,0.2,2.6,0.5,3.9,0.7
	c2,0.5,4.1,0.2,5.9-0.9c1.9-1.1,3.8-2.1,5.8-3.1c1.9-0.9,3.9-1.5,6-1.7c2.6-0.2,5.2-0.8,7.9-0.3c2.6,0.5,5.2,0.7,7.6,1.9
	c1.1,0.5,2.3,0.5,3.3,1.3c0.8,0.6,3,0,3.4-0.7c1.3-2.5,3.9-3.1,6.1-4.2c0.7-0.3,1.3-1.1,2.2-1c1.1,0,2.3-0.1,3.4-0.5
	c2.4-0.6,4.6,0.5,6.9,0.7c0.1,0,0.2,0.1,0.3,0.2c0.7,1.1,1.7,0.7,2.6,0.4c1.1-0.4,2.2-1,3.2-1.7c1.3-0.8,2.8-1.2,4.3-1.1
	c2.2,0.1,4.5,0.1,6.7,0.1c0.6,0.1,1.3-0.1,1.8-0.4c2.5-2,5.7-3,8.9-2.7c1.7,0.1,3.4,0,5,0c0.4,0,0.8,0.1,1.1-0.3
	c0.4-0.5,1-0.7,1.6-0.7c0.8,0,1-0.4,1-1c0-1.1,0-2.2,0-3.2c0.1-3.8,2.4-5.5,6.1-4.7c1.7,0.4,3.3,1.4,4.9,1.7
	c2.8,0.5,5.5,1.5,8.5,1.2c1.2-0.1,2.5,0,3.7,0c1.7,0,3.4,0.2,5-0.2c4.2-1.2,8.7-1.3,12.8-2.9c1.7-0.7,3.7-0.6,5.4-1.5
	c1.6-0.9,3.3-1.6,5.1-2c1.1-0.3,2.2-0.8,3.2-1.3c3.2-1.5,6.5-2.9,9.8-4.3c1.7-0.7,3.1-1.8,4.8-2.5c2.3-1,4.3-2.7,6.7-3.6
	s4.3-2.5,6.5-3.6c0.6-0.2,1.2-0.6,1.8-1c1.5-1.7,3.5-2.6,5.3-3.6c3.2-1.7,5.4-4.4,7.5-7.2c2.5-3.3,5.4-6.3,8-9.6
	c2.9-3.7,5.8-7.4,9-10.9c1.2-1.3,2.3-2.7,3.5-4c0.4-0.4,0.8-0.8,1.1-1.3c2-3.8,5.5-6.4,8.1-9.8s5-6.8,8.4-9.5
	c0.2-0.1,0.3-0.3,0.4-0.4c1.3-2.5,3.4-4.3,5.2-6.4c1.4-1.6,2.6-3.4,4.1-4.9c1.4-1.4,2.6-3.1,3.5-4.9c0.3-0.6,0.3-1.3,0-1.9
	c-0.8-2-3-2.2-4.7-1.2c-0.6,0.3-1.3,0.5-1.9,0.5c-0.3,0-0.7-0.1-0.9,0.2c-0.7,0.9-1.7,0.8-2.6,0.8c-1.2,0-2.4,0.1-3.6,0.3
	c-2,0.5-4,0.7-6,0.7c-0.7-0.1-1.4,0-2.1,0.2c-1.5,1-3,0.6-4.5,0.7c-0.9,0-1.8,0-2.8,0.1c-3.2,0.6-6.5,0.8-9.7,1.2
	c-5.5,0.8-11.1,1-16.7,1.5c-6,0.5-12,1.4-18,1.2c-0.5,0-1,0.1-1.5,0.1c-4.3,0.3-8.6,1.2-13,0.8c-0.4,0-0.7,0-1.1,0.2
	c-1.7,0.6-3.6,0.4-5.4,0.7c-2,0.3-4,0.3-6,0.1c-2-0.3-3.8,1.6-5.8,0.5c-0.1,0-0.2,0-0.3,0.1c-1.1,0.4-2.3,0.6-3.4,0.5
	c-1.4,0-2.9,0-4.3,0.1c-3.4,0.3-6.9,0.6-10.3,0.8c-7.6,0.5-15.1,1.6-22.7,1.3C327.9,128.7,326.8,130.2,325.3,129.4L325.3,129.4z
	 M401.9,119.5c-0.1-0.6-0.4-1.1-0.8-1.6c-1.2-2.3-2.5-4.6-3.6-6.9c-0.5-1.3-1.2-2.5-2-3.6c-0.7-0.9-1.3-2-1.8-3.1
	c-1-2.1-2.9-3.7-3.6-6.1c0,0,0-0.1-0.1-0.1c-1.3-0.7-1.6-2.2-2.5-3.2c-2.4-2.9-4-6.4-6.7-9c-0.3-0.3-0.6-0.7-0.9-1.2
	c-1.6-2.6-3.7-4.8-5.6-7.1c-2.9-3.6-6.6-6.5-9.6-10c-2-2.2-4.4-4.1-6.5-6.2c-1.7-1.7-3.8-2.9-5.5-4.6c-2.3-2.2-4.8-4.2-7.4-5.9
	c-4.2-2.9-8.3-5.9-12.6-8.7c-3.9-2.6-8.2-4.4-12-7c-0.3-0.2-0.6-0.3-0.9-0.3c-1.1-0.2-2.1-0.6-2.9-1.3c-3.1-2.1-6.7-3.1-9.9-4.8
	c-2.4-1.3-5.2-1.9-7.8-3c-1.6-0.7-3.3-1.2-5-1.7c-1.8-0.4-3.5-1.3-5.3-1.8c-3.2-1-6.4-1.9-9.6-2.7c-2.7-0.7-5.6-1-8.2-2
	c-2.1-0.8-4.4-0.6-6.6-1c-4.8-0.9-9.7-1.6-14.6-1.9c-2.1-0.1-4.2,0.2-6.2-0.5c-1.1-0.3-2.3-0.5-3.5-0.4c-1.2,0-2.3,0-3.5,0
	c-3.8-0.2-7.5-0.1-11.3,0.1c-3.2,0.5-6.4,0.8-9.6,0.8c-1.5-0.2-3,0.1-4.4,0.7c-0.4,0.2-0.9,0.3-1.4,0.2c-4,0.2-7.9,0.5-11.7,1.9
	c-0.2,0.1-0.5,0.1-0.7,0.1c-2.7-0.1-5.2,0.9-7.7,1.6c-3.1,0.8-6.2,1.6-9.3,2.5c-3.4,1-6.5,2.7-10,3.2c-0.1,0-0.1,0.1-0.2,0.1
	c-1.9,1.2-4.1,1.6-6.1,2.4c-1.5,0.6-3,1.3-4.5,2c-1.5,0.8-3,1.5-4.5,2.1c-2.3,0.7-4.2,2-6.3,3.1c-3.4,1.6-6.8,3.4-9.9,5.5
	c-1.3,0.9-2.8,1.4-4,2.3c-2.5,1.8-5,3.5-7.6,5.2c-4.2,2.9-8.2,6.1-12.1,9.3c-2.2,1.6-4.2,3.3-6.1,5.2c-2.5,2.7-5.2,5.1-7.7,7.7
	c-2.1,2.2-4.5,4-6.4,6.3c-2.8,3.5-5.9,6.8-8.5,10.5c-1.7,2.3-3.5,4.6-5.1,6.9c-2.1,3-4.1,6.2-6.1,9.3c-0.7,0.8-1.2,1.7-1.7,2.6
	c-0.6,1.7-1.6,3.3-2.8,4.7c-0.7,0.8-1.1,1.8-1.3,2.9c-0.1,0.3-0.2,0.6,0.3,0.6c2.1,0,4,1,6,1.2c4.1,0.5,8,1.8,12.1,2.4
	c2.5,0.4,4.8,1.6,7.4,1.7c0.3,0,0.6,0.1,0.9,0.2c2.7,1.1,5.6,1.2,8.3,1.9c2.4,0.6,4.9,0.9,7.4,1.4c2.7,0.5,5.5,1,8.2,1.6
	c2.3,0.5,4.5,0.8,6.8,1.5c1.9,0.6,4.1,0.8,6.1,1.2c3.9,0.8,7.7,2,11.3,3.6c0.3,0.1,0.5,0,0.8-0.2c1.4-0.7,2.8-1.6,4-2.6
	c1.3-1,2.4-2.3,4-2.9c0.7-0.3,1.3-0.7,1.8-1.2c4.9-3.8,10.4-6.6,15.7-9.7c2.4-1.4,5-2.4,7.4-3.8c3.4-2,7.1-3.3,10.6-5.1
	c2.8-1.4,5.9-1.9,8.7-3.1c2.3-0.9,4.6-2,7.1-2.2c0.2,0,0.3-0.1,0.4-0.2c0.4-0.8,1.2-0.7,1.9-0.8c0.4,0,0.9,0.1,1-0.1
	c0.9-1,2.1-0.8,3.2-0.9c0.4,0,0.7-0.1,1-0.3c0.6-0.4,1.3-0.7,2-0.6c0.7,0,1.5,0.1,2.2-0.4c0.5-0.4,1.1-0.6,1.8-0.6
	c0.9-0.1,1.9,0.3,2.6-0.1c1.1-0.6,2.3-0.9,3.5-0.9c4.3-0.6,8.6-1,13-0.9c3.8,0.1,7.7,0,11.5,0.1c2.7,0.1,5.3,1,8.1,0.8h0.1
	c2.7,1.3,5.9,0.9,8.7,2.1c2.1,0.9,4.4,0.8,6.5,1.8c1.1,0.5,2.3,1,3.5,1.3c1.5,0.4,2.9,0.8,4.4,1.3c1.7,0.5,3,1.8,4.9,1.9
	c0.2,0,0.5,0.2,0.6,0.3c0.7,0.6,1.6,1,2.5,1.1c0.9,0.2,1.8,0.6,2.7,1c2.4,1.2,4.9,2.2,7.2,3.5c1.8,1.1,3.7,2.1,5.8,2.9
	c0.2,0.1,0.3,0.2,0.4,0.4c0.6,0.7,1.3,1.2,2.1,1.5c3.9,1.9,7.6,4.1,11.1,6.6l3.1,2.1c0.8,0.6,1.9,1,2.7,1.6c0.8,0.5,1.7,0.8,2.6,0.8
	c8.3,0.2,16.6-1.4,24.9-1.3c2.9,0,5.7-0.8,8.6-0.9c4.5-0.2,8.9-0.1,13.4-0.9s9-0.4,13.5-0.9C391.2,120.4,396.6,120.6,401.9,119.5
	L401.9,119.5z M159.9,307.2c0-0.3-0.1-0.6-0.1-1c-0.4-1.1,0-1.5,1-1.8c1.4-0.4,2.9-1,4.3-1.5c0.3-0.1,0.7-0.2,0.8-0.6
	c0.6-1.5,1.4-2.9,1.2-4.6c0-0.3-0.1-0.7,0.2-0.9c0.7-0.3,0.7-0.9,0.7-1.5c0.4-0.9,1.2-1.5,2.2-1.6c0.9,0.2,0.7,1,0.7,1.7
	c0,3.4-0.1,6.7,0,10.1c0.1,2.1-0.3,4.1-1.1,6c-0.7,1.2-1,2.7-0.8,4c0.2,1,0.2,2-0.1,3c-0.4,1.6-0.5,3.4-1.5,4.8s-2,3-3.2,4.3
	c-0.2,0.2-0.5,0.4-0.1,0.8c1.1,1,1.8,2.4,1.9,3.9c0.4,2.6,0.8,5.2,0,7.9c-0.2,0.8-0.9,1.3-1,2.1c-0.4,2.5-1.8,4.5-2.8,6.8
	c-0.5,1.2-1.6,2.1-1.4,3.6c0.1,0.7-0.8,1-0.8,1.8c0,1.6-0.2,3.2,0,4.8c0.4,2.9-0.2,5.8-1.6,8.3c-0.3,0.4-0.4,1-0.6,1.4
	c-0.5,0.8-0.3,1.2,0.4,1.7c1.1,0.8,2.5,0.7,3.5,1.4c1.9,1.1,3.9,1.9,6.1,2.4c3.2,1,6.1,2.8,9.4,3.1h0.1c1.7,1.3,3.8,1.5,5.7,1.9
	c2.9,0.6,5.5,2.1,8.5,2c0.2,0,0.3,0.1,0.4,0.2c0.7,0.5,1.6,0.7,2.5,0.7c0.8,0.1,1.8-0.2,2.4,0.4c0.6,0.5,1.3,0.7,2.1,0.7
	c1.1,0,2.2-0.2,3.2,0.3c1,0.4,2.1,0.7,3.2,0.7c1.4,0.1,2.7,0.2,4,0.4c4.6,0.5,9.2,1.2,13.9,1.5c3.7,0.3,7.4,0.2,11.1,0.2
	c1.4,0,2.1-0.8,1.3-1.7s-0.8-2.3-1.4-3.4c-0.6-1.2-1-2.4-1.2-3.7c-0.4-2.4-1.4-4.7-1.4-7.2c0-1.1-0.7-2.2-0.7-3.4
	c0-5.3,0-10.6-0.1-15.8c0-1.5-0.3-3,0.7-4.4c0.2-0.3,0.2-0.7,0.2-1c-0.2-2,0.9-3.9,1.1-5.8c0-0.2,0.2-0.4,0.3-0.5
	c0.2,0,0.5,0.1,0.5,0.4c0.1,0.9,0.9,1.6,0.8,2.5c-0.2,1.3,0.2,2.6-0.1,3.9c-0.4,1.2-0.4,2.4,0.1,3.6c0.1,0.3,0,0.7-0.2,1
	c-0.5,0.9-0.5,2.1,0,3c0.2,0.5,0.3,1,0.3,1.5c0,2.2,0.1,4.3,0.1,6.5c0.1,3.4,0,6.8,0.8,10.1c0.6,2.5,0.1,5,0.4,7.5
	c0.2,1.5,0.9,2.8,0.8,4.3c-0.1,2.5,0,2.5,2.4,2.5c2.9,0,5.8,0.4,8.6-0.3c4.6-1,9.3-0.8,13.9-1.7c2.6-0.5,5.2-1.4,7.9-1.2
	c0.5,0,1-0.1,1.4-0.3c1-0.4,2-0.6,3-0.7c0.6,0,1.2-0.1,1.8-0.3c2.7-0.8,5.5-1.5,8.4-2c2.8-0.7,5.6-1.6,8.4-2.6
	c2.5-0.9,5.2-1.3,7.6-2.7c1.6-0.9,3.3-1.5,5.1-2c1.9-0.7,3.7-1.5,5.5-2.4c1.2-0.6,1.4-1.3,0.6-2.5c-0.3-0.5-0.5-1.1-0.6-1.7
	c-1-3-0.8-6.1-1.2-9.1c-0.5-2.6-0.4-5.2,0.2-7.7c0.1-0.4,0.1-0.9,0.1-1.3c0-6.8,0-13.5,0-20.3c0.1-0.4,0-0.9-0.2-1.3
	c-0.6-1.1-0.8-2.3-0.8-3.5c0.1-0.8,0-1.6-0.3-2.4c-1.4-2.6-1.1-5.7-2.5-8.5c-1.2-2.7-2.3-5.6-3.1-8.4c-0.1-0.3-0.2-0.8-0.6-0.8
	s-0.5,0.5-0.5,0.8c-0.1,0.3-0.2,0.7-0.4,1c-2.1,3.1-4,6.3-6.3,9.2c-1.9,2.5-3.5,5.2-5,8c-0.8,1.1-1.2,2.3-1.4,3.6
	c0,0.3,0,0.7-0.3,0.8s-0.7-0.2-0.9-0.4c-0.7-0.8-0.9-2-0.4-2.9c0.8-1.9,0.5-4,1.6-5.9c0.5-0.9,0.6-2,1.3-2.9
	c1.1-1.4,1.9-3.1,3.1-4.5c1.7-2,3.2-4.1,4.4-6.4c0.2-0.4,0.4-0.9,0.6-1.3c0.4-1.3,0.9-2.5,1.5-3.6c0.5-1,0.8-2.2,0.2-3.1
	c-0.6-0.9-0.9-2-0.8-3.1c0-1,0-2-0.1-3c-0.1-1.4-0.1-1.3-1.3-0.6c-3.6,2.3-6.8,5.1-10.9,6.5c-0.4,0.1-0.9,0.6-1.3,0.2s0.3-0.7,0.6-1
	c1-1,1.9-2.1,2.7-3.3c0.7-1.2,1.7-2.2,2.9-2.9c1.8-1.1,3.3-2.6,4.6-4.4c0.8-1.1,1.5-2.3,2.1-3.5c0.5-1.1,1.5-1.7,2.7-1.7
	c1.1-0.1,2.1,0.6,2.3,1.6c0.4,0.9,1,1.7,1.9,2.3c1.2,0.9,2.3,2,3.2,3.2c1.5,1.9,3,3.8,4.5,5.8c1.3,1.5,2.5,3,3.7,4.7
	c2.3,3.7,5.5,6.7,7.5,10.7c0.3,0.8,1.2,1.1,2,0.8c0,0,0,0,0.1,0c1.8-0.9,3.7-1.4,5.2-2.9c1-1.1,2.4-1.8,3.9-1.9
	c1.4-0.1,2.8-0.6,4-1.4c2.9-1.8,5.2-4.4,6.6-7.5c1.2-2.6,3.2-4.9,3.9-7.8c0.6-2.7,1.6-5.3,1.3-8.1c-0.2-1.3-0.4-1.5-1.5-0.9
	c-2.3,1.4-4.7,2.7-7.1,3.8c-2.2,1-4.2,2.1-6.8,1.8c-0.4-0.1-0.6,0-0.6,0.6c0,1.7-1.5,3.4-0.4,5.2c0,0.1,0,0.2-0.1,0.3
	c-0.4,1.4-0.5,2.8-0.5,4.3c0.1,2.2-1.2,3.4-2.9,4.5c-0.3,0.3-0.7,0.3-0.9,0c0,0,0-0.1-0.1-0.1c-1.1-1.3-2.2-2.5-2.3-4.3
	c-0.2-2.6-0.6-5.3-2.4-7.5c-0.6-0.9-1-1.8-1.2-2.8c-0.1-0.3-0.2-0.6-0.4-0.9c-1.2-1.2-1.5-2.8-2-4.3c-0.5-1.6-1-3.3-1.3-5
	c-0.8-2.7-1.4-5.5-1.8-8.4c0-0.4-0.1-0.9-0.3-1.3c-0.5-1.4-0.6-2.8-0.3-4.2c0.3-1.2,0.6-2.5,0.9-3.7c0.2-1.5,1-2.9,2.2-3.8
	c0.5-0.3,0.8-0.9,0.9-1.5c0-0.4,0.2-0.9,0.5-1.2c1.4-1.7,2.9-3.2,4.5-4.6c2.5-2,4.8-4.4,8.4-4.4c0.1,0,0.2-0.1,0.3-0.2
	c0.5-0.9,1.3-0.6,2-0.7c0.5,0,1,0,1.4-0.2c0.9-0.4,0.9-1.1,0.2-1.6c-0.4-0.3-1-0.3-1.5-0.5c-2.1-1.2-4.7-1.2-6.8,0.1
	c-2.5,1.3-5.2,1.5-7.9,2.1c-1.8,0.6-3.7,1-5.5,1.3c-0.6,0-0.9,0.5-1.2,1.1c-0.7,1.3-1.3,2.5-2.1,3.8c-0.5,0.9-1,1.6,0,2.5
	c0.2,0.2,0.3,0.6,0.3,1c0.5,2.1-0.6,3.9-1.5,5.6c-0.7,1-1.2,2.2-1.5,3.5c-0.2,1.5-0.6,3-1.3,4.4c-1.6,3.7-4.5,5.4-8.3,6
	c-0.5,0.1-1.3,0-1.2,0.7c0.2,1.9-1.2,3.2-1.9,4.8c-1.6,3.5-4.6,5.5-8.2,6.6c-0.6,0.2-1,0.5-1,1.1c0,1-0.5,2-1.3,2.6
	c-0.6,0.5-1.1,1-1.6,1.6c-2.1,2.9-5.5,4.6-9.1,4.6c-0.8,0-1.5,0-2.3-0.1c-0.6-0.1-1.3,0.1-1.8,0.6c-0.6,0.5-1.2,1.1-1.7,1.6
	c-1.4,1.4-3.6,1.4-5,2.8c0,0-0.2,0-0.2,0c-0.7,0-1.4,0.1-2,0.4c-0.8,0.3-1.7,0.4-2.6,0.2c-1.6-0.4-3.2-0.7-4.7,0.5
	c-2.2,1.7-4.9,2.8-7.7,3.1c-0.8,0-1.5,0.5-1.8,1.2c-0.5,1.4-1.4,2.6-1.4,4.1c0,1.2-1.1,2.2-0.8,3.4c0.4,1.8-1.4,3.5-0.3,5.3
	c0.1,0.1,0,0.2-0.1,0.3c-1.1,1.6-0.8,3.2,0,4.9c0.1,0.3,0.2,0.5,0.2,0.8c0.1,2.1,0.2,4.1,0.2,6.2c0,0.4,0.1,1-0.5,1.1
	s-0.6-0.4-0.8-0.7c-1.4-2.7-2.4-5.6-2.9-8.6c-0.3-2.7-1.1-5.3-0.4-8c0.4-1.5,0.4-3.1,0.6-4.6c0-0.3,0-0.8,0.2-0.9
	c0.8-0.7,0.6-1.6,0.7-2.4s-0.3-1.1-1.1-1.1c-1.5,0-3,0-4.4,0c-1.2-0.1-2.6,0.4-3.6-0.6c-0.3-0.1-0.6-0.1-0.8,0.1
	c-0.8,0.6-1.8,0.9-2.8,1c-1.2,0.2-2.2,0.9-2.9,1.9c-1.9,2.9-3.1,6.2-3.5,9.6c-0.2,1.8-1.2,3.5-1,5.4c0,0.2-0.2,0.4-0.6,0.4
	c-0.2-2.5-0.3-5.1-0.3-7.6c0-0.9-0.2-1.9,0.7-2.6c0.2-0.2,0.2-0.6,0.2-0.9c0.1-1.3,0.5-2.6,1.3-3.7c1.1-1.6,0.6-2.7-1.4-2.9
	c-1-0.1-2-0.4-2.9-0.8c-1.6-0.6-3.2-1.5-5.1-1.3c-1.5,0.1-2.9-0.2-4.2-1c-0.8-0.4-0.8-1.2-1.3-1.8c-2.5-2.7-8.7-3.1-11.2-1.1
	c-1.8,1.4-3.8,0.9-5.8,1c-0.2,0-0.3-0.1-0.4-0.2c-1-1.4-2.1-2.7-2.1-4.5c0-0.7-0.5-1.3-1.2-1.3c-0.1,0-0.2,0-0.3,0
	c-0.5,0.1-1-0.1-1.4-0.4c-1.5-1-2.8-2.4-3.8-3.9c-0.6-1.2-1.9-1.8-3.2-1.7c-1.6,0-3.2-0.1-4.8,0.1c-2.8,0.3-5.5-0.7-7.5-2.7
	c-0.7-0.7-1.4-1.4-2-2.2c-0.6-0.9-1.6-1.4-2.7-1.2c-1,0.1-2.1,0.1-3.1,0c-3.3-0.5-6.4-1.4-8.1-4.8c-0.2-0.4-0.5-0.8-0.7-1.2
	c-0.9-1.5-2.4-1.6-3.4-0.2c-0.3,0.3-0.6,0.6-1,0.9c-1.7,1-3.2,2.2-4.6,3.6c-0.2,0.2-0.5,0.4-0.8,0.6c-1.8,0.6-3.3,2-4.2,3.7
	c-2.1,3.4-4.9,6.4-8.1,8.9c-0.7,0.6-1.1,1.4-1.1,2.3c-0.3,2.4,0.6,4.5,1.5,6.4c2.1,4.3,3.9,8.8,7.5,12.3c2,2,3.9,4.2,5.9,6.3
	c0.2,0.3,0.5,0.5,0.8,0.7c1.9,0.8,3.2,2.3,4.8,3.6c2.6,2.1,4.2,5.1,4.6,8.4c0.1,0.7,0.3,1.4,0.8,2c0.2,0.5,0.8,0.6,1.2,0.4
	c0.1,0,0.1-0.1,0.2-0.1c3.9-2.5,8.2-4.5,10.1-9.2c0-0.1,0.2-0.1,0.3-0.2c1-1.1,0.6-2.6,1.1-3.8c-1.3-1.8-2.5-3.7-4.8-4.3
	c-0.7-0.2-1.4-0.5-2.1-0.8c-3.1-1.7-6.4-3.1-9.7-4.5c-1.8-0.6-3.3-2.1-3.9-3.9c-0.4-1-0.7-2.1-1.1-3.1c-0.2-0.8-0.9-1.1-1.2-1.9
	c-0.6-1.8-1.4-3.5-2.3-5.2c-0.2-0.3-0.3-0.7-0.4-1.1c-0.1-1.1-0.4-2.2-0.8-3.2c-0.3-0.7-0.3-1.4,0.1-2.1c0.7,0.5,1.4,1.2,1.9,1.9
	c1.2,1.9,2.7,3.5,3.8,5.5c1.4,2.2,2.6,4.6,3.6,7c0.6,1.8,2.1,3,3.9,3.3c1.3,0.4,2.5,0.9,3.6,1.6C158,306.6,158.9,307,159.9,307.2
	L159.9,307.2z M138,223c-4.6-1-9.2-1.4-13.8-2.2l-11.8-2.3c-5.5-1.1-10.8-2.9-16.3-4.4c-1.7-0.5-3.2-1.3-4.9-1.8
	c-3.3-1-6.6-2.4-9.6-4c-2.9-1.6-6.1-2.6-8.5-5.1c-0.2-0.2-0.4-0.3-0.7-0.4c-0.8-0.3-1.6-0.8-2.2-1.4c-2.7-2-5.2-4.3-7.4-6.9
	c-1.3-1.5-2.4-3.3-4-4.6c-0.7-0.5-0.3-1.5-0.9-2c-0.9-0.8-1.6-1.8-2.2-2.9c-0.7-1.2-1.9-1.9-2.4-3.2c-0.8-2-2.4-3.4-3.7-5.1
	c-0.4,0.8-0.6,1.7-0.5,2.5c-0.1,0.7,0.2,1.5-0.3,2.1c-0.5,0.6-0.7,1.3-0.6,2c0,2.8,0,5.5,0,8.3c0,1.3,0.1,2.6-0.7,3.7
	c-0.3,0.5-0.4,1.1-0.2,1.6c0.6,1.5,0.7,3,0.4,4.6c-0.4,2.4,0.3,4.6,0.4,7c0.1,3.3,0.1,6.5,0.2,9.8c0,1.5,1,2.8,0.9,4.4
	c0,1.9-0.4,3.8,0.8,5.6c0.1,0.3,0.2,0.5,0.1,0.8c-0.5,3.2,0.9,6.1,1.4,9.2c0.4,2.5,1.1,5,1.5,7.5c0.2,0.9,1.1,1.2,1.1,2.2
	c0,1.1-0.3,2.4,0.8,3.3c0.2,0.1,0.1,0.5,0.1,0.8c0.1,1.8,0.6,3.6,1.3,5.3c0.7,1.5,1.3,3,1.6,4.6c0.6,2.2,1.6,4.2,2.4,6.3
	c0.6,1.7,1.3,3.4,2.1,5.1s1.7,3.4,2.5,5.1c0.3,1,0.7,2,1.3,2.9c1.3,1.6,1.7,3.6,2.7,5.2c1.6,2.6,2.4,5.5,4.5,7.8
	c0.3,0.2,0.4,0.6,0.5,0.9c0.2,0.9,0.6,1.7,1.1,2.3c3,4.8,6.4,9.3,9.7,13.9c2.7,4,5.8,7.8,9.2,11.2c1.1,1,2.4,2,3,3.4
	c0.3,0.7,0.7,1.3,1.2,1.7c2.9,2.3,5.2,5.3,8.1,7.8c1.8,1.5,3.6,3.2,5.3,4.9s3.9,3,5.7,4.8c1.3,1.5,2.9,2.7,4.7,3.7
	c2.5,1.2,4.5,3.2,6.8,4.7c1.8,1.2,3.6,2.5,5.4,3.7c3.3,2.2,6.8,4.1,10.2,6.1c0.3,0.2,0.7,0.3,1,0.5c2,0.8,3.7,2.1,5.6,3.1
	c0.8,0.5,1.9,0.4,2.6-0.3c1.8-1.7,2.1-4,2.5-6.3c0.3-1.9,0.3-3.8,0-5.6c-0.3-2,0.6-3.6,1.2-5.3c1.1-3.5,3.3-6.5,4.2-10.1
	c0-0.1,0.1-0.2,0.2-0.3c0.4-0.2,0.4-0.5,0.4-0.9c0-2.2,0-4.3,0-6.5c0-0.7-0.2-0.8-0.8-0.6c-1.7,0.6-3.3,1.4-4.8,2.4
	c-1.9,1-3.8,1.4-5.6-0.1c-1.2-1-0.6-2.9-1.7-3.9c0.4-2.5-1.2-4.3-2.1-6.4c-0.4-0.9-1.3-1-2.1-1s-0.8,0.7-1.1,1.2s-0.6,1.1-0.9,1.6
	c-0.9,1.2-1.7,2.5-2.3,3.9c-0.6,1.3-1.8,2.2-3.2,2.5c-0.3,0.1-0.7,0.2-1,0.3c-2.2,1.1-3.7,0.9-5.4-0.7c-1.2-1.2-2.1-2.4-1.9-4.3
	s0-3.7,0.1-5.5c0.1-2.3-0.3-4.6,0.5-6.8c0.4-1.1,0.5-2.2,0.5-3.3c-0.1-0.5,0.1-1,0.5-1.4c0.6-0.5,0.6-1.4,0.1-2
	c-0.2-0.4-0.4-0.8-0.6-1.1c-1-2-2.2-3.9-3.3-5.8c-0.7-1.2-1-2.6-1.6-3.9c-0.9-1.9-1.3-3.9-1.3-6c-0.1-1.8,0.3-3.7,1.3-5.2
	c0.8-1.1,1.7-2,2.8-2.8c1.8-1.5,3.4-3.2,4.8-5c1.8-2.4,3.5-5,6.3-6.3c1.1-0.5,2.2-1.1,3.3-1.7c0.5-0.3,1.5-0.3,1.5-1s-1-0.8-1.5-1.1
	c-1.3-0.9-2.9-1.4-4.1-2.5c-1.5-1.5-2.1-3.6-3.3-5.3c-0.1-0.2-0.2-0.5-0.1-0.8c0.3-1.5-0.3-3-1.6-3.8c-2.6-2.1-3.5-5.2-4.3-8.3
	c-0.4-1-0.3-2.1,0.1-3c0.6-1,0.8-2.1,1.5-3.1c0.6-0.8,0.5-2-0.2-2.7c-0.8-1.1-0.9-2.6-1.4-3.9c0-0.2,0-0.3,0.1-0.5
	c0.3-0.8,0.5-1.7,0.5-2.6c0.2-2.7,2.1-5,4.7-5.9C136,225.1,137.2,224.2,138,223L138,223z M348.8,218.7L348.8,218.7l-7.9,0.1
	c-0.3,0-0.7,0-0.8,0.4s0.3,0.5,0.6,0.6c0.5,0.2,1,0.4,1.5,0.6c2,0.9,3,3.2,2.1,5.2c-0.1,0.2-0.2,0.4-0.3,0.6c-1.4,2-2.9,3.9-4.6,5.6
	c-0.6,0.7-0.8,1.7-0.1,1.9c1.3,0.4,2.5,1.1,3.5,2c1.4,1,3.3,1.7,3.3,3.9c0,0.1,0.2,0.3,0.4,0.5c0.7,0.7,1.8,0.8,2.6,0.2
	c2.1-1.4,4.4-2.6,6.8-3.6c0.8-0.4,1.6-0.7,2.5-0.9c3-0.5,4.8,0,6,1.8c0.5,0.8,1,1.7,1.3,2.7c0.2,0.7,0.6,1.6-0.1,2.2
	c-0.4,0.4-0.6,0.8-0.6,1.3c-0.2,1.4-1.2,2.5-2.5,3c-0.9,0.3-1.8,0.8-2.7,1.3c-1.4,0.9-1.3,2.1,0.1,3.1c0.9,0.6,1.9,0.3,2.7,0.7
	c2.9,1.2,5.7,2.3,7.9,4.7c0.9,1.2,1.6,2.4,2.3,3.7c0.4,0.7,0.1,1.8,0.8,2.7c0.3,0.5,0.2,1.1-0.1,1.5c-0.3,0.5-0.5,1-0.7,1.5
	c-0.1,0.9-0.8,1.6-1.7,1.5c-3.1,0.1-6.2,0.5-9.2-0.5c-1.1-0.4-1.9-0.4-2.1,1c-0.1,0.4-0.3,0.7-0.6,0.9c-1.5,1.2-2.7,2.9-4.1,4.2
	c-0.9,0.7-1.3,1.9-1.2,3c0.1,2.6,0.1,5.3,0.1,7.9c0.1,1.8-0.3,3.6-1.1,5.3c-1,2.1-2.5,4-3.3,6.2c-0.7,1.9-2.1,3.3-3.1,5
	c-1.9,2.9-5.1,4.5-8.2,5.9c-0.4,0.2-0.8,0.2-1.2,0.2c-1.6-0.2-3.2,0.5-4.1,1.8c-1.5,1.9-3.9,2-5.7,3.1c-0.2,0-0.3,0.1-0.5,0
	c-1.4,0-2.9,0-4.3,0c-3.9,0-7-1.8-9.6-4.5c-1.2-1.2-2.5-2.2-4-3c-0.3-0.1-0.7-0.4-0.8,0.1c-0.2,0.7-0.1,1.4,0.1,2.1
	c1,1.4,1.6,3,1.9,4.7c0.1,0.4,0.2,0.9,0.3,1.3c0.4,2,1.7,3.7,1.6,5.9c0,0.1,0,0.3,0.1,0.4c1.1,0.8,0.8,1.9,0.9,3
	c0.1,3.1,1.2,6,1,9.1c-0.1,1.5-0.1,3,0.2,4.5c0.6,2.2,0.6,4.6,0,6.9c-0.1,0.5-0.2,1-0.2,1.5c-0.1,3.5,0.2,7-0.7,10.5
	c-0.1,0.3-0.1,0.6,0,1c0.9,3.3,0.2,6.9,1.6,10.2c0.2,0.7,0.5,1.3,0.9,1.9c0.2,0.2,0.3,0.5,0.7,0.3c1.5-0.5,2.9-1.1,4.2-1.9
	c3.2-2.1,6.7-3.7,9.9-5.8c5.2-3.3,10.4-6.6,15.2-10.4c0.4-0.3,0.8-0.5,1.2-0.7c0.7-0.3,1.3-0.7,1.9-1.3c2.3-2.9,5.7-4.6,8.1-7.4
	c1.8-2,4.3-3.2,6.1-5.2c2.9-3.3,6.3-6.2,9-9.7c1.2-1.4,2.4-2.8,3.8-4c2.3-2.3,4-5,5.9-7.5c0.9-1,1.8-2,2.5-3.1
	c1-1.8,2.4-3.4,3.5-5.1c1.9-3,4.2-5.8,6-8.9c1-1.7,2-3.4,2.9-5.2c1.1-2.4,2.4-4.7,3.7-7.1c0.9-1.5,1.7-3.2,2.3-4.9
	c0.9-3.1,2.8-5.6,3.9-8.6c0.8-2.1,1.2-4.3,2.2-6.3c0.3-0.5,0.9-0.9,0.9-1.6c0.1-1.2,0.4-2.4,0.9-3.6c0.4-1.2,1.4-2.2,1.3-3.6
	c0-0.6,0.2-1.3,0.4-1.8c0.6-1.3,1.1-2.7,1.4-4.1c0.2-2,1.5-3.8,1.2-5.9c0-0.1,0.1-0.1,0.1-0.2c0.5-0.9,0.8-2,0.8-3.1
	c0-0.4-0.1-0.8,0.1-1c1.1-1.1,0.8-2.5,0.9-3.9c0-0.4-0.1-0.8,0.1-1c1-1.3,0.6-2.9,1-4.4c0.8-3.7,0.6-7.6,1.8-11.3c0-0.2,0-0.4,0-0.6
	c0.1-3.5,0.1-7,0.2-10.5c0-1.1-0.2-2.2,0.6-3.1c0.2-0.2,0.1-0.5,0-0.8c-0.5-1.5-0.7-3.1-0.6-4.7c0.1-2.2,0-4.3-0.2-6.5
	c-0.1-0.6-0.3-0.9-0.8-0.4c-1.3,1.4-3.1,2.1-4.7,3.1c-2.5,1.5-4.9,3.1-7.4,4.3c-4.2,2.1-8.2,4.6-12.6,6.5c-3.5,1.5-6.9,3.3-10.6,4.6
	c-0.6,0.2-1.3,0.5-1.9,0.8c-3.2,1.5-6.6,2.6-10,3.4c-2.3,0.6-4.5,2-7,1.9c-0.1,0-0.2,0-0.2,0.1c-2.8,1.1-5.8,1.2-8.6,1.8
	C353.7,219,351.2,218.7,348.8,218.7L348.8,218.7z M329.1,258.4c-0.1-1.4-0.2-2.6,0.5-3.6c0.3-0.4,0.5-0.9,0.4-1.5
	c-0.1-1.5,1-2.5,1.7-3.8c0.2-0.4,0.7-0.5,1.2-0.6c0.9-0.2,1.2,0,1.2,1c-0.1,3,0,6.1,0,9.1c0,2.2,0.4,2.6,2.6,2.6c2,0,4.1,0.2,6,0.8
	c2.8,1,3.3,3.2,1.3,5.4c-1,1-2,1.8-3.1,2.6c-2,1.5-2.9,1.5-4.7-0.3c-0.7-0.7-1.8-0.9-2.6-0.4c-1.5,0.6-1.4,1.8-1.6,3.1
	c-0.3,1.6,0.4,3.2,1.8,4c0.7,0.4,1.2,1.2,1.3,2c0,0.7,0.3,0.8,0.9,0.8c2.4,0.2,4.7-0.4,6.7-1.8c1.3-1,2.7-1.8,4.2-2.5
	c1.5-0.6,2.9-1.5,4.2-2.5c2.7-2.2,5.6-4.2,7.2-7.4c0.7-1.5,1.7-1.7,3.2-1.7c2.1,0.1,4,1,6.1,1.1c2.9,0.1,2.9,0.2,2.8-2.9
	c0-0.8,0.1-1.7-0.6-2.2c-1.6-1.3-2.8-3.2-4.9-4c-1.3-0.6-2.7-1.2-4.1-1.6c-1.2-0.2-2.4-0.5-3.6-0.7c-1.8-0.4-2.4-1.6-1.5-3.1
	c0.3-0.4,0.5-0.9,0.5-1.4c-0.1-2.4,1.7-3.4,3.4-3.9c1.5-0.5,2.8-1.6,3.4-3.1c0.7-1.3-0.6-3.2-2-3.3c-1.6-0.1-3.2-0.2-4.5,1.1
	c-0.2,0.2-0.5,0.3-0.9,0.4c-2.4,0.4-4,2.5-6.4,3c-1,0.3-2.1,0.3-3.1,0c-1.6-0.7-3.1-1.4-4.7-2c-0.3-0.2-0.6-0.2-0.9-0.2
	c-2.6,0.8-5.3,1-7.6,2.5c-3.3,1.9-6.1,4.5-8.3,7.6c-0.3,0.5-0.5,1,0.1,1.5s0.6,0.7,0,1.1s-0.5,0.8,0.1,1.2c0.3,0.3,0.5,0.8,0.4,1.2
	c0,0.2,0,0.4-0.1,0.6c-0.2,1.2,0.4,2.6-0.3,3.8c-0.8,1.4,0.6,2.4,0.5,3.7c-0.1,0.5-0.4,1.4,0.5,1.7s1.3-0.4,1.9-0.8
	c0.4-0.3,0.6-0.6,0.7-1.1C328.7,262.1,329.3,260.2,329.1,258.4z M142.1,321c0.1-0.6-0.2-1.2-0.6-1.7c-2.3-2.5-5.2-4.4-7.2-7.1
	c-0.2-0.3-0.5-0.4-0.8-0.3c-0.4,0.1-0.4,0.5-0.4,0.8c0.1,0.8-0.1,1.5-0.4,2.2c-0.4,0.6-0.5,1.3-0.5,2.1c-0.1,2.7,0.3,5.4-0.4,8
	c-0.3,1.3,0.7,2.2,0.4,3.4c0,0,0.1,0.1,0.1,0.2c1.5,1.7,5.2,1.1,6-1c0.5-1.4,1.2-2.7,2.2-3.8C141.1,322.9,141.6,322,142.1,321
	L142.1,321z M334.7,218.8c1.1,0,2.2,0,3.3-0.2c0.3-0.1,0.8,0,0.7-0.5s-0.5-0.3-0.8-0.3c-0.9-0.2-2,0-2.8-0.5c-0.6-0.4-1.3-0.7-2-0.7
	c-0.7,0-1.2,0.1-1.2,1s0.4,1.2,1.3,1.1C333.7,218.8,334.2,218.8,334.7,218.8z"/>
<path class="st1" d="M325.3,129.4c1.5,0.8,2.5-0.7,3.8-0.6c7.6,0.3,15.1-0.8,22.7-1.3c3.4-0.2,6.8-0.5,10.3-0.8
	c1.4-0.1,2.9,0,4.3-0.1c1.2,0.1,2.3,0,3.4-0.5c0.1-0.1,0.2-0.1,0.3-0.1c2,1.1,3.8-0.8,5.8-0.5c2,0.3,4,0.2,6-0.1
	c1.8-0.3,3.6-0.1,5.4-0.7c0.3-0.1,0.7-0.2,1.1-0.2c4.4,0.4,8.7-0.5,13-0.8c0.5,0,1-0.1,1.5-0.1c6,0.2,12-0.7,18-1.2
	c5.5-0.5,11.1-0.7,16.7-1.5c3.2-0.5,6.5-0.6,9.7-1.2c0.9-0.1,1.8-0.2,2.8-0.1c1.5-0.1,3.1,0.2,4.5-0.7c0.7-0.3,1.4-0.3,2.1-0.2
	c2,0.1,4-0.2,6-0.7c1.2-0.2,2.4-0.4,3.6-0.3c1,0,1.9,0.1,2.6-0.8c0.2-0.3,0.6-0.1,0.9-0.2c0.7,0,1.3-0.2,1.9-0.5
	c1.7-1,3.9-0.8,4.7,1.2c0.3,0.6,0.3,1.3,0,1.9c-0.9,1.8-2.1,3.5-3.5,4.9c-1.5,1.5-2.8,3.3-4.1,4.9c-1.8,2.1-3.9,3.9-5.2,6.4
	c-0.1,0.2-0.2,0.3-0.4,0.4c-3.4,2.6-5.8,6.2-8.4,9.5s-6.1,5.9-8.1,9.8c-0.3,0.5-0.7,0.9-1.1,1.3c-1.2,1.3-2.3,2.7-3.5,4
	c-3.2,3.5-6.1,7.2-9,10.9c-2.5,3.3-5.5,6.2-8,9.6c-2.1,2.8-4.3,5.5-7.5,7.2c-1.9,1-3.9,1.9-5.3,3.6c-0.5,0.4-1.1,0.8-1.8,1
	c-2.2,1.1-4.1,2.8-6.5,3.6s-4.4,2.6-6.7,3.6c-1.6,0.7-3.1,1.8-4.8,2.5c-3.3,1.4-6.6,2.8-9.8,4.3c-1,0.5-2.1,1-3.2,1.3
	c-1.8,0.4-3.5,1.1-5.1,2c-1.7,1-3.6,0.9-5.4,1.5c-4.1,1.6-8.6,1.7-12.8,2.9c-1.6,0.5-3.3,0.2-5,0.2c-1.2,0-2.5-0.1-3.7,0
	c-2.9,0.3-5.7-0.7-8.5-1.2c-1.7-0.3-3.2-1.3-4.9-1.7c-3.7-0.8-6,0.9-6.1,4.7c0,1.1,0,2.2,0,3.2c0,0.6-0.2,1.1-1,1
	c-0.6-0.1-1.2,0.2-1.6,0.7c-0.3,0.4-0.7,0.3-1.1,0.3c-1.7,0-3.4,0.1-5,0c-3.2-0.3-6.4,0.7-8.9,2.7c-0.5,0.4-1.2,0.5-1.8,0.4
	c-2.2,0-4.5,0-6.7-0.1c-1.5-0.1-3,0.3-4.3,1.1c-1,0.7-2.1,1.2-3.2,1.7c-0.9,0.3-1.9,0.7-2.6-0.4c-0.1-0.1-0.2-0.2-0.3-0.2
	c-2.3-0.2-4.5-1.3-6.9-0.7c-1.1,0.4-2.3,0.6-3.5,0.5c-0.9-0.1-1.5,0.7-2.2,1c-2.2,1.1-4.8,1.7-6.1,4.2c-0.4,0.8-2.6,1.3-3.4,0.7
	c-1-0.8-2.2-0.8-3.3-1.3c-2.4-1.2-5-1.4-7.6-1.9c-2.8-0.5-5.3,0.1-7.9,0.3c-2.1,0.2-4.1,0.8-6,1.7c-2,0.9-3.9,1.9-5.8,3.1
	c-1.8,1.1-3.9,1.4-5.9,0.9c-1.3-0.2-2.6-0.5-3.9-0.7c-1.5-0.3-3-0.2-4.4,0.4c-1.7,0.6-3.4,0.8-5.2,0.7c-5.7-0.3-11.4-0.4-17.1,0.6
	c-1.3,0.2-2.6,0.3-3.9,0.4c-0.5,0-1,0.1-1.5,0.2c-1.9,1.3-3.5,0.1-5.1-0.7c-0.5-0.3-1.1-0.5-1.6-0.7c-1.1-0.2-2.1-0.6-3-1.2
	c-0.2-0.2-0.4-0.2-0.6-0.3c-3.1,0-6-2-9.3-1.2c-0.9,0.2-1.9,0.4-2.8,0.6c-0.7,0.3-1.6,0-2-0.6c-1.4-1.8-3.1-3.3-5-4.6
	c-1.9-1.2-4-2.1-6.2-2.6c-1.4-0.2-2.7-0.6-4.1-0.8c-1.5-0.3-3-0.2-4.5,0.4c-1.6,0.8-3.4,0.7-4.9-0.3c-0.6-0.3-1.2-0.6-1.8-0.9
	c-1.1-0.4-2-1.1-2.6-2.1c-1.1-1.7-3-2.8-5-3c-4.8-0.8-9.7-1.4-14.5-2.2c-3.8-0.7-7.7-1.5-11.4-2.4c-2.2-0.5-4.4-1.2-6.6-1.8
	c-2.6-0.6-5.1-1.4-7.6-2.3c-0.8-0.4-1.6-0.6-2.4-0.6c-0.8,0.1-1-0.9-1.8-1c-2.2-0.4-4.2-1.2-6.1-2.4c-0.5-0.3-1-0.5-1.5-0.6
	c-1.9-0.1-3.2-1.7-5-2c-2.2-2.3-5.4-2.9-7.8-4.8c-3-2.4-6.1-4.7-8.5-7.8c-0.6-0.8-1.3-1.6-2-2.4c-0.9-1.1-2.1-1.9-2.4-3.5
	c0-0.2-0.1-0.3-0.2-0.4c-3.2-3.6-5.5-7.7-8.3-11.6c-0.7-1-1.3-2-1.8-3.1c-0.6-1-1.3-1.9-2-2.8c-0.7-1-1.2-2.2-1.9-3.2
	c-2.7-3.7-4.5-7.9-7-11.7c-1.7-2.7-3.6-5.3-5.5-7.9c-1.4-2-2.7-4.1-4.4-5.9c-0.9-1.1-1.7-2.2-2.3-3.5c-0.5-0.9-1.1-1.8-1.9-2.4
	c-1.8-1.6-3.1-3.7-4.8-5.5s-3.2-4-5.3-5.6c-0.7-0.5-1.3-1.1-1.8-1.8c-1.9-2.3-4.3-4.2-7-5.5c-1.4-0.6-2.3-2-2.4-3.5
	c-0.2-1.2,0.4-2.3,1.5-2.8c3-1.9,6.2-1.6,9.5-1c1.7,0.3,3.4,0.5,5.1,0.8c1.2,0.2,2.3,0.8,3.6,1c2.7,0.6,5.6,0.4,8.1,1.7
	c0.1,0.1,0.3,0.1,0.5,0.1c4,0.3,7.9,1.4,11.9,2.1c2.7,0.5,5.5,1,8.2,1.7c3.9,1,7.8,1.4,11.7,2.3c3,0.7,5.9,1.2,8.9,1.8
	c0.9,0.2,1.9-0.1,2.6,0.3c3.3,1.8,7.1,1.4,10.6,2.5c3.4,1.1,6.9,1.9,10.5,2.4c2.3,0.3,4.6,0.7,6.9,1.3c2.6,0.6,5.2,1.2,7.7,1.6
	c3.5,0.5,7,1,10.5,1.7c3.7,0.8,7.5,0.9,11,2.2c2.7,1.1,5.6,1.7,8.3,3c0.8,0.3,1.6,0.6,2.4,0.8c1.5,0.5,2.6,0.1,4.1-0.7
	c2.2-1.2,3.7-3.4,6.2-4.2c0.4-0.1,0.7-0.6,1-0.9c3.7-3.1,7.8-5.7,12.1-7.8c0.3-0.1,0.6-0.3,0.9-0.4c3.1-2.8,7-4.2,10.6-6
	c2.1-1.2,4.3-2.2,6.5-3.1c1.8-0.7,3.7-1.4,5.4-2.1s3.7-1.1,5.2-2.4c0.2-0.2,0.5-0.3,0.7-0.3c2-0.2,3.8-1.2,5.7-1.8
	c1.6-0.4,3-1.4,4.7-1.7c1.3-0.2,2.8,0,3.9-1.2c0.1-0.1,0.5,0,0.8-0.1c1-0.1,2,0.2,2.9-0.8c0.4-0.4,1.3-0.3,1.9-0.4
	c2.2-0.3,4.4-0.7,6.6-1.3c0.8-0.2,1.6-0.4,2.4-0.4c3.3,0.1,6.5-1.1,9.9-1.2c4.4-0.1,8.7,0,13,0.3c2.6,0.2,5.1,0.5,7.7,1
	c1.8,0.4,3.7,0.6,5.5,1.1c2.6,0.7,5.1,1.4,7.8,1.9c1,0.3,2,0.7,2.9,1.1c0.7,0.3,1.4,0.5,2.2,0.6c1.6,0.4,3.1,0.9,4.6,1.7
	c1.9,0.9,4,1.7,6,2.4c0.9,0.3,1.8,0.7,2.7,1.2c2.5,1.1,5.3,2,7.6,3.4c2.5,1.6,5.2,2.7,7.7,4.1c2.7,1.5,5.2,3.3,7.9,4.8
	c3.1,1.7,6,3.7,8.9,5.7c1.6,1,2.4,2.9,3.3,4.6c0.6,1,1.2,2,1.6,3c0.4,1,0.8,2,1.1,3c0.9,2.7,1.3,5.5,2.1,8.3
	c0.2,0.8,0.3,1.7,0.3,2.5c0,4.8,0,9.7,0.1,14.5c0.2,2.3,0.5,4.6,1.1,6.9c0.5-0.5,0.8-1.3,0.7-2c-0.1-1,0.1-1.9,0.8-2.7
	c0.3-0.2,0.2-0.7,0.2-1c0-5.5,0-11-0.1-16.6c0-0.4-0.1-0.8-0.2-1.2c-0.4-0.8-0.6-1.6-0.6-2.5c0-1-0.2-2.1-0.6-3
	c-0.5-1.1-0.4-2.3-0.8-3.4c-0.8-2.4-2.2-4.6-2.9-7.1C325.6,130,325.4,129.7,325.3,129.4z M24.7,115.7c-0.4,0.2-1.4-0.5-1.5,0.4
	c-0.3,1.2-0.2,2.5,0.4,3.6c0.7,1.1,1.3,2.2,1.8,3.5c0.9,2,1.9,4,3,5.9c0.2,0.4,0.3,1,0.6,1.3c1.3,0.9,1.9,2.4,2.8,3.6
	c2.7,3.9,5.8,7.6,7.9,11.8c0.4,0.6,0.8,1.1,1.4,1.5c0.6,0.4,1,1.1,1.1,1.8c0,0.3,0.2,0.6,0.5,0.8c0.6,0.6,1.1,1.3,1.5,2
	c1,1.6,1.8,3.5,3.4,4.8c0.2,0.2,0.4,0.5,0.5,0.8c1,2.1,2.3,4.1,4,5.7c2.1,2.1,3.9,4.5,5.8,6.8c4.5,5.2,9.6,9.7,14.6,14.4
	c2.9,2.5,6,4.8,9.2,6.9c3.1,2.3,6.4,4.4,9.8,6.2c4.2,2.4,8.9,3.6,13.7,3.5c5.3-0.1,10.6,0.7,15.9,1.5c3.1,0.5,6.2,1.1,9.4,0.5
	c1-0.1,1.8-0.9,1.8-1.9c0.3-1.8,0.1-3.5,0.4-5.3c0.5-3.1,1-6.3,0.5-9.5c-0.3-1.4-0.3-2.8-0.2-4.2c0.2-3,0.3-6,0.2-9
	c0-0.3,0.1-0.7-0.2-0.9c-1-0.7-0.7-1.8-0.7-2.7c0-0.4,0.1-0.9-0.1-1c-1.1-1.1-1-2.6-1.3-3.9c-0.5-2.2-2-4-2.9-6
	c-1.9-3.9-4.8-7.2-8.4-9.5c-4.4-3.1-9.1-5.9-14.5-7.2c-1.1-0.3-2.2-1-3.5-1c-0.2,0-0.4-0.2-0.5-0.3c-0.4-0.4-1-0.6-1.5-0.6
	c-2.1,0.1-3.9-1.4-6-1.1c-0.1,0-0.2,0-0.2-0.1c-0.9-1.1-2.1-0.8-3.2-0.9c-0.4,0-0.9,0.1-1.2-0.1c-1.8-1.2-4-1.2-6-1.6
	c-3.7-0.6-7.4-1.4-11-2.6c-5.3-1.6-10.5-3.5-15.5-5.7c-2.9-1.3-6.1-2.1-8.8-3.9c-1.1-0.7-2.5-0.8-3.7-1.4c-3.8-1.8-7.6-3.8-11.8-4.6
	c-0.1,0-0.3-0.1-0.3-0.1c-0.7-0.9-1.7-0.8-2.6-0.9c-0.5,0-1-0.1-1.5-0.4C26.8,115.7,25.7,115.5,24.7,115.7z M388.2,141.7v0.2
	c-3.7,0-7.4-0.1-11.1,0c-2.4,0.1-4.8,0.6-7.1,1.6c-2.2,1-4.7,1.5-7,2.5c-1.2,0.6-2.2,1.4-3.4,2c-2.2,0.9-4.2,2.2-5.9,3.8
	c-2.7,2.6-5.7,4.9-8.3,7.6c-3.3,3.1-6.1,6.6-8.5,10.4c-0.7,1.3-1,2.7-0.9,4.1c0,0.9,0.9,1.1,1.2,1.7c0.2,0.2,0.4,0.5,0.5,0.8
	c0.4,1.4,1.7,2.6,1.3,4.2c0,0.2,0.1,0.4,0.2,0.6c0.6,1.1,0.8,2.3,0.7,3.4c0,4.6,0,9.3,0.1,13.9c0,1.9,0.8,2.4,2.7,2.2
	c3.3-0.2,6.3-1.9,9.6-2c0.2,0,0.3-0.1,0.4-0.2c0.7-0.6,1.7-0.9,2.7-0.8c0.9,0.1,1.8,0,2.6-0.3c2.1-1,4.4-1,6.6-1.4
	c4.8-0.8,9.5-2,14.3-2.9c3.5-0.8,6.9-1.8,10.3-3.1c2.1-0.7,4.1-1.6,6.1-2.4c3.7-1.5,7.2-3.5,11-4.9c1-0.3,1.9-0.8,2.8-1.3
	c1.7-1.2,3.8-1.6,5.6-2.6c1.9-0.9,3.8-2,5.5-3.3c2.3-2,4.5-4.2,6.8-6.2c1.7-1.4,3.2-3.1,4.5-4.9c1.1-1.5,2.3-2.9,3.6-4.2
	c0.3-0.3,0.6-0.7,0.8-1c3.4-3.9,5.7-8.6,9.2-12.4c1.1-1.2,2-2.5,3-3.8c3.3-3.9,6.9-7.4,10.1-11.4c0.9-1.1,1.9-2.1,1.8-3.8
	c0-0.8-0.3-1.2-1.2-1.2c-1.3,0-2.7,0.3-3.9,0.7c-2.3,0.8-4.3,2.3-6.8,2.7c-0.2,0-0.5,0.1-0.7,0.2c-2.4,1.6-5.2,2-7.8,2.9
	c-0.8,0.3-1.6,0.6-2.5,0.9c-1.4,0.5-2.6,1.4-4.1,1.8c-2.5,0.5-4.9,1.3-7.3,2.2c-3.2,1.3-6.6,2.1-10.1,2.4c-2.6,0.3-5.3,0-7.9,0.4
	c-2.8,0.4-5.7,0.4-8.5,0.7C395.5,141.8,391.9,141.9,388.2,141.7L388.2,141.7z M279.6,209.7h4.2c0.4,0,0.8,0,1.1-0.2
	c0.7-0.5,1.6-0.7,2.5-0.6c3.9,0.2,7.3-1.8,11.1-2.2c0.1,0,0.2-0.1,0.2-0.1c1.9-1.2,4.1-1.6,6.2-2.3c1.8-0.6,3.3-1.6,5-2.4
	c2.2-0.9,3.9-2.6,5.9-3.9c2.4-1.7,4.1-4.2,4.9-7c0.6-2.5,0.7-5.2,0.2-7.7c-0.5-3.6-0.9-7.3-3-10.5c-0.4-0.6-0.5-1.4-0.9-2.1
	c-0.8-1.4-1.8-2.7-2.8-3.9c-0.9-0.9-1.9-1.6-2.9-2.3c-1.9-1.4-4.3-1.6-6.4-2.6c-1-0.4-2.3-0.2-3.4-0.5c-1.8-0.6-3.6,0.2-5.5,0
	c-1,0-2.1,0.1-3.1,0.3c-3.6,0-7,1.3-10.3,2.5c-2.5,0.9-4.7,2.6-7.2,3.7c-0.4,0.2-0.8,0.4-1.1,0.7c-3.1,3.1-6.4,5.9-8.9,9.4
	c-0.9,1-1.7,2.2-2.2,3.5c-0.3,1.1-0.8,2.1-1.5,3c-0.4,0.4-0.6,0.9-0.8,1.5c-0.4,1.7-1.4,3.1-1.7,4.8c-0.2,1.2-1.3,2.1-1.3,3.4
	c0,1-0.2,1.9-0.6,2.8c-0.4,1-1,2.2,0.2,3.1c0.2,0.1,0.2,0.4,0.2,0.7c0.7,2.4,2.7,4.3,5.1,4.8c0.9,0.1,1.7,0.4,2.5,0.8
	C270,208.6,274.6,210.2,279.6,209.7z M192.4,207.7c3,0.3,6-0.1,8.8-1.2c2-0.6,3.7-1.9,5.6-2.5c2.9-0.9,5.3-2.1,6.6-5
	c0.7-1.2,0.8-2.7,0.2-4c-0.5-1-0.8-2.1-1-3.2c-0.5-2.8-1.5-5.6-3.1-8c-0.4-0.7-0.8-1.5-1-2.3c-1.1-3.3-3.7-5.6-5.7-8.3
	c-1.7-2-3.6-3.8-5.8-5.3c-1.8-1.4-3.8-2.4-5.7-3.6s-4-1.7-6.1-2.4c-1.5-0.5-3.2-0.4-4.8-1.1c-1-0.3-2-0.3-3-0.3
	c-2.1-0.2-4.3-0.6-6.4,0c-0.6,0.1-1.2,0.2-1.8,0.1c-2,0.1-3.9,0.6-5.6,1.4c-2.4,1.1-4.4,2.6-6.1,4.6c-0.5,0.4-0.9,0.8-1.3,1.2
	c-2.3,3.6-3.8,7.7-4.4,12c-0.4,2.3,0.1,4.7-0.6,7c0,0.3,0,0.6,0.1,0.9c0.3,3.6,2.5,6.2,5,8.4c4.1,3.8,9.4,5.6,14.5,7.5
	c3.4,1.2,6.8,2.1,10.3,2.7C184.9,207.1,188.6,208.2,192.4,207.7L192.4,207.7z M246.1,124.3c0.9,0.6,2,0.5,2.9,1c2.2,1.2,4.6,2,7,2.4
	c3.1,0.7,6,2.3,9.4,2.1c2.8-0.1,5.5,0.7,8.3,0.8c4.2,0.1,8.4-0.1,12.6,0.1s8.1-0.3,12.1,0.9c1.3,0.4,2.5,0.8,3.8,1.2
	c2.9,0.7,5.6,1.9,8,3.6c0.2,0.1,0.5,0.2,0.8,0.3c0.3,0.1,0.6,0.1,0.8-0.2c0.2-0.2,0.1-0.6-0.1-0.8c-0.5-0.6-1-1.1-1.6-1.6
	c-2.7-2.1-5.7-3.7-9-4.9c-2.9-1.2-5.9-2-9-2.4c-5.6-0.4-11.3-0.2-16.9-0.2c-2.8,0-5.6,0.4-8.2-0.2c-2.9-0.6-5.8-0.9-8.8-0.7
	c-0.4,0-0.8,0.1-1-0.1c-0.9-0.9-2-0.8-3.2-0.8c-1.9,0.1-3.8-0.1-5.5-0.8C247.7,123.6,246.7,123.7,246.1,124.3L246.1,124.3z
	 M142.1,162.3c0-2.4,0.3-4.9-0.3-7.3c-0.4-2.1-0.7-4.3-0.8-6.5c-0.2-1.5-0.5-2.9-1-4.3c-0.1-0.2-0.2-0.5-0.4-0.5
	c-0.2,0.1-0.4,0.2-0.5,0.4c-0.1,1.6-1.1,2.9-1,4.5c0.1,4.5,0,9,0,13.6c0.1,0.5,0,1-0.3,1.4c-0.5,0.6-0.6,1.4-0.2,2.1
	c0.4,1,0.4,2.1,0.1,3.1c-0.3,1-1,2.1-0.4,3.2c0.4,0.8,0.5,1.8,0.2,2.6c-0.1,0.6-0.2,1.3-0.2,1.9c-0.4,3.7,1,7.3,0.8,11.1
	c0,0.1,0,0.2,0,0.2c0.1,0.2,0.1,0.5,0.4,0.5s0.4-0.2,0.6-0.5c0.5-1.3,1.4-2.5,1.1-4c0-0.3,0.1-0.6,0.4-0.9c0.6-0.7,0.9-1.7,0.6-2.6
	c-0.2-0.9-0.1-1.8,0.1-2.6c0.5-1.6-0.1-3.3,0.6-4.9c0.1-0.3,0-0.7-0.2-1c-0.4-0.9-0.4-2,0-2.9c0.2-0.5,0.4-1.1,0.4-1.6
	C142,165.8,142,164.1,142.1,162.3L142.1,162.3z M179.1,135.3c0.3,0.3,0.7,0.4,1.1,0.4c2.6,0,5.1-0.1,7.7-0.1c3.4,0,6.6-0.9,10-1
	c4.1-0.2,8-1.7,11.1-4.4c0.8-0.7,1.7-1.1,2.8-1.4c1.8-0.4,3.6,0,5.3-0.6c-0.6-1.1-1.8-1.8-3.1-1.7c-1,0-2-0.1-3-0.1
	c-2.3-0.2-4.6,0.7-6.4,2.2c-0.7,0.8-1.7,1.1-2.7,1c-0.3-0.1-0.6,0-0.9,0.3c-0.4,0.5-1.1,0.7-1.7,0.6c-1.6-0.1-3.2-0.1-4.8,0.1
	c-3.9,0.9-7.8,1.3-11.6,2.5C181.5,133.8,180.2,134.5,179.1,135.3L179.1,135.3z M218.1,113.1c0.6,0.5,1.3,0.6,2,0.6
	c11.5,0,23,0,34.5,0c2.3,0.1,4.6-0.2,6.8-1c0.3-0.1,0.6-0.1,0.5-0.5s-0.4-0.3-0.6-0.3c-1.5-0.2-2.9-0.8-4.4-1s-2.4-1.1-3.7-1.1
	c-2.6-0.1-5.1-0.1-7.7-0.1c-3.6,0.1-7,1-10.6,1.1c-4.9,0.1-9.8,1.3-14.8,1C219.3,111.8,218.5,112.3,218.1,113.1L218.1,113.1z
	 M173.9,155.6c1.5,0.2,2.9,0.2,4.4,0.1c1.6-0.1,3-0.8,4.6-0.9c2.4-0.1,4.7,0,7.1,0c0.4-0.1,0.8,0.1,1.1,0.3c0.5,0.4,1.1,0.7,1.8,0.5
	c1.1,0,2.2,0.2,3.1,0.8c0.9,0.5,1.8,0.8,2.8,1c0.4,0.1,0.8,0,1-0.4c0.2-0.3,0.4-0.8,0.1-1c-0.7-0.5-0.9-1.4-1.6-1.9
	c-1.3-0.8-2.8-0.8-4.1-1.4c-1-0.5-2.3-0.3-3.5-0.7c-1.2-0.3-2.4-0.5-3.7-0.4c-2.8,0.1-5.5,0.9-8.3,0.9
	C176.6,152.7,174.7,153.8,173.9,155.6L173.9,155.6z M295.7,154.7c0.4-0.1,1,0.3,1.3-0.2s-0.1-0.9-0.4-1.3c-0.8-1.6-2.4-2-3.9-2.4
	c-0.8-0.2-1.8-0.8-2.5-0.5c-2.1,0.9-4.3,1-6.4,1.9c-1.5,0.7-3,1.3-4.6,1.6c-1.8,0.3-3.1,1.6-4.7,2.2c-0.5,0.2-0.5,0.7-0.5,1.1
	s0.5,0.5,0.9,0.6c1,0.2,2,0,2.9-0.4c1.3-0.6,2.6-1,4-1.3c2.8-0.3,5-1.9,7.7-2.5c1.4-0.4,2.8-0.2,4,0.6
	C294.2,154.5,294.9,154.7,295.7,154.7z M226.5,200.9c-0.8,0.7-1.5,1.5-2.1,2.4c-1.4,2.1-0.2,4.3,2.3,4.4c0.5,0,0.9,0,1.4,0
	c1.2-0.2,2.3-0.1,3.4,0.2c2.8,1.2,5.5,0.6,8.2-0.2c3.1-1,4-2.3,4.1-4.9c0-1.3-0.9-1.2-1.6-1.3s-0.2,0.7-0.4,1.1
	c-0.1,0.2-0.1,0.4,0,0.6c0.2,0.8-0.3,1.1-1,1.4c-2.1,1-4.4,1-6.7,0.9s-4.4-0.8-6.7-0.2c-0.8,0.2-1.4-0.3-1.3-1.3
	c0-0.5,0.1-1,0.4-1.4C227.1,202.2,227,201.4,226.5,200.9L226.5,200.9z M246.4,221.7c0.8,0,1.7,0,2.5,0c0.3,0,0.9,0.2,1-0.4
	s-0.5-0.5-0.9-0.6c-3.8-0.1-7.5-1.2-11.4-1.1c-6.1,0.2-12.2-1.2-18.4,0.1c-4.5-0.5-8.9,1.2-13.4,1.1c-0.2,0-0.5,0-0.6,0.3
	s0.3,0.4,0.6,0.4c2.4,0.2,4.8,0.6,7.1-0.6c0.3-0.1,0.7-0.2,1-0.2c5.9,0,11.8,0,17.6,0c3.1,0,6.3-0.2,9.4,0.5
	C242.7,221.8,244.5,221.9,246.4,221.7L246.4,221.7z M227.4,224.7c-0.9-0.2-2.1,0.5-3.4,0.8c-2.4,0.4-4.7,1.4-6.7,2.7
	c-0.4,0.3-1.4,0.5-1.1,1.1s1.1,0.2,1.6,0.1c2.8-0.7,5.3-2,8.3-1.8c3.5,0.1,7.1-0.3,10.5,1.1c0.9,0.4,1.7,0.6,2.6,0.9
	c0.2,0.1,0.4,0.2,0.6-0.1c0.1-0.1,0.1-0.4-0.1-0.5c0,0,0,0-0.1,0c-0.8-0.8-1.7-1.4-2.7-2C234.1,225.6,230.8,224.8,227.4,224.7
	L227.4,224.7z M252.4,222.7c0.4-0.3,1.3,0.3,1.3-0.4s-0.9-0.3-1.3-0.4s-1.4-0.4-1.4,0.3C251,223,252,222.4,252.4,222.7L252.4,222.7z
	"/>
<path class="st2" d="M159.9,307.2c-1-0.3-1.9-0.6-2.8-1.1c-1.2-0.6-2.4-1.2-3.6-1.6c-1.8-0.3-3.3-1.6-3.9-3.3c-1-2.4-2.2-4.8-3.6-7
	c-1.1-2-2.6-3.6-3.8-5.5c-0.5-0.8-1.1-1.4-1.9-1.9c-0.3,0.6-0.4,1.4-0.1,2.1c0.4,1,0.7,2.1,0.8,3.2c0,0.4,0.2,0.8,0.4,1.1
	c0.9,1.7,1.7,3.4,2.3,5.2c0.3,0.7,1,1.1,1.2,1.9c0.3,1.1,0.7,2.1,1.1,3.1c0.6,1.8,2,3.3,3.9,3.9c3.3,1.3,6.5,2.8,9.7,4.5
	c0.7,0.3,1.4,0.6,2.1,0.8c2.3,0.6,3.5,2.5,4.8,4.3c-0.5,1.2-0.1,2.7-1.1,3.8c-0.1,0.1-0.2,0.1-0.3,0.2c-1.9,4.7-6.2,6.8-10.1,9.2
	c-0.4,0.3-1,0.3-1.3-0.1c0-0.1-0.1-0.1-0.1-0.2c-0.4-0.6-0.7-1.3-0.8-2c-0.4-3.3-2-6.3-4.6-8.4c-1.5-1.3-2.9-2.8-4.8-3.6
	c-0.3-0.2-0.6-0.4-0.8-0.7c-2-2.1-3.9-4.3-5.9-6.3c-3.5-3.5-5.4-8-7.5-12.3c-0.9-1.9-1.8-4-1.5-6.4c0-0.9,0.4-1.7,1.1-2.3
	c3.2-2.4,6-5.4,8.1-8.9c0.9-1.7,2.4-3,4.2-3.7c0.3-0.1,0.6-0.3,0.8-0.6c1.4-1.4,2.9-2.6,4.6-3.6c0.4-0.2,0.7-0.5,1-0.9
	c1-1.4,2.5-1.3,3.4,0.2c0.2,0.4,0.5,0.8,0.7,1.2c1.7,3.3,4.8,4.3,8.1,4.8c1,0.1,2.1,0.1,3.1,0c1.1-0.2,2.1,0.3,2.7,1.2
	c0.6,0.8,1.3,1.5,2,2.2c2,2,4.7,3,7.5,2.7c1.6-0.2,3.2,0,4.8-0.1c1.3-0.1,2.6,0.6,3.2,1.7c1,1.5,2.3,2.9,3.8,3.9
	c0.4,0.3,0.9,0.5,1.4,0.4c0.7-0.1,1.4,0.3,1.5,1c0,0.1,0,0.2,0,0.3c0.1,1.9,1.1,3.2,2.1,4.5c0.1,0.1,0.2,0.2,0.4,0.2
	c2-0.1,4,0.5,5.8-1c2.5-2,8.7-1.6,11.2,1.1c0.5,0.5,0.5,1.3,1.3,1.8c1.3,0.8,2.7,1.1,4.2,1c1.9-0.2,3.4,0.7,5.1,1.3
	c0.9,0.4,1.9,0.6,2.9,0.8c1.9,0.2,2.4,1.3,1.4,2.9c-0.8,1.1-1.2,2.3-1.3,3.7c0,0.3,0,0.8-0.2,0.9c-0.9,0.7-0.7,1.7-0.7,2.6
	c0,2.5,0.1,5.1,0.3,7.6c0.4,0.1,0.6-0.1,0.6-0.4c-0.2-1.9,0.8-3.5,1-5.4c0.4-3.4,1.6-6.8,3.5-9.6c0.7-1,1.7-1.7,2.9-1.9
	c1-0.1,2-0.4,2.8-1c0.2-0.2,0.5-0.2,0.8-0.1c1.1,1,2.4,0.6,3.6,0.6c1.5,0.1,3,0.1,4.4,0c0.8,0,1.2,0.3,1.1,1.1s0.1,1.8-0.7,2.4
	c-0.2,0.1-0.2,0.6-0.2,0.9c-0.2,1.5-0.3,3.1-0.6,4.6c-0.6,2.8,0.1,5.4,0.4,8c0.5,3,1.4,5.9,2.9,8.6c0.1,0.3,0.3,0.9,0.8,0.7
	s0.5-0.7,0.5-1.1c-0.1-2.1-0.1-4.1-0.2-6.2c0-0.3-0.1-0.5-0.2-0.8c-0.8-1.6-1.1-3.2,0-4.9c0.1-0.1,0.1-0.3,0.1-0.3
	c-1.1-1.8,0.7-3.5,0.3-5.3c-0.3-1.2,0.8-2.3,0.8-3.4c0-1.6,0.9-2.8,1.4-4.1c0.3-0.7,1-1.2,1.8-1.2c2.8-0.3,5.4-1.4,7.7-3.1
	c1.5-1.1,3.1-0.9,4.7-0.5c0.9,0.2,1.8,0.1,2.6-0.2c0.6-0.3,1.3-0.4,2-0.4c0.1,0,0.2,0,0.2,0c1.4-1.4,3.6-1.3,5-2.8
	c0.6-0.6,1.1-1.1,1.7-1.6c0.5-0.4,1.1-0.7,1.8-0.6c0.8,0.1,1.5,0.1,2.3,0.1c3.6,0,7-1.8,9.1-4.6c0.5-0.6,1-1.2,1.6-1.6
	c0.8-0.6,1.3-1.6,1.3-2.6c0-0.6,0.4-0.9,1-1.1c3.6-1.1,6.6-3.1,8.2-6.6c0.7-1.5,2-2.9,1.9-4.8c-0.1-0.7,0.7-0.6,1.2-0.7
	c3.8-0.5,6.8-2.2,8.3-6c0.7-1.4,1.1-2.9,1.3-4.4c0.2-1.3,0.7-2.5,1.5-3.5c1-1.8,2-3.5,1.5-5.6c-0.1-0.4-0.1-0.8-0.3-1
	c-1-0.9-0.6-1.6,0-2.5c0.7-1.2,1.4-2.5,2.1-3.8c0.3-0.5,0.6-1,1.2-1.1c1.9-0.3,3.7-0.7,5.5-1.3c2.6-0.6,5.4-0.8,7.9-2.1
	c2.1-1.2,4.7-1.2,6.8-0.1c0.5,0.2,1,0.2,1.5,0.5c0.8,0.6,0.7,1.2-0.2,1.6c-0.5,0.1-0.9,0.2-1.4,0.2c-0.7,0.1-1.6-0.1-2,0.7
	c-0.1,0.1-0.2,0.2-0.3,0.2c-3.5,0-5.9,2.5-8.4,4.4c-1.6,1.4-3.2,2.9-4.5,4.6c-0.3,0.3-0.5,0.7-0.5,1.2c-0.1,0.6-0.4,1.2-0.9,1.5
	c-1.2,0.9-2,2.3-2.2,3.8c-0.3,1.2-0.6,2.5-0.9,3.7c-0.3,1.4-0.2,2.9,0.3,4.2c0.1,0.4,0.2,0.8,0.3,1.3c0.4,2.8,1,5.6,1.8,8.4
	c0.3,1.7,0.8,3.3,1.3,5c0.6,1.5,0.9,3.1,2,4.3c0.2,0.3,0.3,0.5,0.4,0.9c0.3,1,0.7,2,1.2,2.8c1.8,2.2,2.2,4.9,2.4,7.5
	c0.2,1.9,1.3,3,2.3,4.3c0.2,0.3,0.6,0.4,0.9,0.2c0,0,0.1,0,0.1-0.1c1.7-1,3-2.3,2.9-4.5c-0.1-1.4,0.1-2.9,0.5-4.3
	c0-0.1,0.1-0.3,0.1-0.3c-1.1-1.8,0.4-3.5,0.4-5.2c0-0.5,0.2-0.6,0.6-0.6c2.5,0.4,4.5-0.8,6.8-1.8c2.4-1.2,4.8-2.4,7.1-3.8
	c1.1-0.6,1.4-0.4,1.5,0.9c0.4,2.8-0.7,5.4-1.3,8.1c-0.7,2.9-2.6,5.2-3.9,7.8c-1.4,3.1-3.7,5.7-6.6,7.5c-1.2,0.8-2.6,1.3-4,1.4
	c-1.5,0.1-2.9,0.8-3.9,1.9c-1.4,1.5-3.4,2-5.2,2.9c-0.8,0.4-1.7,0-2-0.7c0,0,0,0,0-0.1c-2-3.9-5.2-7-7.5-10.7
	c-1.1-1.6-2.4-3.2-3.7-4.7c-1.5-1.9-2.9-3.9-4.5-5.8c-0.9-1.2-2-2.3-3.2-3.2c-0.8-0.6-1.5-1.4-1.9-2.3c-0.3-1-1.3-1.7-2.3-1.6
	c-1.1,0-2.2,0.6-2.7,1.7c-0.6,1.2-1.3,2.4-2.1,3.5c-1.2,1.7-2.8,3.2-4.6,4.4c-1.2,0.7-2.2,1.7-2.9,2.9c-0.8,1.2-1.7,2.3-2.7,3.3
	c-0.2,0.3-1,0.5-0.6,1s0.9,0,1.3-0.2c4-1.5,7.3-4.2,10.9-6.5c1.2-0.8,1.2-0.8,1.3,0.6c0.1,1,0.1,2,0.1,3c-0.1,1.1,0.2,2.2,0.8,3.1
	c0.6,0.9,0.3,2.1-0.2,3.1c-0.6,1.2-1.1,2.4-1.5,3.6c-0.2,0.5-0.4,0.9-0.6,1.3c-1.3,2.3-2.7,4.4-4.4,6.4c-1.2,1.4-2,3.1-3.1,4.5
	c-0.7,0.9-0.8,2-1.3,2.9c-1.1,1.9-0.8,4-1.6,5.9c-0.5,1-0.3,2.1,0.4,2.9c0.2,0.2,0.5,0.5,0.9,0.4s0.3-0.5,0.3-0.8
	c0.2-1.3,0.7-2.5,1.4-3.6c1.5-2.8,3.1-5.5,5-8c2.2-2.9,4.2-6.1,6.3-9.2c0.2-0.3,0.3-0.7,0.4-1c0.1-0.3,0.1-0.8,0.5-0.8
	s0.5,0.5,0.6,0.8c0.9,2.9,1.9,5.7,3.1,8.4c1.4,2.7,1.1,5.8,2.5,8.5c0.3,0.8,0.4,1.6,0.3,2.4c0,1.2,0.2,2.4,0.8,3.5
	c0.2,0.4,0.2,0.8,0.2,1.3c0,6.8,0,13.5,0,20.3c0,0.4,0,0.9-0.1,1.3c-0.7,2.5-0.8,5.2-0.2,7.7c0.4,3,0.2,6.1,1.2,9.1
	c0.1,0.6,0.3,1.1,0.6,1.7c0.7,1.2,0.6,1.9-0.6,2.5c-1.8,0.9-3.6,1.7-5.5,2.4c-1.8,0.5-3.5,1.1-5.1,2c-2.4,1.4-5.1,1.8-7.6,2.7
	c-2.7,1.1-5.5,1.9-8.4,2.6c-2.8,0.5-5.6,1.2-8.4,2c-0.6,0.2-1.2,0.3-1.8,0.3c-1,0-2,0.3-3,0.7c-0.4,0.2-0.9,0.3-1.4,0.3
	c-2.7-0.1-5.3,0.7-7.9,1.2c-4.6,0.9-9.3,0.8-13.9,1.7c-2.8,0.6-5.7,0.2-8.6,0.3c-2.4,0-2.5,0-2.4-2.5c0.1-1.5-0.6-2.9-0.8-4.3
	c-0.4-2.5,0.1-5-0.4-7.5c-0.8-3.4-0.7-6.8-0.8-10.1c0-2.2-0.1-4.3-0.1-6.5c0-0.5-0.1-1-0.3-1.5c-0.5-0.9-0.5-2.1,0-3
	c0.2-0.3,0.3-0.7,0.2-1c-0.4-1.1-0.5-2.4-0.1-3.6c0.3-1.2-0.2-2.5,0.1-3.9c0.2-0.8-0.7-1.6-0.8-2.5c-0.1-0.2-0.3-0.4-0.5-0.4
	c-0.2,0.1-0.3,0.3-0.3,0.5c-0.3,2-1.3,3.8-1.1,5.8c0.1,0.4,0,0.7-0.2,1c-1,1.3-0.7,2.9-0.7,4.4c0,5.3,0.1,10.6,0.1,15.8
	c0,1.2,0.7,2.2,0.7,3.4c-0.1,2.5,0.9,4.8,1.4,7.2c0.2,1.3,0.6,2.5,1.2,3.7c0.6,1.1,0.6,2.3,1.4,3.4s0,1.7-1.3,1.7
	c-3.7,0-7.4,0.1-11.1-0.2c-4.6-0.3-9.3-1-13.9-1.5c-1.4-0.1-2.7-0.3-4-0.4c-1.1,0-2.2-0.3-3.2-0.7c-1-0.5-2.1-0.2-3.2-0.3
	c-0.8,0.1-1.5-0.2-2.1-0.7c-0.6-0.6-1.6-0.3-2.4-0.4c-0.9,0-1.8-0.2-2.5-0.7c-0.1-0.1-0.3-0.2-0.4-0.2c-3,0.1-5.6-1.5-8.5-2
	c-1.9-0.4-4-0.6-5.7-1.9h-0.1c-3.4-0.4-6.3-2.2-9.4-3.1c-2.1-0.5-4.2-1.3-6.1-2.4c-1-0.7-2.5-0.6-3.5-1.4c-0.7-0.5-0.9-1-0.4-1.7
	c0.3-0.4,0.4-1,0.6-1.4c1.4-2.5,2-5.4,1.6-8.3c-0.1-1.6,0.1-3.2,0-4.8c0-0.8,0.9-1.1,0.8-1.8c-0.2-1.5,0.9-2.4,1.4-3.6
	c1-2.2,2.3-4.3,2.8-6.8c0.1-0.8,0.8-1.2,1-2.1c0.7-2.7,0.3-5.3,0-7.9c0-1.5-0.7-2.9-1.9-3.9c-0.4-0.3-0.1-0.5,0.1-0.8
	c1.2-1.4,2.1-2.9,3.2-4.3s1-3.1,1.5-4.8c0.3-1,0.3-2,0.1-3c-0.2-1.4,0-2.8,0.8-4c0.8-1.9,1.2-3.9,1.1-6c-0.1-3.4,0-6.7,0-10.1
	c0-0.6,0.2-1.5-0.7-1.7c-1,0.1-1.8,0.7-2.2,1.6c0,0.6-0.1,1.2-0.7,1.5c-0.3,0.2-0.2,0.6-0.2,0.9c0.2,1.7-0.6,3.1-1.2,4.6
	c-0.2,0.4-0.5,0.5-0.8,0.6c-1.4,0.5-2.8,1.1-4.3,1.5c-1,0.3-1.5,0.8-1,1.8C159.9,306.6,159.9,306.9,159.9,307.2z M205.6,356.2
	c0.4-2.1,0.4-4.3,0-6.4c-0.4-1.9-0.7-3.9-0.6-5.8c0.1-0.5-0.1-1-0.4-1.3c-0.4-0.4-0.6-1-0.5-1.6c-0.1-2.2,0.4-4.5-0.7-6.6
	c-0.1-0.3-0.1-0.6,0-0.9c0.9-2.3,0.6-4.5,0.2-6.8c-0.1-0.4-0.2-0.8,0.1-1.1c0.5-0.6,0.4-1.4-0.2-1.9c0,0,0,0,0,0
	c-0.5-0.4-0.6-1.2-0.1-1.7c0.1-0.1,0.1-0.1,0.2-0.2c0.3-0.2,0.6-0.6,0.3-0.9c-0.6-0.7-0.1-1.4-0.1-2c0-0.3,0.3-0.6,0-0.9
	s-0.7,0.1-0.9,0.4c-1.7,1.7-3.1,3.6-2.9,6.2c0,0.3-0.1,0.6-0.2,0.9c-1.1,2-0.9,4-0.6,6.2c0.6,3.3,1.3,6.5,2.1,9.7
	c0.7,3,1.1,6.1,2.6,8.9c0.1,0.2,0.1,0.4,0.1,0.6C203.7,352.8,205.1,354.4,205.6,356.2L205.6,356.2z"/>
<path class="st1" d="M329.1,258.4c0.2,1.8-0.5,3.7-1,5.6c-0.1,0.4-0.4,0.8-0.7,1.1c-0.6,0.4-1.2,1-1.9,0.8s-0.5-1.2-0.5-1.7
	c0.2-1.3-1.3-2.4-0.5-3.7c0.7-1.2,0.1-2.5,0.3-3.8c0-0.2,0-0.4,0.1-0.6c0.1-0.4,0-0.9-0.4-1.2c-0.6-0.4-0.5-0.8-0.1-1.2
	s0.5-0.7,0-1.1s-0.4-1-0.1-1.5c2.2-3.1,5-5.7,8.3-7.6c2.2-1.4,5-1.7,7.6-2.5c0.3,0,0.6,0,0.9,0.2c1.6,0.7,3.2,1.3,4.7,2
	c1,0.3,2.1,0.3,3.1,0c2.4-0.5,4-2.5,6.4-3c0.3,0,0.6-0.2,0.9-0.4c1.2-1.4,2.8-1.2,4.5-1.1c1.4,0.1,2.7,2,2,3.3
	c-0.6,1.5-1.9,2.6-3.4,3.1c-1.7,0.5-3.5,1.6-3.4,3.9c0,0.5-0.2,1-0.5,1.4c-0.9,1.5-0.3,2.8,1.5,3.1c1.2,0.2,2.4,0.5,3.6,0.7
	c1.4,0.4,2.8,0.9,4.1,1.6c2.2,0.8,3.3,2.6,4.9,4c0.7,0.6,0.6,1.4,0.6,2.2c0.1,3,0.1,3-2.8,2.9c-2.1-0.1-4-1-6.1-1.1
	c-1.5,0-2.5,0.2-3.2,1.7c-1.6,3.2-4.5,5.2-7.2,7.4c-1.2,1.1-2.7,1.9-4.2,2.5c-1.5,0.7-2.9,1.5-4.2,2.5c-1.9,1.4-4.3,2-6.7,1.8
	c-0.5-0.1-0.9-0.1-0.9-0.8c-0.1-0.8-0.6-1.6-1.3-2c-1.4-0.8-2.1-2.4-1.8-4c0.2-1.3,0.1-2.5,1.6-3.1c0.9-0.5,1.9-0.3,2.6,0.4
	c1.9,1.8,2.7,1.9,4.7,0.3c1.1-0.8,2.2-1.6,3.1-2.6c2-2.2,1.4-4.4-1.3-5.4c-1.9-0.6-4-0.9-6-0.8c-2.2-0.1-2.6-0.5-2.6-2.6
	c0-3,0-6.1,0-9.1c0-1-0.3-1.2-1.2-1c-0.5,0.1-1,0.2-1.2,0.6c-0.6,1.2-1.8,2.2-1.7,3.8c0.1,0.5-0.1,1-0.4,1.5
	C328.8,255.8,329,257,329.1,258.4z"/>
<path class="st1" d="M142.1,321c-0.4,1-1,1.9-1.7,2.7c-1,1.1-1.7,2.4-2.2,3.8c-0.8,2.1-4.5,2.7-6,1c0-0.1-0.2-0.1-0.1-0.2
	c0.3-1.2-0.7-2.1-0.4-3.4c0.6-2.6,0.2-5.3,0.4-8c0-0.7,0.1-1.4,0.5-2.1c0.4-0.7,0.5-1.4,0.4-2.2c0-0.3,0-0.6,0.4-0.8
	c0.3-0.1,0.7,0,0.8,0.3c2.1,2.7,5,4.6,7.2,7.1C141.9,319.7,142.2,320.3,142.1,321z"/>
<path class="st3" d="M334.7,218.8c-0.5,0-1,0-1.5,0c-0.9,0.1-1.2-0.3-1.3-1.1s0.5-1,1.2-1c0.7,0,1.4,0.2,2,0.7
	c0.8,0.6,1.8,0.3,2.8,0.5c0.3,0.1,0.8-0.1,0.8,0.3s-0.4,0.4-0.7,0.5C336.9,218.8,335.8,218.9,334.7,218.8z"/>
<path class="st0" d="M24.7,115.7c1-0.2,2,0,2.8,0.6c0.4,0.3,1,0.4,1.5,0.4c1,0.1,1.9,0,2.6,0.9c0.1,0.1,0.2,0.1,0.3,0.1
	c4.2,0.9,8,2.9,11.8,4.6c1.2,0.6,2.6,0.7,3.7,1.4c2.7,1.8,5.9,2.6,8.8,3.9c5.1,2.2,10.3,4.1,15.5,5.7c3.6,1.1,7.3,2,11,2.6
	c2,0.3,4.2,0.4,6,1.6c0.3,0.2,0.8,0.1,1.2,0.1c1.1,0.1,2.4-0.2,3.2,0.9c0.1,0.1,0.1,0.1,0.2,0.1c2.1-0.2,3.9,1.2,6,1.1
	c0.6,0,1.1,0.2,1.5,0.6c0.1,0.1,0.3,0.3,0.5,0.3c1.3,0,2.4,0.7,3.5,1c5.4,1.3,10.1,4.1,14.5,7.2c3.6,2.4,6.5,5.7,8.4,9.5
	c0.9,2,2.4,3.8,2.9,6c0.3,1.3,0.2,2.8,1.3,3.9c0.2,0.2,0,0.7,0.1,1c0.1,1-0.3,2,0.7,2.7c0.3,0.2,0.2,0.6,0.2,0.9c0.1,3,0,6-0.2,9
	c-0.1,1.4-0.1,2.8,0.2,4.2c0.5,3.2,0,6.4-0.5,9.5c-0.3,1.7-0.1,3.5-0.4,5.3c-0.1,1-0.9,1.8-1.8,1.9c-3.2,0.6-6.3,0-9.4-0.5
	c-5.3-0.8-10.5-1.6-15.9-1.5c-4.8,0.1-9.5-1.1-13.7-3.5c-3.4-1.8-6.7-3.9-9.8-6.2c-3.2-2.1-6.2-4.4-9.2-6.9
	c-5-4.7-10.1-9.2-14.6-14.4c-1.9-2.2-3.7-4.6-5.8-6.8c-1.7-1.6-3-3.6-4-5.7c-0.1-0.3-0.3-0.6-0.5-0.8c-1.6-1.3-2.3-3.1-3.4-4.8
	c-0.4-0.7-0.9-1.4-1.5-2c-0.3-0.2-0.5-0.5-0.5-0.8c-0.1-0.7-0.5-1.4-1.1-1.8c-0.5-0.4-0.9-0.9-1.3-1.5c-2.2-4.3-5.3-7.9-7.9-11.8
	c-0.8-1.2-1.5-2.7-2.8-3.6c-0.3-0.2-0.4-0.9-0.6-1.3c-1.1-1.9-2.1-3.9-3-5.9c-0.5-1.2-1.1-2.3-1.8-3.4c-0.6-1.1-0.7-2.4-0.4-3.6
	C23.3,115.3,24.3,115.9,24.7,115.7z"/>
<path class="st0" d="M388.2,141.7c3.7,0.2,7.3,0.1,11-0.1c2.9-0.3,5.7-0.3,8.5-0.7c2.6-0.4,5.3,0,7.9-0.4c3.5-0.2,6.9-1,10.1-2.4
	c2.4-0.9,4.8-1.7,7.3-2.2c1.5-0.4,2.7-1.3,4.1-1.8c0.8-0.3,1.6-0.6,2.5-0.9c2.6-1,5.4-1.4,7.8-2.9c0.2-0.1,0.4-0.2,0.7-0.2
	c2.5-0.4,4.5-1.9,6.8-2.7c1.3-0.4,2.6-0.7,3.9-0.7c0.9,0,1.1,0.4,1.2,1.2c0.1,1.6-0.9,2.6-1.8,3.8c-3.2,3.9-6.8,7.5-10.1,11.4
	c-1,1.2-1.9,2.6-3,3.8c-3.5,3.8-5.9,8.5-9.2,12.4c-0.3,0.3-0.5,0.7-0.8,1c-1.3,1.3-2.5,2.7-3.6,4.2c-1.3,1.8-2.8,3.5-4.5,4.9
	c-2.3,2.1-4.5,4.2-6.8,6.2c-1.7,1.3-3.5,2.4-5.5,3.3c-1.8,1-3.9,1.4-5.6,2.6c-0.9,0.6-1.8,1-2.8,1.3c-3.8,1.4-7.3,3.4-11,4.9
	c-2,0.8-4,1.7-6.1,2.4c-3.3,1.3-6.8,2.3-10.3,3.1c-4.8,0.9-9.5,2.1-14.3,2.9c-2.2,0.4-4.5,0.3-6.6,1.4c-0.8,0.3-1.7,0.4-2.6,0.3
	c-1-0.1-1.9,0.2-2.7,0.8c-0.1,0.1-0.3,0.2-0.4,0.2c-3.3,0.1-6.3,1.8-9.6,2c-1.9,0.1-2.7-0.3-2.7-2.2c-0.1-4.6-0.1-9.3-0.1-13.9
	c0.1-1.2-0.2-2.4-0.7-3.4c-0.1-0.2-0.2-0.4-0.2-0.6c0.4-1.7-0.9-2.8-1.3-4.2c-0.1-0.3-0.3-0.6-0.5-0.8c-0.4-0.6-1.3-0.8-1.2-1.7
	c-0.1-1.4,0.2-2.9,0.9-4.1c2.4-3.8,5.3-7.3,8.5-10.4c2.6-2.7,5.6-5,8.3-7.6c1.7-1.6,3.7-2.9,5.9-3.8c1.2-0.5,2.2-1.4,3.4-2
	c2.3-1,4.7-1.5,7-2.5c2.2-1,4.6-1.5,7.1-1.6c3.7-0.1,7.4,0,11.1,0V141.7z"/>
<path class="st0" d="M279.6,209.7c-5,0.5-9.6-1-14.1-3.4c-0.8-0.4-1.6-0.7-2.5-0.8c-2.5-0.6-4.4-2.4-5.1-4.8c0-0.2-0.1-0.5-0.2-0.7
	c-1.2-1-0.7-2.1-0.2-3.1c0.4-0.9,0.6-1.8,0.6-2.8c0-1.3,1.1-2.1,1.3-3.4c0.3-1.7,1.4-3.1,1.7-4.8c0.1-0.5,0.4-1,0.8-1.5
	c0.7-0.9,1.2-1.9,1.5-3c0.6-1.3,1.3-2.5,2.2-3.5c2.5-3.5,5.8-6.3,8.9-9.4c0.3-0.3,0.7-0.6,1.1-0.7c2.5-1.1,4.7-2.8,7.2-3.7
	c3.3-1.2,6.6-2.5,10.3-2.5c1-0.2,2-0.2,3.1-0.3c1.8,0.2,3.6-0.6,5.5,0c1.1,0.3,2.5,0.1,3.4,0.5c2.1,1,4.5,1.2,6.4,2.6
	c1.1,0.7,2,1.4,2.9,2.3c1,1.2,2,2.5,2.8,3.9c0.4,0.6,0.5,1.4,0.9,2.1c2.1,3.2,2.5,6.9,3,10.5c0.5,2.6,0.4,5.2-0.2,7.7
	c-0.8,2.8-2.5,5.3-4.9,7c-1.9,1.3-3.7,3-5.9,3.9c-1.7,0.7-3.2,1.7-5,2.4c-2.1,0.7-4.3,1.1-6.2,2.3c-0.1,0-0.1,0.1-0.2,0.1
	c-3.8,0.4-7.2,2.4-11.1,2.2c-0.9-0.1-1.8,0.1-2.5,0.6c-0.3,0.2-0.7,0.3-1.1,0.2L279.6,209.7z M287.9,167.7c-2.7-0.5-5.3,1-7.7,2.3
	c-3.2,1.6-5.9,3.9-7.9,6.9c-0.2,0.3-0.4,0.5-0.6,0.7c-1.5,1.3-2.5,3.1-2.7,5c0,0.2-0.2,0.5-0.3,0.6c-1.4,1.6,0.6,5.1,2.1,5.6
	c1.8,0.8,3.8,0.9,5.7,0.3c1-0.4,2-0.8,3.1-1c1-0.1,1.4-1.3,2.4-1.3c0.4,0,0.9-0.2,1-0.6c0.3-0.5,0.8-0.4,1.3-0.3s0.5,0.5,0.5,0.9
	c0.5,2,2.3,3.3,4.4,3.1c3-0.6,3.9-1.8,3.9-5c0-2-0.6-2.8-2.5-3.2c-0.5-0.1-0.7-0.3-0.5-0.8c0.1-0.4,0.3-0.8,0.5-1.1
	c1.2-1.5,2.2-3.2,3-4.9c0.7-1.6,0.8-3.4,0.2-5c-0.5-1.4-1.8-2.3-3.3-2.2C289.7,167.7,289,167.7,287.9,167.7z"/>
<path class="st0" d="M192.4,207.7c-3.9,0.6-7.5-0.6-11.2-1.3c-3.5-0.6-6.9-1.5-10.3-2.7c-5.1-2-10.4-3.7-14.5-7.5
	c-2.5-2.3-4.7-4.8-5-8.4c-0.1-0.3-0.1-0.6-0.1-0.9c0.7-2.3,0.3-4.6,0.6-7c0.6-4.3,2-8.4,4.4-12c0.4-0.4,0.8-0.9,1.3-1.2
	c1.7-2,3.8-3.5,6.1-4.6c1.8-0.8,3.7-1.3,5.6-1.4c0.6,0.1,1.2,0,1.8-0.1c2.1-0.6,4.3-0.2,6.4,0c1-0.1,2,0,3,0.3
	c1.5,0.7,3.2,0.6,4.8,1.1c2.1,0.7,4.3,1.2,6.1,2.4s3.9,2.3,5.7,3.6c2.2,1.5,4.1,3.3,5.8,5.3c2,2.7,4.6,5,5.7,8.3
	c0.2,0.8,0.6,1.6,1,2.3c1.6,2.4,2.6,5.2,3.1,8.1c0.2,1.1,0.5,2.2,1,3.2c0.5,1.3,0.4,2.8-0.2,4c-1.3,2.9-3.7,4.1-6.6,5
	c-2,0.6-3.6,1.9-5.6,2.5C198.5,207.5,195.4,207.9,192.4,207.7z M173.9,166.7c-3.5-0.6-6.2,1.6-8.9,3.7c-3.8,2.8-6.5,6.8-7.8,11.3
	c-0.3,1.1-0.3,2.2,0,3.3c0.7,3.1,4.1,3.4,6.8,2.5c1.9-0.6,3.7-1.5,5.3-2.6c1.2-0.8,1.2-0.8,1.6,0.7c0.1,0.2,0.1,0.4,0.2,0.5
	c0.8,1.5,2.5,2.4,4.3,2.3c2.7-0.5,3.3-1.1,3.6-3.7c0.3-2.2-1.1-4.3-3.3-4.9c-1.2-0.2-0.7-0.7-0.4-1.2c0.6-0.8,1.1-1.5,1.7-2.3
	c1.1-1.7,1.2-3.6,1.6-5.4c0.4-1.8-0.7-3.6-2.5-4c-0.2,0-0.4-0.1-0.6-0.1H173.9z"/>
<path class="st0" d="M246.1,124.3c0.6-0.6,1.6-0.8,2.3-0.4c1.8,0.7,3.7,0.9,5.5,0.8c1.1,0,2.2-0.1,3.2,0.8c0.3,0.3,0.7,0.1,1,0.1
	c2.9-0.2,5.9,0.1,8.8,0.7c2.7,0.7,5.5,0.2,8.2,0.2c5.6,0.1,11.3-0.1,16.9,0.2c3.1,0.4,6.1,1.2,9,2.4c3.2,1.2,6.2,2.8,9,4.9
	c0.6,0.5,1.1,1,1.6,1.6c0.2,0.2,0.3,0.5,0.1,0.8c-0.2,0.3-0.5,0.2-0.8,0.2c-0.3,0-0.5-0.1-0.8-0.3c-2.4-1.7-5.1-2.9-8-3.6
	c-1.3-0.3-2.5-0.8-3.8-1.2c-4-1.2-8.1-0.7-12.1-0.9s-8.4,0-12.6-0.1c-2.8-0.1-5.5-1-8.3-0.8c-3.4,0.2-6.3-1.4-9.4-2.1
	c-2.4-0.5-4.8-1.3-7-2.4C248.1,124.8,247,124.9,246.1,124.3z"/>
<path class="st0" d="M142.1,162.4c-0.1,1.7-0.1,3.4,0,5.1c0,0.6-0.1,1.1-0.4,1.6c-0.4,0.9-0.4,2,0,2.9c0.2,0.3,0.2,0.7,0.2,1
	c-0.7,1.6-0.1,3.3-0.6,4.9c-0.3,0.8-0.3,1.7-0.1,2.6c0.2,0.9,0,1.9-0.6,2.6c-0.3,0.2-0.4,0.5-0.4,0.9c0.3,1.5-0.6,2.7-1.1,4
	c-0.1,0.3-0.2,0.6-0.6,0.5s-0.3-0.3-0.4-0.5c0-0.1,0-0.2,0-0.2c0.2-3.7-1.2-7.3-0.8-11.1c0-0.6,0.1-1.3,0.2-1.9
	c0.3-0.9,0.2-1.8-0.2-2.6c-0.6-1.1,0.1-2.2,0.4-3.2c0.3-1,0.3-2.1-0.1-3.1c-0.4-0.7-0.3-1.5,0.2-2.1c0.3-0.4,0.4-0.9,0.3-1.4
	c0-4.5,0.1-9,0-13.6c0-1.6,0.9-3,1-4.5c0.1-0.2,0.3-0.4,0.5-0.4c0.2,0,0.4,0.3,0.4,0.5c0.5,1.4,0.8,2.8,1,4.3
	c0.1,2.2,0.4,4.4,0.8,6.5C142.4,157.5,142.1,159.9,142.1,162.4z"/>
<path class="st0" d="M179.1,135.3c1.2-0.8,2.4-1.5,3.8-1.9c3.8-1.2,7.8-1.7,11.6-2.5c1.6-0.2,3.2-0.2,4.8-0.1
	c0.6,0.1,1.3-0.1,1.7-0.6c0.2-0.3,0.5-0.4,0.9-0.3c1,0.1,2-0.2,2.7-1c1.7-1.6,4-2.4,6.4-2.2c1,0,2,0.1,3,0.1c1.3,0,2.4,0.6,3.1,1.7
	c-1.8,0.5-3.6,0.2-5.3,0.6c-1,0.2-2,0.7-2.8,1.4c-3.1,2.7-7,4.2-11.1,4.4c-3.4,0.1-6.6,1-10,1c-2.6,0-5.1,0-7.7,0.1
	C179.8,135.8,179.4,135.6,179.1,135.3z"/>
<path class="st0" d="M218.1,113.1c0.4-0.8,1.2-1.3,2.1-1.3c5,0.3,9.8-0.8,14.8-1c3.6-0.1,7-1,10.6-1.1c2.6-0.1,5.1,0,7.7,0.1
	c1.3,0,2.4,0.9,3.7,1.1s2.9,0.8,4.4,1c0.2,0,0.5,0,0.6,0.3s-0.3,0.4-0.5,0.5c-2.2,0.8-4.5,1.1-6.8,1c-11.5,0-23,0-34.5,0
	C219.4,113.8,218.6,113.6,218.1,113.1z"/>
<path class="st0" d="M173.9,155.6c0.9-1.8,2.7-2.9,4.7-2.9c2.8-0.1,5.5-0.9,8.3-0.9c1.2-0.1,2.5,0,3.7,0.4c1.1,0.4,2.5,0.2,3.5,0.7
	c1.4,0.7,2.9,0.7,4.1,1.4c0.7,0.4,0.9,1.4,1.6,1.9c0.3,0.2,0.1,0.7-0.1,1c-0.2,0.3-0.6,0.5-1,0.4c-1-0.2-1.9-0.5-2.8-1
	c-0.9-0.5-2-0.8-3.1-0.8c-0.6,0.1-1.3-0.1-1.8-0.5c-0.3-0.3-0.7-0.4-1.1-0.3c-2.4,0-4.7,0-7.1,0c-1.6,0-3,0.8-4.6,0.9
	C176.8,155.8,175.3,155.8,173.9,155.6z"/>
<path class="st0" d="M295.7,154.7c-0.8,0-1.5-0.2-2.1-0.7c-1.2-0.7-2.6-1-4-0.6c-2.6,0.6-4.9,2.2-7.7,2.5c-1.4,0.3-2.7,0.7-4,1.3
	c-0.9,0.4-1.9,0.5-2.9,0.4c-0.4-0.1-0.8,0-0.9-0.6s0-1,0.5-1.1c1.6-0.6,2.8-1.9,4.7-2.2c1.6-0.3,3.2-0.8,4.6-1.6
	c2.1-0.9,4.3-1,6.4-1.9c0.7-0.3,1.7,0.2,2.5,0.5c1.5,0.4,3.1,0.9,3.9,2.4c0.2,0.4,0.6,0.8,0.4,1.3S296.1,154.7,295.7,154.7z"/>
<path class="st0" d="M226.5,200.9c0.5,0.5,0.6,1.3,0.1,1.8c0,0,0,0,0,0c-0.3,0.4-0.4,0.9-0.4,1.4c-0.1,1,0.5,1.6,1.3,1.3
	c2.3-0.7,4.5,0.1,6.7,0.2s4.5,0.1,6.7-0.9c0.7-0.3,1.2-0.6,1-1.4c-0.1-0.2-0.1-0.4,0-0.6c0.2-0.4-0.4-1.2,0.4-1.1s1.6,0,1.6,1.3
	c-0.1,2.6-1.1,3.9-4.1,4.9c-2.7,0.9-5.4,1.5-8.2,0.2c-1.1-0.3-2.3-0.4-3.4-0.2c-0.5,0-1,0-1.4,0c-2.5-0.1-3.6-2.3-2.3-4.4
	C225,202.4,225.7,201.6,226.5,200.9z"/>
<path class="st0" d="M246.4,221.7c-1.8,0.2-3.7,0.1-5.4-0.4c-3.1-0.8-6.3-0.6-9.4-0.5c-5.9,0-11.8,0-17.6,0c-0.3,0-0.7,0-1,0.2
	c-2.3,1.1-4.7,0.8-7.1,0.6c-0.2,0-0.6,0.1-0.6-0.4s0.3-0.3,0.6-0.3c4.5,0,8.9-1.7,13.4-1.1c6.1-1.3,12.2,0.1,18.4-0.1
	c3.9-0.1,7.6,1,11.4,1.1c0.4,0,0.9,0,0.9,0.6s-0.6,0.3-1,0.4C248,221.7,247.2,221.7,246.4,221.7z"/>
<path class="st0" d="M227.4,224.7c3.4,0.1,6.7,0.9,9.7,2.3c1,0.6,1.9,1.2,2.7,2c0.2,0.1,0.2,0.3,0.1,0.4c0,0,0,0,0,0.1
	c-0.2,0.3-0.4,0.1-0.6,0.1c-0.9-0.3-1.7-0.6-2.6-0.9c-3.4-1.4-7-0.9-10.5-1.1c-3-0.1-5.6,1.1-8.3,1.8c-0.6,0.1-1.4,0.6-1.6-0.1
	s0.6-0.8,1.1-1.1c2-1.4,4.3-2.3,6.7-2.7C225.3,225.2,226.5,224.5,227.4,224.7z"/>
<path class="st0" d="M252.4,222.7c-0.5-0.3-1.4,0.4-1.4-0.5c0-0.7,0.9-0.4,1.4-0.3s1.3-0.3,1.3,0.4S252.9,222.4,252.4,222.7z"/>
<path class="st0" d="M205.7,356.3c-0.6-1.9-2-3.5-1.6-5.5c0-0.2,0-0.4-0.1-0.6c-1.5-2.8-1.9-5.9-2.6-8.9c-0.8-3.2-1.5-6.4-2.1-9.7
	c-0.4-2.1-0.6-4.2,0.6-6.2c0.2-0.3,0.2-0.6,0.2-0.9c-0.2-2.6,1.2-4.5,2.9-6.2c0.2-0.2,0.5-0.6,0.9-0.4s0.1,0.6,0,0.9
	c0,0.7-0.5,1.4,0.1,2c0.3,0.3,0,0.7-0.3,0.9c-0.5,0.4-0.7,1.1-0.3,1.7c0.1,0.1,0.1,0.1,0.2,0.2c0.6,0.5,0.7,1.3,0.2,1.9c0,0,0,0,0,0
	c-0.3,0.4-0.1,0.8-0.1,1.1c0.4,2.3,0.7,4.6-0.2,6.8c-0.1,0.3-0.1,0.6,0,0.9c1,2.1,0.6,4.4,0.7,6.6c-0.1,0.6,0.1,1.2,0.5,1.6
	c0.4,0.3,0.5,0.8,0.4,1.3c0,2,0.2,3.9,0.6,5.8C206,352,206,354.2,205.7,356.3z"/>
<path class="st3" d="M287.9,167.7c1,0,1.7,0,2.4,0c1.5-0.1,2.8,0.8,3.3,2.2c0.6,1.6,0.6,3.4-0.2,5c-0.8,1.7-1.8,3.4-3,4.9
	c-0.2,0.3-0.4,0.7-0.5,1.1c-0.2,0.5,0,0.7,0.5,0.8c1.9,0.4,2.5,1.2,2.5,3.2c0.1,3.2-0.9,4.5-3.9,5c-2,0.1-3.9-1.2-4.4-3.1
	c0-0.4,0.1-0.8-0.5-0.9s-1-0.2-1.3,0.3c-0.2,0.4-0.6,0.7-1,0.6c-1,0-1.4,1.1-2.4,1.3c-1.1,0.2-2.1,0.6-3.1,1
	c-1.9,0.6-3.9,0.5-5.7-0.3c-1.4-0.5-3.4-3.9-2.1-5.6c0.2-0.2,0.3-0.4,0.3-0.6c0.2-1.9,1.2-3.7,2.7-5c0.2-0.2,0.5-0.5,0.6-0.7
	c2-2.9,4.7-5.3,7.9-6.9C282.7,168.7,285.3,167.2,287.9,167.7z"/>
<path class="st3" d="M173.9,166.7h1.6c1.9,0.1,3.3,1.7,3.2,3.5c0,0.2,0,0.4-0.1,0.6c-0.4,1.8-0.5,3.7-1.6,5.4
	c-0.5,0.8-1.1,1.6-1.7,2.3c-0.4,0.5-0.9,1,0.4,1.2c2.2,0.5,3.6,2.6,3.3,4.9c-0.3,2.5-0.9,3.1-3.6,3.7c-1.7,0.1-3.4-0.7-4.3-2.3
	c-0.1-0.2-0.2-0.3-0.2-0.5c-0.4-1.5-0.4-1.5-1.6-0.7c-1.7,1.1-3.5,2-5.3,2.6c-2.8,0.9-6.1,0.6-6.8-2.5c-0.3-1.1-0.3-2.2,0-3.3
	c1.3-4.5,4.1-8.5,7.8-11.3C167.7,168.3,170.4,166.1,173.9,166.7z"/>
</svg>
