<svg id="Camada_1" data-name="Camada 1" xmlns="http://www.w3.org/2000/svg" viewBox="0 0 500 500"><defs><style>.cls-1{fill:#020201;}.cls-2{fill:#cacaca;}.cls-3{fill:#dfac39;}.cls-4{fill:#d4a436;}.cls-5{fill:#b38b2e;}.cls-6{fill:#100c04;}.cls-7{fill:none;stroke:#dfac39;stroke-miterlimit:10;stroke-width:11px;}</style></defs><rect class="cls-1" width="500" height="500"/><path class="cls-2" d="M74.76,428.29c1.83-.66,3.44-.36,3.26,1.85-.15,1.8-1.7,2-3.27,1.32C74.76,430.4,74.76,429.35,74.76,428.29Z"/><path class="cls-2" d="M74.74,110.73c1.59-.87,3.07-.51,3.26,1.24.25,2.32-1.46,2.42-3.22,1.93C74.77,112.84,74.75,111.79,74.74,110.73Z"/><path class="cls-2" d="M427,472.14c-1.36.73-2.84.84-2.89-1s1.53-1.71,2.88-1.19C427,470.66,427,471.4,427,472.14Z"/><path class="cls-2" d="M427,154.57c-1.44.81-2.9.59-2.91-1.11s1.47-1.89,2.9-1.18C427,153,427,153.8,427,154.57Z"/><path class="cls-2" d="M74.78,224.25c2.09.82,2.46,1.74.14,2.79C74.88,226.11,74.83,225.18,74.78,224.25Z"/><polygon class="cls-2" points="74.25 274.13 74.44 274 74.25 273.86 74.25 274.13"/><path class="cls-3" d="M204,40c-35.29,12-34.92,45.91-25.47,73.17,1.05,3.05,2.12,5.73.1,8.89-.72,1.14-.07,3.16,0,4.77a17.77,17.77,0,0,0,4.17-.5c6.88-2.55,13.79-4.87,21.21-5.15l0,1.74c-19.82,2.46-34.46,13.4-46,28.88-23.92,32.11-36.81,69.25-49.27,106.77C104.25,272.09,95.66,284.2,89,296.94l-1.17-1.31c12.25-32.77,24.67-65.48,36.66-98.35,4.7-12.89,8.44-26.13,12.61-39.21l-.12.14c6.83-11.5,3.69-24.63,5.94-36.89s4.28-24.56,8.69-36.31C160.82,60.26,179,45.64,204,38.73Z"/><path class="cls-3" d="M309.28,43.85c26.76,11.87,41,34.2,44.84,61.48,8.63,61.08,31.3,117.4,54.6,173.69,2.16,5.22,4,10.6,5.93,15.9l-1.75.09c-19.37-26.24-25.07-58.26-37-87.64C368.51,189.31,359.69,172,348.44,156c-15.7-22.38-36.77-34.07-64.36-33.38,0-.49,0-1-.07-1.48,11.84-1.25,23.17.81,34.18,5.15a19.28,19.28,0,0,0,4.21.67c.1-1.46.83-3.36.18-4.3-2.75-4-.67-7.53.5-11.25C328,95.72,330.49,80,324.23,64,321,55.86,315.32,49.7,308,44.94Z"/><path class="cls-4" d="M266.63,429.4c0-10.16.16-20.32-.09-30.47-.09-3.78.7-5.19,4.85-5.1,13.49.28,27,.08,40.47.12,11.2,0,19.3,5.17,23.14,15.68,3.77,10.32.86,19.29-7.41,26.51-.72.63-1.36,1.35-2,2a12.5,12.5,0,0,0,3.11.87q16.74.09,33.47,0a16.35,16.35,0,0,0,3.2-.64c-.62-.93-1.21-1.88-1.86-2.78-5.25-7.18-13.76-12.55-11.9-23.5s9.56-18,20.46-18.15c13-.14,26,.07,39-.11,3.3-.05,4.16.95,4.21,4.2.32,20,.4,19.94-19.35,20-4.11,0-8.22.24-12.33.37,2.31,3.52,4.29,7.34,7,10.5,6.49,7.52,9.84,15.48,4.84,25.06S382,465.31,372.14,465.14c-16.82-.3-33.66-.6-50.45.09-12.12.51-16.85-9.37-24.57-15.13l-2.71-2c-.27.88-.93,1.83-.76,2.61,3.14,14.29-4.74,14.8-16,14.75-9.47-.05-12.18-2.44-11.19-11.62C267.31,445.8,266.63,437.56,266.63,429.4ZM348.22,461c9.83,0,19.66.14,29.48,0A15.14,15.14,0,0,0,392,451.62c2.58-5.67,2.5-11.19-1.81-16.35-3.51-4.21-6.59-8.79-9.9-13.18-1.29-1.71-2-3.48-1-5.53s2.84-2.59,5-2.58c7.67,0,15.34-.24,23,.1,4.93.22,4.37-3.22,3.6-5.5-1.2-3.51,4.32-10.05-3.56-10.43-11.8-.57-23.65-.25-35.48-.1-7,.09-12.17,3.44-14.87,9.89-2.58,6.14-2.2,11.93,2.79,17.06a110.77,110.77,0,0,1,9,10.71c2.47,3.3,1.55,7-2.4,7.12-13.64.49-27.31.38-40.95-.11-2.21-.07-5.29-2.86-6.21-5.11-1.08-2.64,2.79-2.3,4.32-3.42,7.61-5.56,10.58-13,8.12-21.87s-9-14-18.36-14.23c-12.66-.33-25.33.08-38-.19-3.91-.08-4.65,1.24-4.62,4.82.17,17.33.32,34.66-.07,52-.12,5.42,1.74,5.89,6.59,6.53,10.68,1.4,14.37-2.43,12.43-12.72a31.86,31.86,0,0,1,0-6.48c0-1.14.23-2.26.35-3.39,1,.64,2.34,1.06,3,2,13.19,17.71,30.82,23.91,52.28,20.38A21.4,21.4,0,0,1,348.22,461Z"/><path class="cls-4" d="M114.19,363.85c7.49.06,15,.15,22.47.15a15.62,15.62,0,0,0,3.18-.65,31.61,31.61,0,0,0-1.76-2.82c-6-7.7-15-14-11.32-26,2.9-9.51,9-15.4,19-15.49,31.65-.29,63.29-.1,94.94-.2,2.78,0,3.63.79,3.75,3.64.84,20.5.88,21-19.33,20.27-8.57-.3-11.45,1.64-10.68,10.57.93,10.75.11,21.64.29,32.46.05,3.21-.81,4.23-4.17,4.28-21.83.36-21.79.44-21.84-21.47,0-8.29,3-20.05-1.23-23.95-4.64-4.31-16-1.45-24.38-1.64a43.24,43.24,0,0,0-4.8.44c.88,1.48,1.83,2.92,2.62,4.44,3.84,7.33,12,12.32,11.41,22.06-.6,11.06-8.65,19.82-19.69,20-21,.24-42,0-63,.14-2.75,0-4.12-.71-3.67-3.62,0-.16,0-.34,0-.5,1.18-7.24-3.9-17.17,2.29-21.17,5.32-3.43,14.53-.84,22-.91ZM191.53,323c-15,0-30-.08-44.95,0-7,.05-12.11,3.42-14.91,9.83-2.68,6.15-2.24,11.91,2.7,17,3,3.11,5.61,6.58,8.41,9.88,1.46,1.71,2.65,3.43,1.42,5.83s-3.23,2.56-5.49,2.55c-12.81,0-25.67.62-38.44-.23-8.53-.56-12.08,1.85-10.06,10.32.62,2.62-3,7.57,3,7.62,20.14.18,40.29.22,60.42-.1,6.08-.1,10.71-3.71,13.13-9.36,2.35-5.49,2.42-10.9-1.74-15.92-3.28-4-6.21-8.23-9.26-12.39-1.35-1.85-3.18-3.55-1.94-6.25s3.73-2.89,6.32-2.88c9.32,0,18.65.17,28-.07,3.65-.1,4.89.84,4.82,4.67-.24,12.82,0,25.64-.16,38.46,0,3,.91,3.6,3.88,4.07,11,1.74,16.44-1.54,14-13.59-.58-2.88-.08-6-.08-9,0-24.47,0-24.47,24.67-24.56.33,0,.67,0,1,0,8.64-.68,2.62-7.13,4-10.66,1.1-2.85.54-5.56-4.2-5.45C221.17,323.15,206.35,323,191.53,323Z"/><path class="cls-4" d="M102.18,393.94c10.58-3.89,13.63,3.94,15.54,13.34a17,17,0,0,0,1.6,3.55c.57-1.07,1.23-2.09,1.7-3.2,1.93-4.51,3-12.16,5.85-12.94a46.67,46.67,0,0,1,22.68-.22c5,1.26,3.95,9.13,6.41,13.69.53,1,1,2,1.57,3,.45-1,.95-2,1.34-3.08,1.71-4.63,2.52-12.55,5.24-13.26,7.33-1.93,15.46-.86,23.27-.82,2.78,0,1.48,2,1.08,3.23-7.05,21.66-13.77,43.44-21.43,64.89-2.34,6.53-9.39,1.61-14.12,2.85-2.53.67-4.64.09-5.62-3.17-2.19-7.33-4.8-14.52-7.29-21.76a37.13,37.13,0,0,0-1.58-3.39,36.79,36.79,0,0,0-1.65,3.55c-1.88,5.33-4.26,10.57-5.38,16.06-1.45,7.15-4.88,9.26-12.22,9.11-6.73-.14-9.63-1.78-11.58-8.49-5.38-18.51-11.42-36.86-17.93-55-2.49-7-1.39-9.16,5.9-8C97.18,394.16,98.88,393.94,102.18,393.94Zm.92,4.06c-10.23,0-10.23,0-7.27,9.05,5,15.33,9.93,30.69,15,46,1.23,3.69.87,8.08,7.53,8.28,6.89.2,8.21-3.22,9.75-8.29,2.5-8.27,5.45-16.4,8.29-24.56a36.38,36.38,0,0,1,2.14-4.34c.57,1.38,1.21,2.73,1.69,4.13,3.39,9.91,6.91,19.78,10.06,29.76,1.49,4.71,5,2.64,7.81,2.87,2.41.2,5.1,1,6.32-2.85,5.95-18.86,12.23-37.62,18.3-56.45.33-1,1.64-2.36-.17-3.45-4.84-2.93-16.57,1.06-18.28,6.18-2.2,6.57-4.52,13.11-6.79,19.66-2.4-6.53-4.67-13.12-7.29-19.55-1-2.33-.21-6-4.26-6.42-10.61-1-20.54-1.37-22,13.27-.44,4.28-2.93,8.35-4.48,12.51-1.61-4.27-2.92-8.68-4.9-12.77C111.84,405.45,114,395,103.1,398Z"/><path class="cls-4" d="M380.85,322.51c13.92,14.74,14,22.77.29,39.38a7.73,7.73,0,0,0-.8,1.54,14.2,14.2,0,0,0,2.75.58c9.16,0,18.32.15,27.48,0,3.27-.07,4.61.53,4.64,4.28.23,21.75.3,20.95-21.54,22-17,.83-32.07-1-42.79-15.95-.48-.66-1.55-.9-2.35-1.34a8.79,8.79,0,0,0-.33,2.83c2.9,13.2-3.53,15-15.11,14.64-9.63-.26-12.82-2-12.25-12.23,1-18.27.26-36.63.31-54.95,0-1.79-.92-4.49,2.44-4.3,18.36,1.06,36.93-2.57,55.13,2.31ZM325.18,354.3q0,14,0,28c0,1.89-.16,3.36,2.63,3.7,15.53,1.92,16.26,1.37,16.27-14.05,0-1.5-.05-3,0-4.5.06-1.28.24-2.56.37-3.84,1.16.75,2.66,1.25,3.44,2.29,12.87,17.18,29.9,23.62,50.91,20a1.4,1.4,0,0,1,.5,0c9.47,1.83,13.25-1.34,12-11.54-.62-5.21-1.68-6.67-6.78-6.38-7.64.43-15.32.08-23,.1a8.43,8.43,0,0,1-7.75-5.46c-1.08-2.61,2.94-2.47,4.54-3.7,7.25-5.55,10.36-12.7,7.9-21.5-2.58-9.21-9.17-14.21-18.73-14.42-12.82-.28-25.65,0-38.48-.14-3,0-4,.84-3.95,3.94C325.3,336,325.18,345.14,325.18,354.3Z"/><path class="cls-3" d="M288.19,246.32l4.41,8.61c-3,.11-5.92.31-8.89.31q-33.13,0-66.28-.07c-2.3,0-4.6-.2-6.89-.31,1-2.17,2-4.37,3.15-6.51.76-1.47,1.66-2.87,2.51-4.29l1.51-.08.58,1,.79-1v.12c4.06.5-.51,10.11,6.09,6.6,4.55-2.41,1.32-8.4,1.52-12.72.24-5.23,4.13-7.42,7.18-10.2,1.64-1.49,1.32,1,1.33,1.76.1,5.94.19,11.87.05,17.81-.07,2.73.67,3.81,3.61,3.8s3.1-1.55,3.09-3.77c0-8.33,0-16.66,0-25,0-2.21.07-3.79,3.07-3.8s3.22,1.3,3.19,3.65q-.14,11.75,0,23.48c0,2.34-1.3,5.38,3.4,5.46,4.55.09,3.6-2.7,3.61-5.2.05-7.82.12-15.65,0-23.48,0-2.58.41-4,3.5-4s3,1.74,3,3.89c0,8.33.05,16.65.09,25,0,1.8-.38,3.67,2.59,3.67,2.67,0,3.48-1,3.39-3.52a108.8,108.8,0,0,1,.08-12c.2-2.68-1.25-5.65,1.08-8,2.51,3,6.65,4.81,6.94,9.33.19,3-.26,6,0,9,.15,1.9-1.66,4.84,2.47,5.24s3.62-2.07,3.72-4.63c0-.52,1.2-1,1.84-1.51l2.06,1.05-.07-.14,1,1.72C288.47,248.33,288,247,288.19,246.32Z"/><path class="cls-4" d="M276.62,318.91c12.36-4.39,17.47,3.31,20.83,16.44,4.39,17.21,10.81,33.91,16.5,50.78,1,3,.83,4.13-2.71,3.93a94.57,94.57,0,0,0-14.48,0c-5.25.53-8.66-.68-9.32-6.44-.25-2.25-1.69-2.86-3.86-2.8-5.33.13-10.68.3-16,0-4-.26-6.43.7-6.85,5-.48,4.83-4,4.26-7.35,4.25-19.56-.06-19.57,0-13.64-18.41,4.59-14.26,9.83-28.35,13.57-42.82,2.11-8.18,5.69-11.47,13.91-9.95C269.49,319.26,271.88,318.91,276.62,318.91Zm-2.14,57.82c4.84,1.24,13.61-2.59,14.85,1.65,3.06,10.46,10.2,6.89,16.41,7.54,3.16.33,3.61-.77,2.61-3.69-4.08-12-7.94-24-11.88-36-7.72-23.52-7.72-23.42-32.48-23.39-3.63,0-4.81,1.42-5.78,4.5-5.35,17-11,33.85-16.23,50.84-.74,2.37-3.79,6.56-1,7.22,4.88,1.15,14.11,2.54,14.92-.57C259,373.13,267.44,377.85,274.48,376.73Z"/><path class="cls-4" d="M221.43,393.94c12.73-4.67,17.37,3.78,20.73,16.6,4.46,17,10.64,33.58,16.34,50.25,1.29,3.77.48,4.56-3.23,4.33a93.16,93.16,0,0,0-13.47,0c-5.21.45-9.13-.32-9.71-6.53-.22-2.36-1.88-2.73-4-2.7-6,.09-12,0-18,0-1.48,0-2.89-.18-3.79,1.59-1.27,2.51-.26,7-3.91,7.31a193.08,193.08,0,0,1-22.44,0c-2.12-.08-.84-2.11-.5-3.18,6.94-21.58,14-43.12,20.86-64.71.72-2.26,1.78-3.2,4.22-3.11C209.43,394.06,214.26,393.94,221.43,393.94Zm-2.36,4.78c-12.56-4.66-16.55,2.34-19.36,13.13-3.76,14.45-9.1,28.48-13.51,42.77-.58,1.88-3.43,5.89-.34,5.91,5.24,0,12.68,4.12,15.66-2.27,2.43-5.23,4.69-6.85,10-6.47,6.29.45,12.64,0,19,.16,1.35,0,3.83.59,3.88,1.11,1.13,10.5,9,7.54,15.29,8,3.75.25,4.49-.69,3.24-4.33-5.11-14.93-10.61-29.77-14.69-45C235.37,401.12,231.45,394.31,219.07,398.72Z"/><path class="cls-4" d="M270.66,287.72a10,10,0,0,0-7.76.22L258,289.85c1.52.72,3.09,1.35,4.55,2.19a16.3,16.3,0,0,1,2.32,2c-1,.13-2.22.68-3,.33-6.72-2.93-13.38-3.44-20.17-.21-1,.49-2.51,1.55-3.35-.25a10.27,10.27,0,0,1,2.82-1.88c1.45-.68,3-1.14,4.51-1.7-1.57-.74-3.09-1.93-4.73-2.15-6.49-.88-13-1.4-16.52,6-1.11,2.33-1.74.15-2.19-.36-5.67-6.3-11.33-12.6-16.82-19.05a5.56,5.56,0,0,1-1-4c.28-2,2.19-1.61,3.65-1.61,6.31,0,12.62,0,18.93.08a.86.86,0,0,0,0,.65c4.57,5.33,10.08,4.43,15.77,2.38l.81,1.07c-.69,1.17-4.16.31-2.79,2.43,3.19,4.92,18.7,3.5,21.81-1.7l1.42-1c4.72,1.58,8.66.23,12-3.22a.57.57,0,0,0,0-.54c6.62,0,13.25-.15,19.87-.08a16.52,16.52,0,0,1,4.06,1.12c-.57,1.44-.83,3.15-1.78,4.28q-6.09,7.21-12.54,14.13c-2.49,2.68-4.8,9-8.64,1v-1.47c3.15-.34,1.38-2.86,1.94-4.36a2,2,0,0,0,.34-.26s-.1-.16-.15-.24l-.07.58c-2.87-.05-5.83-.37-7.65,2.63Zm-46.82-3.66.24-.61c-.11.05-.3.12-.3.15a1.68,1.68,0,0,0,.17.42c.83,1.36-1,4.72,2.68,3.88a25.73,25.73,0,0,0,4.74-2.09C229,284.48,226.68,283.15,223.84,284.06Zm6.23-7.78c-3.17-3.79-7.4-4.63-12-3.94-1.22.18-3.19.82-2.37,3,1.53,4,5.09,3.55,8.38,3.61,4.11,4.89,17.6,6.37,21.86,2.52,1.49-1.34.31-1.5-.56-1.78-5-1.6-9.86-4.39-15.39-2ZM271.92,275c-.32.89-.65,1.77-1,2.65-4.95-2-9,1.2-13.4,2.33-1.71.44-1.16,1.28-.05,1.79,7,3.2,13.86,3.6,20.21-1.66l1.85-.48c3.53,1.07,6.05-.74,8.29-3.07a2,2,0,0,0-.11-1.92c-2.59-1.95-5.4-3.07-8.74-1.84C276.68,273.62,274.28,274.25,271.92,275Zm-20.43,14,9.84-3.62c-3.07-1.11-6.14-3.13-9.19-3.08-3.28,0-6.53,2-9.79,3.17Z"/><path class="cls-4" d="M263.66,118.11c-.67,4.11,3.16,10.12-1.16,12-7.21,3.21-15.44,2.31-23.17,0-.58-.17-1.12-1.69-1.1-2.57.62-25.62-.32-51.3,2.48-76.84a12.67,12.67,0,0,1,.92-2.7c.2.92.48,1.82.6,2.75,2.86,22.84-1.8,45.52-1.55,68.31a37.12,37.12,0,0,0,.76,5.19c.22-1.78.5-3.55.64-5.34.11-1.32,0-2.66.08-4,.22-13.42,2.14-15.22,15.72-12.67,5.39,1,2.3,6.28,3.18,9.57C262.38,113.78,257.44,118.28,263.66,118.11Z"/><path class="cls-3" d="M242.21,195.92c.13-7.79,2.84-12.76,9.1-12.57,6.42.19,8.83,5.34,8.94,11.66s-2.87,9.24-9,9.08C244.85,203.93,241.63,200.84,242.21,195.92Z"/><path class="cls-4" d="M302.87,189.05c-9.87-2.16-21.59-5.61-32.23-12.05-1-.6-1.5-2-2.23-3,1.09.14,2.19.21,3.26.44,12.52,2.61,25.05,5.16,37.53,7.92,2.49.55,4.79,1.93,7.18,2.93-2.08,2.73-5.16,3.3-8.26,3.75C307.14,189.17,306.13,189.05,302.87,189.05Z"/><path class="cls-4" d="M198.83,189.23c-5.21-.61-9.45-.61-12.38-4.25,3.16-1.08,6.24-2.5,9.49-3.19,12.17-2.61,24.39-5,36.6-7.4a6,6,0,0,1,2,.33c-.72.87-1.27,2-2.19,2.57C221.65,183.63,209.86,186.84,198.83,189.23Z"/><path class="cls-5" d="M186.3,196.39c11.86-3,24.83-6.39,37.82-9.69a22.09,22.09,0,0,1,4.44-.62c1.47-.06,3.72-.05,3.4,1.83-.47,2.77-1.8-.37-3-.06-9.49,2.41-19.06,4.51-28.59,6.77-2.58.62-5.18,2.34-7.63,2.09-13.88-1.38-11.2,5.22-7.88,14s4.88,18.24,7.1,27.43c.21.89-.43,2-.67,3a9,9,0,0,1-1.15-2.44,132.22,132.22,0,0,0-10.82-36.17C176,195.47,179.45,195,186.3,196.39Z"/><path class="cls-5" d="M277.68,185.93c7.85,2.26,17.73,5.13,27.64,7.93,2.71.76,5.59,2.07,8.24,1.76,13.44-1.52,11.81,4.44,7.69,13.39A102.33,102.33,0,0,0,313,238.72a9.66,9.66,0,0,1-1.09,2.51,9,9,0,0,1-.68-2.91c1.47-12.66,5.69-24.59,10-36.49.72-2,2-4.4-1.89-4.45-14.36-.18-27.41-6.62-41.36-8.71-1.15-.18-2.62,0-3.36-.72-1.43-1.28-3.15,3.09-3.5,0C270.81,185.63,273.67,186.14,277.68,185.93Z"/><path class="cls-5" d="M266.4,191.49c-.94,3.83.51,7,2.47,10.27,9.14,15.46,18.08,31.05,27,46.62a8.86,8.86,0,0,1,.58,2.63,13.12,13.12,0,0,1-1.62-1.81c-10-16.89-20.06-33.74-29.79-50.78-1.27-2.22-1-5.47-1-8.24C264,180.11,254.68,174,245.39,178a21.06,21.06,0,0,1-2.67.77c.7-.79,1.25-1.87,2.12-2.34,4.71-2.56,9.39-2,13.7.89C263.53,180.63,268.21,184.29,266.4,191.49Z"/><path class="cls-5" d="M263.66,118.11c-6.22.17-1.28-4.33-2.6-6.2,2.29-6,.67-12.08.51-18.12-.35-13.63-1-27.25-1.25-40.87,0-1.7-1.17-4,1.07-5.34.5,1.73,1.4,3.45,1.42,5.18C263.17,74.54,263.4,96.32,263.66,118.11Z"/><path class="cls-4" d="M202.83,254.53c1.54,3.18,2.38,6.42-.86,9a7,7,0,0,1-8.81.31c-3.08-2.16-4.18-5-1.88-8.59a2.66,2.66,0,0,0,0-2c-.62-1.8-4.82-3.38-1.36-5.29,3.28-1.81,6.45-.76,7.6,3.94.31,1.26,3.48,1.83,5.34,2.72Z"/><path class="cls-5" d="M241.73,180.82c-.18,15.47-9.46,26.89-16.61,39.19q-7.76,13.37-15.65,26.65a14,14,0,0,1-2.19,2.3,13.7,13.7,0,0,1,.93-3.13c8.31-14.39,16.33-29,25.21-43,3.55-5.61,3.16-11.27,3.59-17.15a6.63,6.63,0,0,1,4.08-5.79C241.16,179.87,241.51,180.49,241.73,180.82Z"/><path class="cls-5" d="M188.32,141.37c15.32-12.51,35.26-12.28,50.13.62a10.29,10.29,0,0,1,1.4,1.95c-2.62,0-5.41.5-7.81-.25-1.53-.48.54-1.05,1-1.57,2.36-2.73-1-2.91-1.89-3.41-14.69-7.85-28.55-4.86-41.92,3.54Z"/><path class="cls-5" d="M264,273.1l-1.42,1c-6.26-2.21-12.58-3-19-.73l-.81-1.07,2.76-1.73c-.93-.11-1.85-.3-2.78-.32-5.25-.13-10.5-.22-15.75-.33a.86.86,0,0,1,0-.65l49.11,0a.57.57,0,0,1,0,.54c-3.79.08-7.59.13-11.38.26-1.55.06-3.09.31-4.64.48Z"/><path class="cls-5" d="M251.47,155c9.39-1.82,8.64,7.77,13.21,11.34.17.14-.1.85-.17,1.3a12.34,12.34,0,0,1-2.27-1.4c-3-2.89-3.44-8-8.47-9.14-7.37-1.68-9.65,4-12.84,8.48-.62.88-.84,2.73-2.74,2a11.3,11.3,0,0,1,1.21-2.89C242.73,160.38,243.37,152.72,251.47,155Z"/><path class="cls-5" d="M309.28,43.85,308,44.94c-12-5.66-24.67-8.81-37.6-11.24a11.3,11.3,0,0,1-2.58-1.24,10.4,10.4,0,0,1,2.47-.16C283.77,34.59,297,37.55,309.28,43.85Z"/><path class="cls-5" d="M204,40l0-1.31c8.66-3.49,17.78-5.08,26.94-6.55a10.17,10.17,0,0,1,2.44.19,9.3,9.3,0,0,1-2.29,1.32C222.05,35.85,213,37.94,204,40Z"/><path class="cls-5" d="M204,123l0-1.74a54.24,54.24,0,0,1,20.66,1,5.45,5.45,0,0,1,1.58,1.07,6.71,6.71,0,0,1-1.92.55C217.52,123.58,210.76,123.26,204,123Z"/><path class="cls-4" d="M316.13,248.4c-2.34,2.2-3.62,4.36-5.31,4.76a5.41,5.41,0,0,1-5.72-2.93c1.89-1.08,3.69-2.51,5.72-3.09C312.05,246.79,313.66,247.75,316.13,248.4Z"/><path class="cls-5" d="M217.71,244l-1.51.08c2.77-4.9,5.51-9.81,8.33-14.67a18.24,18.24,0,0,1,2.16-2.52,28.94,28.94,0,0,1-.81,3.11c-1.89,4.91-6.43,8.55-6.8,14.19v-.12Z"/><path class="cls-5" d="M257.71,301.38c-2.09.72-4.23,2.14-6.24,2-1.8-.15-3.45-2-5.16-3.17.68-.13,1.61-.62,2-.34C251.21,302,254.53,299.89,257.71,301.38Z"/><path class="cls-5" d="M238,209.05l-6,9.72c-.22-.34-.7-.83-.6-1,1.92-3.22,3.91-6.41,5.88-9.6Z"/><path class="cls-5" d="M288.19,246.32c-.24.63.28,2-1.3,1.34l-1-1.72.07.14L285,244l-2.64-7.12c1.48,2.1,3,4.17,4.43,6.32A22.52,22.52,0,0,1,288.19,246.32Z"/><path class="cls-2" d="M378.5,108.12c1.53,2.31,2.46,3.09,2.37,3.73s-1.13,1.28-1.75,1.92c-.66-.76-1.68-1.45-1.87-2.31S377.85,109.73,378.5,108.12Z"/><path class="cls-5" d="M271.16,193.92l3.29,3.77c-.49.19-1.2.7-1.41.54-1.2-.91-2.28-2-3.41-3Z"/><path class="cls-2" d="M416.84,257.34c-.87-.94-1.89-1.55-1.94-2.22s.85-1.44,1.34-2.17c.79.61,1.88,1.07,2.25,1.87C418.68,255.24,417.59,256.25,416.84,257.34Z"/><path class="cls-2" d="M224.56,29.89c-1.47.68-2.33,1.4-3.16,1.36s-1.46-.91-2.19-1.41c.61-.78,1.1-1.84,1.9-2.21C221.51,27.44,222.5,28.49,224.56,29.89Z"/><path class="cls-2" d="M112.36,48.9l-2.08-2.24,2.21-2c.57.66,1.55,1.3,1.59,2S113.13,47.93,112.36,48.9Z"/><path class="cls-2" d="M347.9,49.57c.85,1,1.89,1.61,1.9,2.28s-1,1.42-1.51,2.14c-.76-.67-1.79-1.21-2.14-2.05C346,51.54,347.11,50.6,347.9,49.57Z"/><path class="cls-2" d="M354.92,193.32c-1.14.74-2,1.68-2.62,1.57a1.81,1.81,0,0,1,.31-3.61C353.28,191.3,353.93,192.38,354.92,193.32Z"/><path class="cls-2" d="M81,195.1c-.93.81-1.6,1.83-2.23,1.81s-1.34-1-2-1.58c.66-.74,1.21-1.7,2-2.11C79.11,193.07,80.07,194.26,81,195.1Z"/><path class="cls-2" d="M416.61,172c-1,.84-1.9,2-2.26,1.84-.86-.35-1.45-1.34-2.15-2.06.69-.57,1.37-1.56,2.09-1.59S415.62,171.19,416.61,172Z"/><path class="cls-2" d="M116.3,255.22c-1.06.86-1.73,1.84-2.4,1.84a2.43,2.43,0,0,1-1.82-1.59,2.47,2.47,0,0,1,1.57-1.89C114.32,253.5,115.11,254.43,116.3,255.22Z"/><path class="cls-2" d="M224,346.94c-1.43,1-2.17,2-2.83,1.91s-1.32-1.06-2-1.66c.73-.7,1.37-1.77,2.22-2C221.94,345.07,222.81,346.14,224,346.94Z"/><path class="cls-5" d="M231.58,193.92l1.32,1.44c-1.16,1-2.29,2.07-3.53,3-.18.13-.87-.44-1.32-.68Z"/><path class="cls-2" d="M147.32,315c-1,.82-1.6,1.82-2.28,1.83s-1.38-.93-2.08-1.46c.65-.75,1.17-1.78,2-2.13C145.34,313.06,146.28,314.19,147.32,315Z"/><path class="cls-2" d="M346.91,247.93c-1.79,1.2-2.65,2.07-3,1.91-.67-.36-1.06-1.24-1.57-1.9.62-.4,1.23-1.08,1.87-1.11S345.68,247.39,346.91,247.93Z"/><path class="cls-5" d="M412.9,295l1.75-.09,1.53,5.78Q414.53,297.87,412.9,295Z"/><path class="cls-5" d="M87.78,295.63,89,296.94l-2.67,4.91Z"/><path class="cls-2" d="M322.52,272c-.74-.81-1.57-1.32-1.6-1.87s.69-1.23,1.08-1.85c.65.52,1.52,1,1.85,1.63C324,270.23,323.14,271.05,322.52,272Z"/><path class="cls-2" d="M113.5,304.06c-.92.69-1.69,1.6-2,1.46-.7-.29-1.17-1.14-1.73-1.76.58-.42,1.16-1.18,1.75-1.18S112.6,303.36,113.5,304.06Z"/><path class="cls-2" d="M85.21,120.9c-.7-.9-1.63-1.66-1.49-2,.3-.71,1.13-1.2,1.74-1.78.45.59,1.23,1.17,1.25,1.77S85.91,120,85.21,120.9Z"/><path class="cls-2" d="M124.76,347.35c-.91.61-1.85,1.46-2,1.32a7.84,7.84,0,0,1-1.47-2c.62-.38,1.27-1.09,1.84-1S124.05,346.58,124.76,347.35Z"/><path class="cls-5" d="M284,121.13c0,.49.05,1,.07,1.48L275.45,124l.63-1.94Z"/><path class="cls-2" d="M381.1,59.74c1.28,2.27,2,3,1.89,3.53a2.09,2.09,0,0,1-1.66,1.25A2.25,2.25,0,0,1,380,62.85C379.93,62.13,380.49,61.34,381.1,59.74Z"/><path class="cls-5" d="M278,228.32c1.75,3,2.78,4.56,3.65,6.25.21.39-.09,1.05-.16,1.59-1.09-1.56-2.22-3.1-3.24-4.71C278.05,231.05,278.19,230.41,278,228.32Z"/><path class="cls-5" d="M227.12,227.65c.12-2.06,0-2.68.21-3.07.91-1.53,1.93-3,2.91-4.47.19.4.64.95.51,1.19C229.87,223,228.86,224.66,227.12,227.65Z"/><path class="cls-5" d="M274.63,222.45a2.55,2.55,0,0,1,.28.39q1.35,3.16,2.69,6.33-1.89-3-3.79-6Z"/><path class="cls-2" d="M85.31,438.49c-.72-.78-1.56-1.29-1.6-1.85s.72-1.18,1.13-1.77c.68.52,1.36,1,2,1.55Z"/><path class="cls-2" d="M409.73,248.52c-1,.63-1.74,1.41-2.24,1.29s-1-1.06-1.42-1.65c.58-.46,1.14-1.26,1.74-1.28S408.87,247.74,409.73,248.52Z"/><path class="cls-5" d="M277,288.33v1.47l-6.37-2.08.78-1Z"/><path class="cls-5" d="M202.83,254.53l0,.09L206.3,250c.16.33.55.81.45,1C205.71,252.43,205.59,255,202.83,254.53Z"/><path class="cls-2" d="M417.7,457.18c.6.87,1.22,1.38,1.18,1.82a1.61,1.61,0,0,1-1.17,1.12,1.64,1.64,0,0,1-1.15-1.13C416.52,458.54,417.13,458,417.7,457.18Z"/><path class="cls-2" d="M368.48,228.44c-.56-.75-1.25-1.28-1.2-1.72s.79-.92,1.22-1.37c.44.45,1.18.88,1.22,1.37S369.06,227.68,368.48,228.44Z"/><path class="cls-2" d="M306.43,303.25c-.59-.66-1.35-1.21-1.27-1.49.19-.6.82-1.06,1.27-1.58.4.45,1.09.87,1.13,1.35S307,302.49,306.43,303.25Z"/><path class="cls-2" d="M316.29,290.18c-.54-.71-1.19-1.2-1.18-1.67s.72-.89,1.11-1.34c.47.5,1.13.93,1.33,1.52C317.65,289,316.86,289.54,316.29,290.18Z"/><path class="cls-2" d="M187.62,303.76c-1,.6-1.72,1.36-2.25,1.25s-1-1.07-1.45-1.65c.59-.48,1.17-1.31,1.76-1.31S186.75,303,187.62,303.76Z"/><path class="cls-2" d="M405.73,306.8c-1,.56-1.72,1.28-2.26,1.16s-1-1-1.44-1.59c.59-.46,1.18-1.28,1.76-1.28S404.86,306,405.73,306.8Z"/><path class="cls-5" d="M269.84,216.17l-2.44-5.27,3.12,4.62Z"/><path class="cls-2" d="M380.85,322.51l-2.13-1.25c0-1.67.63-3.21,2.45-2.32C383.25,320,382.55,321.45,380.85,322.51Z"/><path class="cls-5" d="M273.81,223.17c-1.17-1.59-2.94-2.92-2.4-5.3l3.22,4.58Z"/><path class="cls-5" d="M263.87,203.59c.38,2.34,3.62,3.55,2.58,6.46l-3.56-5.87Z"/><path class="cls-2" d="M419.43,141.39c-.77.58-1.28,1.26-1.72,1.22a1.72,1.72,0,0,1-1.19-1.23c0-.41.74-1.14,1.2-1.18S418.67,140.82,419.43,141.39Z"/><path class="cls-2" d="M423.09,194.4c-.57-.83-1.22-1.36-1.16-1.79s.78-.89,1.21-1.32c.43.44,1.17.84,1.22,1.32S423.71,193.57,423.09,194.4Z"/><path class="cls-2" d="M376.24,134.72c.66.59,1.49,1.08,1.43,1.3a6.29,6.29,0,0,1-1.15,1.68c-.44-.41-1.13-.76-1.24-1.24S375.78,135.5,376.24,134.72Z"/><path class="cls-2" d="M186.19,380.67c1,1.69,1.59,2.28,1.49,2.69a1.68,1.68,0,0,1-1.35,1c-.41,0-1-.81-1-1.31S185.7,381.88,186.19,380.67Z"/><path class="cls-2" d="M160.09,33.64c-.41-.88-1-1.51-.85-2s.85-1,1.31-1.53c.41.43,1.12.84,1.16,1.3S161.07,32.38,160.09,33.64Z"/><path class="cls-2" d="M126.09,140.38c-.76.54-1.28,1.18-1.77,1.16s-.86-.75-1.29-1.17c.43-.43.85-1.16,1.3-1.18S125.33,139.82,126.09,140.38Z"/><path class="cls-2" d="M122.56,32.57c-.7-1.53-1.32-2.26-1.27-2.94a2.13,2.13,0,0,1,1.34-1.56c.46-.08,1.43.7,1.54,1.24S123.61,30.54,122.56,32.57Z"/><path class="cls-2" d="M152.55,230.54c-.91.76-1.44,1.58-2,1.58s-1.12-.79-1.67-1.23c.45-.57.83-1.5,1.38-1.61S151.51,229.92,152.55,230.54Z"/><path class="cls-2" d="M219.13,473.05c-.39-1.06-.89-1.73-.75-2.24s.87-1,1.34-1.48c.42.42,1.13.81,1.17,1.26S220.28,471.52,219.13,473.05Z"/><path class="cls-2" d="M375.35,272.19c-1,.47-1.58,1-2,.9s-.73-.87-1.09-1.35c.48-.34,1-.94,1.44-.93S374.55,271.48,375.35,272.19Z"/><path class="cls-2" d="M174.26,254.06c-1,.51-1.55,1.08-2,1s-.77-.84-1.14-1.3c.46-.36.92-1,1.39-1S173.43,253.39,174.26,254.06Z"/><path class="cls-2" d="M119.05,93.42c.73.78,1.43,1.19,1.44,1.63a1.63,1.63,0,0,1-1.08,1.21,1.62,1.62,0,0,1-1.29-1C118,94.88,118.57,94.31,119.05,93.42Z"/><path class="cls-2" d="M283.57,387.69c-1-2.11-1.56-2.7-1.44-3.1a1.62,1.62,0,0,1,1.29-1,1.76,1.76,0,0,1,1,1.28C284.52,385.49,284.11,386.12,283.57,387.69Z"/><path class="cls-2" d="M137.05,158.07c-.8-.68-2.91,0-2.27-2.11a1.31,1.31,0,0,1,1-.72c2.19.26.75,2,1.11,3Z"/><path class="cls-2" d="M137.65,474.23c-.93.5-1.47,1-1.88.94s-.75-.78-1.11-1.21c.44-.36.87-1,1.32-1S136.84,473.58,137.65,474.23Z"/><path class="cls-2" d="M358.62,211c-.84.39-1.44.92-1.81.79s-1-1-.9-1.33a1.65,1.65,0,0,1,1.31-1C357.6,209.53,358,210.28,358.62,211Z"/><path class="cls-2" d="M114.19,363.85h-3.84C111.63,361.62,112.91,361.4,114.19,363.85Z"/><path class="cls-2" d="M257.82,451.64c-.38-.89-.87-1.48-.74-1.87a1.58,1.58,0,0,1,1.3-.86,1.63,1.63,0,0,1,1,1.29C259.32,450.6,258.59,451,257.82,451.64Z"/><path class="cls-2" d="M291.59,29.83c-.82.63-1.26,1.25-1.68,1.22s-.83-.66-1.24-1c.37-.4.68-1.06,1.11-1.14S290.7,29.33,291.59,29.83Z"/><path class="cls-2" d="M423.22,321.75c-.62-.75-1.26-1.19-1.23-1.58s.66-1.16,1-1.17a1.63,1.63,0,0,1,1.21,1C424.32,320.42,423.73,321,423.22,321.75Z"/><path class="cls-2" d="M209.23,301.65c-.42-.85-1-1.45-.84-1.84s1-1,1.32-.94a1.71,1.71,0,0,1,1,1.34C210.69,300.59,210,301,209.23,301.65Z"/><path class="cls-5" d="M239.06,206.08c.19-.68.37-1.37.56-2.05l.42.13c-.36.6-.71,1.21-1.07,1.82Z"/><path class="cls-5" d="M299,254.73a3.32,3.32,0,0,1-.76,0c-.07,0-.19-.33-.14-.39a3.17,3.17,0,0,1,.56-.47Z"/><path class="cls-2" d="M77.14,272.09c.58.94,1.11,1.42,1.06,1.81s-.68.78-1,1.17c-.38-.38-1-.73-1.09-1.16S76.55,273,77.14,272.09Z"/><path class="cls-2" d="M83.14,334.27c.58,1,1.11,1.42,1.06,1.83s-.67,1.07-1,1.06a1.52,1.52,0,0,1-1.08-1C82,335.72,82.57,335.22,83.14,334.27Z"/><path class="cls-6" d="M285,244l1,2.08L283.94,245Z"/><path class="cls-6" d="M276.08,122.06l-.63,1.94-.86-.85Z"/><path class="cls-6" d="M262.89,204.18l1-.59Z"/><path class="cls-5" d="M178.47,154"/><path class="cls-5" d="M297.55,252.81c-.1-.06-.23-.09-.28-.18s0-.19,0-.29l.57.17A2.76,2.76,0,0,1,297.55,252.81Z"/><path class="cls-5" d="M239,206l-.36.8-.32-.56.77-.14Z"/><path class="cls-5" d="M189.22,142.25c-9.6,9.93-14.3,24.36-14.47,32.94-2.62-15.8,8.91-30.08,13.57-33.82C188.6,141.62,188.94,142,189.22,142.25Z"/><path class="cls-5" d="M270.52,215.52l.11,1.63c-.26-.33-.52-.66-.79-1Z"/><path class="cls-6" d="M285.93,245.94l1,1.72Z"/><path class="cls-1" d="M217.71,244l1.37.07-.79,1Z"/><path class="cls-5" d="M271.92,275c1.35,3.53,5.5,2.42,7.64,4.63l-1.85.48L271,277.62C271.27,276.74,271.6,275.86,271.92,275Z"/><path class="cls-5" d="M224,279l6.1-2.73-.06,1.37Z"/><path class="cls-6" d="M279.09,284.05l.07-.58c0,.08.16.22.15.24a2,2,0,0,1-.34.26Z"/><path class="cls-6" d="M224,284a1.68,1.68,0,0,1-.17-.42s.19-.1.3-.15c-.08.2-.16.41-.25.61Z"/><path class="cls-4" d="M300.28,411.57a78.44,78.44,0,0,1,8,.05c4.23.45,6.67,3.05,6.7,7.29s-2.42,7-6.63,7.33c-5.3.37-10.64.14-16,.18-4.52,0-3-3.6-2.63-5.4.6-3.2-3.05-7.95,2.59-9.43,2.49-.65,5.29-.11,8-.11Zm1.33,11.11c3.09-1.49,8.64,1.9,9-3.52s-5.08-3.89-8-3.42c-3.06.49-8.9-3.69-8.94,3.43C293.69,425.51,299.21,420.62,301.61,422.68Z"/><path class="cls-4" d="M352,351.68c-10.71,3.59-7.9-5.86-7.91-12.95,0-.49,0-1.35.22-1.42,6.43-2,13-1.08,19.5-.57a6.1,6.1,0,0,1,5.7,6.54C369,353.8,360.68,350.71,352,351.68Zm4-4.14c3.42-1.19,9.57,2,9.29-3.7-.3-5.95-6.58-3.11-10.21-3.25-2.32-.09-6.91-2.73-6.92,3.07C348.11,350.64,353.67,345.65,356,347.54Z"/><path class="cls-4" d="M274.36,363c-10,2.73-10.68-1.44-7.19-9.37,2.39-5.43,3.89-11.25,5.84-16.88a23.45,23.45,0,0,1,1.51-2.95,33.59,33.59,0,0,1,1.42,3.12c1.87,5.48,3.22,11.19,5.63,16.42C285.32,361.52,284.7,365.74,274.36,363Zm-.27-3.54c1.38-1.05,4.86,1.47,4.34-2-.58-3.8-2.54-7.39-3.9-11.07-1.4,3.61-3.17,7.13-4.09,10.85C269.58,360.8,272.88,358.54,274.09,359.48Z"/><path class="cls-4" d="M219,438.14c-11.42,3.16-10-2.51-6.94-9.84,2.61-6.23,4.66-12.69,7-19.05,2.39,6.41,4.43,13,7.24,19.19C229.87,436.49,229.5,441,219,438.14Zm0-3.65c1.36-.86,4.82,1.35,4-2.34-.78-3.52-2.57-6.81-3.92-10.19-1.33,3.46-3.09,6.83-3.87,10.41C214.47,435.66,217.65,433.71,219,434.49Z"/><rect class="cls-7" x="68.81" y="19.05" width="364.32" height="463.94" rx="10.04"/></svg>