<svg id="Camada_1" data-name="Camada 1" xmlns="http://www.w3.org/2000/svg" viewBox="0 0 480.93 400.64"><defs><style>.cls-1{fill:#010101;}.cls-2{fill:#fdfdfd;}</style></defs><path class="cls-1" d="M243.08,443.39c-3.67-.31-7.35.36-11-.11-5.7-.72-11.47-.74-17.13-1.75-3.22-.57-6.47-.95-9.66-1.7a84.87,84.87,0,0,1-8.46-1.94,23.45,23.45,0,0,0-3.61-.78,39.26,39.26,0,0,1-6-1.61c-1.73-.59-3.7-.64-5.21-1.86-.31-.24-.69-.16-1-.2-.66-.08-1.4.05-1.76-.74a.37.37,0,0,0-.29-.17c-2,0-3.72-1.13-5.58-1.68a18,18,0,0,1-5.49-2.4,1.8,1.8,0,0,0-.62-.34c-2.23-.45-4.09-1.82-6.18-2.5a49.17,49.17,0,0,1-8.23-3.78c-4.91-2.68-10.09-4.93-14.6-8.32a1.15,1.15,0,0,0-.4-.26c-2.15-.63-3.66-2.31-5.46-3.49-2.72-1.8-5.37-3.74-8-5.61-5.79-4.07-10.94-8.88-16.3-13.44a84.45,84.45,0,0,1-6.7-6.68c-2.48-2.61-5.2-5-7.57-7.68A38.16,38.16,0,0,1,90,371.73a8.83,8.83,0,0,0-1.3-1.56c-2.33-2.17-3.82-5-5.83-7.39-2.38-2.85-4-6.17-6.5-9a23,23,0,0,1-2.53-4,18.93,18.93,0,0,0-1.41-2.22,45.56,45.56,0,0,1-2.5-4.2c-1.48-2.45-2.61-5.08-4-7.55a80.23,80.23,0,0,1-4.1-8.19c-.89-2-2-4-2.67-6.09-.63-1.84-1.6-3.5-2.28-5.3-1.09-2.85-1.95-5.78-3.17-8.58a21.49,21.49,0,0,1-1.43-4.3c-.63-3-1.82-5.91-2.64-8.89a38.84,38.84,0,0,1-.83-4.11,12.85,12.85,0,0,0-1-3.89c-.72-1.43-.54-3.13-.8-4.7-.33-1.91-.38-3.86-1.23-5.69-.58-1.24-.19-2.69-.26-4,0-.69,0-1.34-.6-1.85-.41-.35-.32-.88-.33-1.36,0-1.52-.06-3-.07-4.55a2.73,2.73,0,0,0-.57-2,.77.77,0,0,1-.15-.55c.3-1.72-.21-3.4-.2-5.11.06-9.84,0-19.68,0-29.52a5,5,0,0,1,.64-2.87,2.32,2.32,0,0,0,.25-1.28c0-1.72,0-3.44.08-5.16,0-.27-.06-.65.09-.81,1.42-1.48.64-3.32.85-5,.12-1,0-1.9.76-2.79.4-.47.26-1.44.29-2.19a7.94,7.94,0,0,1,.84-3.57,2.28,2.28,0,0,0-.43-2.93c-.74-.75-.91-1.87-1.54-2.76-1-1.35-1.77-2.87-2.81-4.12-1.29-1.53-2-3.37-3.33-4.84a16.54,16.54,0,0,1-1.94-2.63,41.55,41.55,0,0,0-2.77-3.86,31.18,31.18,0,0,1-2.32-2.72c-1.73-2.9-4.62-4.83-6.29-7.81-.74-1.34-2.19-2.3-3.36-3.38-2.24-2-4.15-4.44-6.73-6.11a6,6,0,0,0-1.08-.73c-2.28-.8-3.51-2.67-4.72-4.56a3.19,3.19,0,0,1-.49-1.21c-.44-3.25,0-6.35,2.87-8.33a11.3,11.3,0,0,1,6.42-2,61.21,61.21,0,0,1,13.06,1.39c2.64.57,5.22,1.35,7.92,1.72,2.39.32,4.78.82,7.15,1.35s5,1.14,7.6,1.5,4.79,1.24,7.29,1.28a1.36,1.36,0,0,1,.54.24c1.24.67,2,.33,2.74-.94,2-3.36,3.32-7.11,5.77-10.24,1.21-1.56,1.92-3.46,3-5.15s2.37-3.48,3.54-5.2c2-2.9,3.82-5.89,6-8.63,2.77-3.4,5.44-6.88,8.15-10.32.1-.13.18-.27.29-.39q4.92-5.13,9.82-10.26c1.19-1.25,2.53-2.35,3.69-3.59,3.24-3.49,7.34-6,10.57-9.53,1.74-1.91,4.14-3.23,6.24-4.81A47.52,47.52,0,0,1,128,79.55c2.67-1.44,4.85-3.55,7.53-5,1.9-1,3.59-2.45,5.48-3.55,3.4-2,6.85-3.91,10.37-5.67A27.84,27.84,0,0,0,155.69,63a3.88,3.88,0,0,1,1.31-.56A22.32,22.32,0,0,0,162.3,60c1.25-.74,2.76-1,4.08-1.64a66,66,0,0,1,7.71-3c1.57-.51,3.13-1.11,4.73-1.54,1.21-.33,2.44-.72,3.6-1.16a62.78,62.78,0,0,1,7.2-2.18c2.23-.55,4.45-1.17,6.67-1.74s4.18-1,6.27-1.34c2.62-.44,5.12-1.5,7.83-1.51a9.91,9.91,0,0,0,3.52-.63,10.66,10.66,0,0,1,3.42-.46c4-.17,7.88-1.41,11.9-1.12,3.66.26,7.19-1.08,10.84-.77,2.9.24,5.83.24,8.73.24,3.79,0,7.52.74,11.31.58,2.33-.1,4.6.74,6.9.74,3.26,0,6.34,1.07,9.55,1.35a34,34,0,0,1,6.66,1.2c1.82.55,3.77.48,5.51,1.35a6.5,6.5,0,0,0,2.24.3,1.87,1.87,0,0,1,1.6.63,1,1,0,0,0,1,.33c2.08-.07,3.86,1,5.81,1.46a13.32,13.32,0,0,0,2.78.63,1.08,1.08,0,0,1,.69.14c1.54,1.52,3.73,1.12,5.5,1.88a38.32,38.32,0,0,0,3.94,1.49,88.94,88.94,0,0,1,9.54,3.73c2.47,1.08,4.94,2.16,7.39,3.29s5.07,2.5,7.61,3.75c1.35.66,2.3,1.9,3.76,2.45.6.22,1.15.7,1.79.92a19.23,19.23,0,0,1,5.33,3.3,21.32,21.32,0,0,0,3.48,1.83,4.4,4.4,0,0,1,2.12,1.68.91.91,0,0,0,.77.47,1.59,1.59,0,0,1,.79.27c1.07.86,2.37,1.44,3.37,2.27,3.86,3.21,8,6,11.84,9.24a57.3,57.3,0,0,1,5.68,4.93c1.39,1.52,3.52,2.39,4.87,4,2.51,3,5.88,5.18,8.13,8.43a3.72,3.72,0,0,0,.56.63c3.39,3.1,6.16,6.77,9.18,10.21,1.6,1.83,3,3.84,4.4,5.82a61.7,61.7,0,0,0,3.94,5.13,15.08,15.08,0,0,1,2.28,3.36,25.38,25.38,0,0,0,2.8,4.3c1.71,2.25,2.9,4.85,4.47,7.18,1.79,2.65,2.75,5.73,4.67,8.32.84,1.15,1.07,2.78,1.85,4.08a37.56,37.56,0,0,1,2.72,5.73,1.56,1.56,0,0,0,2,.91c3.53-.81,7.14-.69,10.73-.87a10.21,10.21,0,0,0,2.14-.2c3.59-1,7.34-.45,10.93-1.07s7.15-.45,10.68-1.08a24.69,24.69,0,0,1,3.09-.31,15.4,15.4,0,0,0,4.47-.75,14.57,14.57,0,0,1,4.51-.49c2.82-.13,5.25-1.55,7.82-2.48.92-.33,1.73-.72,2.59.21.34.36,1,.42,1.53.61a6.18,6.18,0,0,1,4.18,5.75,7.82,7.82,0,0,1-1.55,5.11c-2.45,3.33-5.3,6.31-7.93,9.48-1.28,1.53-2.57,3.06-3.79,4.64a19.17,19.17,0,0,1-3.37,3.71c-.89.68-1.16,1.81-1.91,2.59-1.19,1.24-2.28,2.56-3.51,3.77a51.31,51.31,0,0,0-5,6.18c-3.26,4.37-7,8.28-10.57,12.36-2.66,3-4.82,6.47-7.65,9.36a6.23,6.23,0,0,1-.69.82c-1.9,1.4-2.2,3.2-1.51,5.35a13.54,13.54,0,0,1,.32,4.17c0,7.79-.13,15.6.16,23.38.15,4.25-.75,8.34-.9,12.52,0,1.28-.08,2.56-.14,3.83a7.09,7.09,0,0,1-.55,2.42c-.63,1.5-.32,3.15-.44,4.73,0,.57,0,1.14-.55,1.47-.3.17-.28.46-.29.73-.25,5.83-1.81,11.39-3.59,16.89a8.77,8.77,0,0,0-.5,2.82,1.72,1.72,0,0,1-.67,1.69c-.09.06-.23.18-.22.25.29,1.53-.78,2.71-1.05,4.11a21.86,21.86,0,0,1-1.47,4.65c-1,2.19-1.51,4.53-2.46,6.72a24.74,24.74,0,0,1-2.08,4.64,2.27,2.27,0,0,0-.38.74c-.57,2.76-2.19,5.11-3,7.78a10,10,0,0,1-2.28,4.17c-.05.06-.13.12-.15.19-.68,2.57-2.26,4.71-3.44,7a35.91,35.91,0,0,1-2,3.67,93.83,93.83,0,0,0-4.83,8.06,11.09,11.09,0,0,1-1.38,1.95c-.95,1.14-1.65,2.45-2.48,3.65-1.34,1.92-2.29,4.13-4.14,5.67l-.08.09c-.87,2.19-2.94,3.51-4,5.56-.74,1.4-2.09,2.27-3,3.52a106.14,106.14,0,0,1-9.06,10.14c-3.6,3.63-7.34,7.11-11,10.68-2.67,2.61-5.84,4.56-8.44,7.22a17.3,17.3,0,0,1-4.35,3.54c-1.67.84-2.8,2.29-4.33,3.15a38.18,38.18,0,0,0-4.22,2.81c-3.36,2.56-7.14,4.42-10.62,6.77-2.1,1.41-4.54,2.31-6.65,3.73-1.59,1.07-3.37,1.7-5,2.64-2.27,1.31-4.68,2.29-7.07,3.37q-4.9,2.21-9.92,4.13c-1.86.71-3.7,1.53-5.59,2.19-2.92,1-5.9,1.85-8.75,3a14.4,14.4,0,0,1-2.87.8c-2.08.38-3.94,1.5-6.09,1.72a6,6,0,0,0-3.57,1c-.32.28-1,.2-1.52.2a5.36,5.36,0,0,0-3.06.75,6.55,6.55,0,0,1-2.67.45,32.83,32.83,0,0,0-6.95,1.19,24.84,24.84,0,0,1-3.44.41c-5.48.91-11,1.12-16.52,1.86C251.32,443.62,247.19,443.32,243.08,443.39Zm91.59-271.17c.11.3.23.59.32.9.67,2.46,2,4.66,2.85,7.07.39,1.14.31,2.38.81,3.45a6.71,6.71,0,0,1,.65,3,4.49,4.49,0,0,0,.57,2.52,2.15,2.15,0,0,1,.24,1.16q0,8.28.08,16.55c0,.36.08.79-.19,1a3.34,3.34,0,0,0-.78,2.67,2.46,2.46,0,0,1-.71,2,40.9,40.9,0,0,1-1.07-6.91c-.07-4.84-.09-9.67-.12-14.51a10,10,0,0,0-.3-2.49c-.73-2.74-1.18-5.55-2.06-8.26-.33-1-.73-2-1.15-3a31.33,31.33,0,0,0-1.65-3c-.89-1.67-1.77-3.57-3.33-4.61-2.92-2-5.81-4-8.88-5.69-2.7-1.5-5.24-3.28-7.94-4.8-2.53-1.43-5.24-2.53-7.73-4.09-2.31-1.45-5-2.29-7.57-3.44a19.78,19.78,0,0,0-2.71-1.2,51.27,51.27,0,0,1-6-2.37,20.91,20.91,0,0,0-4.57-1.68,10.85,10.85,0,0,1-2.18-.61,23,23,0,0,0-2.93-1.11c-2.63-.54-5.19-1.27-7.77-1.95-1.81-.47-3.69-.68-5.52-1.05a58.51,58.51,0,0,0-7.68-1c-4.33-.27-8.69-.38-13.05-.28-3.34.08-6.52,1.24-9.86,1.16a7.59,7.59,0,0,0-2.36.35,56.42,56.42,0,0,1-6.56,1.32c-.67.11-1.59,0-1.94.44-.86,1-1.87.7-2.87.75-.28,0-.69-.1-.82.05-1.06,1.19-2.57.94-3.89,1.18-1.69.29-3.11,1.24-4.7,1.67-1.92.52-3.66,1.6-5.69,1.76a1.4,1.4,0,0,0-.74.34c-1.51,1.3-3.5,1.66-5.24,2.43s-3.58,1.47-5.4,2.13a59.23,59.23,0,0,0-6.54,3.08c-3.6,1.83-7.49,3.25-10.55,6a3.42,3.42,0,0,1-.85.44,56.75,56.75,0,0,0-12.14,7.75c-.37.3-.64.82-1,.95-2.48.77-4,3-6.16,4.22-1.44.8-2.56,1.22-4.06.74a17.89,17.89,0,0,1-2.37-.81c-2.65-1.27-5.52-1.95-8.26-3-3.46-1.32-7.3-1.43-11-2.24-3.45-.77-7-1.2-10.5-1.73-2.58-.4-5.17-1-7.74-1.63a67.34,67.34,0,0,0-6.92-1.26,71.74,71.74,0,0,1-10.47-2.43c-3.51-1.05-7.3-.72-10.62-2.49-.71-.38-1.74-.11-2.59-.28-3-.62-5.94-1.13-8.9-1.79-3.89-.87-7.87-1.34-11.73-2.31-2.7-.67-5.44-1.24-8.15-1.7-4-.67-7.88-1.8-11.92-2.12a1.82,1.82,0,0,1-.46-.11c-2.55-1.29-5.42-1.08-8.12-1.72-1.22-.29-2.35-.86-3.56-1-1.7-.25-3.4-.47-5.09-.78-3.27-.6-6.49-.91-9.51,1a2.76,2.76,0,0,0-1.54,2.84,4.12,4.12,0,0,0,2.4,3.48,20.45,20.45,0,0,1,7,5.48,12.41,12.41,0,0,0,1.8,1.75c2.06,1.62,3.56,3.76,5.29,5.68s2.92,3.88,4.76,5.52a7.78,7.78,0,0,1,1.9,2.44,15.21,15.21,0,0,0,2.41,3.44c1.64,1.86,3,4,4.38,5.92,1.86,2.58,3.73,5.17,5.46,7.85,2.47,3.82,4.3,8,7,11.73.73,1,1.21,2.29,1.93,3.25a18.61,18.61,0,0,1,2,2.76,23.81,23.81,0,0,0,1.85,3.07c2.75,3.85,5.13,8,8.29,11.55a.87.87,0,0,1,.25.39c.28,1.54,1.54,2.37,2.42,3.47.66.81,1.35,1.59,2,2.41,2.36,3.1,5.51,5.35,8.5,7.76,2.39,1.93,5.67,2.47,7.84,4.81,1.83.3,3.11,1.92,5,2a3.47,3.47,0,0,1,1.54.61,17,17,0,0,0,6.1,2.35c.8.14.94,1.11,1.77,1a5.86,5.86,0,0,1,2.42.62,69.51,69.51,0,0,0,7.63,2.29c2.2.58,4.38,1.33,6.62,1.83,3.8.86,7.62,1.68,11.45,2.36,4.8.86,9.67,1.43,14.49,2.24a6.79,6.79,0,0,1,5,3,4.72,4.72,0,0,0,2.62,2.13,12.83,12.83,0,0,1,1.82.9,5.12,5.12,0,0,0,4.93.27,7.66,7.66,0,0,1,4.46-.41c1.38.25,2.73.61,4.11.83a18.09,18.09,0,0,1,6.21,2.6,25.25,25.25,0,0,1,5,4.63,1.69,1.69,0,0,0,2,.6c.91-.3,1.86-.44,2.79-.65,3.26-.74,6.13,1.21,9.27,1.24a1.3,1.3,0,0,1,.65.28,8,8,0,0,0,3,1.17,6.23,6.23,0,0,1,1.62.69c1.57.88,3.13,2,5.07.73a3.83,3.83,0,0,1,1.52-.23c1.31-.14,2.64-.17,3.93-.41,5.67-1,11.37-.87,17.08-.61a12.34,12.34,0,0,0,5.19-.67,8.12,8.12,0,0,1,4.36-.35c1.3.2,2.59.48,3.88.73a7.89,7.89,0,0,0,5.88-.9,60.67,60.67,0,0,1,5.81-3.06,19.23,19.23,0,0,1,6-1.74c2.62-.24,5.16-.81,7.93-.34,2.59.45,5.19.67,7.57,1.86,1.06.53,2.28.5,3.29,1.29.77.61,3,.05,3.37-.7,1.27-2.49,3.87-3.08,6.07-4.16.7-.34,1.27-1.13,2.2-1A9.62,9.62,0,0,0,294,269c2.37-.59,4.56.48,6.85.68a.43.43,0,0,1,.29.18c.7,1.13,1.67.7,2.57.41a17.12,17.12,0,0,0,3.16-1.68,7.57,7.57,0,0,1,4.33-1.09c2.23.13,4.47.08,6.71.11a2.82,2.82,0,0,0,1.83-.44,12.58,12.58,0,0,1,8.93-2.7c1.67.12,3.35,0,5,0,.39,0,.81.08,1.1-.32a1.75,1.75,0,0,1,1.59-.66c.77.05,1-.39,1-1,0-1.08,0-2.16.05-3.24.13-3.82,2.39-5.5,6.08-4.69,1.73.38,3.26,1.4,4.93,1.71,2.81.5,5.55,1.5,8.49,1.21,1.23-.12,2.48,0,3.72,0,1.67,0,3.37.24,5-.23,4.22-1.2,8.68-1.28,12.82-2.86,1.74-.66,3.71-.57,5.38-1.54a19,19,0,0,1,5.09-2,17.76,17.76,0,0,0,3.21-1.28c3.24-1.5,6.53-2.93,9.83-4.29,1.69-.69,3.1-1.77,4.75-2.5,2.32-1,4.32-2.74,6.72-3.59s4.29-2.52,6.5-3.65a5.79,5.79,0,0,0,1.76-1c1.47-1.67,3.48-2.57,5.33-3.57,3.22-1.73,5.44-4.42,7.5-7.19,2.48-3.34,5.4-6.29,7.95-9.55,2.9-3.69,5.83-7.38,9-10.85,1.2-1.29,2.29-2.73,3.54-4a5.66,5.66,0,0,0,1.1-1.26c2-3.84,5.54-6.38,8.11-9.77s5-6.83,8.35-9.47a1.53,1.53,0,0,0,.39-.45c1.32-2.46,3.41-4.32,5.18-6.41,1.38-1.64,2.63-3.42,4.13-4.91a19.82,19.82,0,0,0,3.53-4.9,2,2,0,0,0,0-1.93c-.84-2-3-2.22-4.71-1.18a4.77,4.77,0,0,1-1.94.53c-.31,0-.69-.12-.91.17-.71.88-1.68.77-2.64.81a15.67,15.67,0,0,0-3.57.33,20.87,20.87,0,0,1-6,.67,4,4,0,0,0-2.11.21c-1.45,1-3,.64-4.53.73a19.41,19.41,0,0,0-2.75.14c-3.21.64-6.5.76-9.72,1.23-5.54.8-11.12,1-16.67,1.54-6,.53-12,1.37-18,1.19-.52,0-1,.09-1.55.12-4.34.27-8.63,1.22-13,.8a2.77,2.77,0,0,0-1.06.17c-1.74.61-3.59.44-5.38.71a21.39,21.39,0,0,1-6,.05c-2-.27-3.75,1.58-5.77.5a.39.39,0,0,0-.34.05,7.22,7.22,0,0,1-3.41.46c-1.43,0-2.87,0-4.3.07-3.42.3-6.85.57-10.26.79-7.57.49-15.11,1.61-22.72,1.27C337.22,171.55,336.16,173,334.67,172.22Zm76.59-9.91a4.4,4.4,0,0,0-.75-1.57c-1.23-2.31-2.52-4.58-3.65-6.94a19.6,19.6,0,0,0-2-3.64,14.83,14.83,0,0,1-1.83-3.07c-.95-2.14-2.89-3.72-3.56-6.05a.11.11,0,0,0-.07-.08c-1.27-.71-1.62-2.17-2.49-3.21-2.37-2.88-4-6.35-6.72-9a5.75,5.75,0,0,1-.86-1.15c-1.58-2.59-3.73-4.75-5.59-7.12-2.85-3.64-6.56-6.5-9.63-10-2-2.24-4.37-4.09-6.53-6.17-1.73-1.66-3.83-2.91-5.49-4.6a49.82,49.82,0,0,0-7.43-5.93c-4.2-2.89-8.31-5.91-12.58-8.7-3.92-2.55-8.22-4.37-12-7a2.23,2.23,0,0,0-.88-.35,7.31,7.31,0,0,1-2.93-1.29c-3.06-2.1-6.67-3.08-9.9-4.84-2.42-1.32-5.2-1.95-7.78-3a36.4,36.4,0,0,0-5-1.67c-1.81-.43-3.49-1.26-5.28-1.79q-4.8-1.44-9.65-2.71c-2.73-.72-5.58-1-8.25-2-2.13-.8-4.42-.58-6.61-1a115.1,115.1,0,0,0-14.56-1.91c-2.07-.13-4.18.16-6.19-.45a10.31,10.31,0,0,0-3.53-.39c-1.16,0-2.32,0-3.47,0a98.53,98.53,0,0,0-11.27.13,55.76,55.76,0,0,1-9.65.78,8.84,8.84,0,0,0-4.45.67,3.63,3.63,0,0,1-1.4.25c-4,.17-7.91.46-11.67,1.9a1.74,1.74,0,0,1-.72.07c-2.7-.14-5.21.91-7.72,1.57-3.09.8-6.23,1.58-9.32,2.46-3.38,1-6.51,2.73-10,3.2a.67.67,0,0,0-.21.1c-1.88,1.17-4.06,1.59-6.07,2.42q-2.26.91-4.47,2a35,35,0,0,1-4.52,2.13c-2.28.69-4.21,2-6.3,3.06a69.43,69.43,0,0,0-9.9,5.5c-1.26.9-2.75,1.41-4,2.3-2.5,1.78-5,3.51-7.58,5.24-4.21,2.87-8.16,6.09-12.12,9.28a54.52,54.52,0,0,0-6.11,5.18c-2.47,2.66-5.17,5.1-7.68,7.73-2.07,2.15-4.53,4-6.39,6.31-2.8,3.52-5.85,6.83-8.54,10.46-1.7,2.3-3.48,4.55-5.12,6.88-2.13,3-4.09,6.19-6.14,9.28A12.45,12.45,0,0,0,83,148.2a15.08,15.08,0,0,1-2.75,4.73,6.73,6.73,0,0,0-1.33,2.91c-.07.33-.25.64.3.65,2.07,0,4,1,6,1.21,4.09.47,8,1.77,12.06,2.42,2.5.4,4.81,1.63,7.39,1.68a2.72,2.72,0,0,1,.92.24c2.68,1.07,5.57,1.22,8.33,1.89,2.44.6,4.94.94,7.4,1.41,2.73.51,5.46,1,8.18,1.58,2.27.46,4.54.8,6.78,1.48,1.95.59,4.05.8,6.08,1.2a56.29,56.29,0,0,1,11.29,3.62c.32.13.52,0,.78-.16a22.72,22.72,0,0,0,4-2.55c1.31-1,2.42-2.3,4-2.92a7.74,7.74,0,0,0,1.81-1.16c4.88-3.83,10.44-6.57,15.73-9.74,2.4-1.44,5-2.41,7.43-3.79,3.41-2,7.07-3.3,10.55-5.07,2.76-1.4,5.86-1.94,8.74-3.11,2.27-.92,4.56-2,7.09-2.16a.55.55,0,0,0,.4-.2c.43-.8,1.18-.7,1.89-.75.36,0,.86.07,1-.13.92-1,2.1-.83,3.25-.86a1.5,1.5,0,0,0,1-.33,3.1,3.1,0,0,1,2-.62c.73,0,1.53.14,2.17-.42a3.08,3.08,0,0,1,1.78-.58c.87-.1,1.87.34,2.59-.15a7.48,7.48,0,0,1,3.53-.88,80.71,80.71,0,0,1,13-.9c3.83.14,7.68,0,11.52.06,2.7.06,5.32,1,8.06.8l.12,0c2.74,1.3,5.86.93,8.66,2.08,2.07.85,4.43.77,6.55,1.76a24.29,24.29,0,0,0,3.55,1.34c1.46.41,2.91.82,4.36,1.27,1.67.53,3.05,1.84,4.91,1.91a1.11,1.11,0,0,1,.63.33,5.2,5.2,0,0,0,2.49,1.1,12.29,12.29,0,0,1,2.67,1c2.39,1.17,4.86,2.18,7.17,3.48a34,34,0,0,0,5.75,2.9,1.06,1.06,0,0,1,.44.38,5.76,5.76,0,0,0,2.15,1.48,82.46,82.46,0,0,1,11.08,6.58l3.08,2.13c.83.57,1.87,1,2.72,1.61a4.28,4.28,0,0,0,2.59.77c8.32.19,16.56-1.41,24.88-1.28,2.88,0,5.69-.78,8.57-.91,4.46-.2,8.93-.14,13.38-.88s9-.39,13.48-.9C400.5,163.17,405.92,163.36,411.26,162.31Zm-242,187.75a4.73,4.73,0,0,0-.15-.95c-.45-1.08,0-1.54,1-1.84,1.45-.42,2.87-1,4.29-1.5.31-.12.67-.17.84-.58.61-1.47,1.38-2.89,1.2-4.57,0-.31-.13-.71.2-.88.66-.33.68-.87.73-1.5a2.51,2.51,0,0,1,2.17-1.59c.92.23.68,1,.68,1.68,0,3.36-.06,6.72,0,10.08a13.08,13.08,0,0,1-1.14,6,6.08,6.08,0,0,0-.76,4.05,5.71,5.71,0,0,1-.06,3c-.44,1.6-.49,3.43-1.46,4.75s-2,3-3.2,4.32c-.21.23-.51.43-.06.75a5.36,5.36,0,0,1,1.86,3.93c.36,2.62.75,5.25,0,7.92-.22.82-.89,1.28-1,2.06-.45,2.46-1.78,4.55-2.77,6.78-.52,1.17-1.62,2.13-1.41,3.61.1.71-.84,1-.83,1.78,0,1.59-.18,3.18,0,4.79a13.08,13.08,0,0,1-1.59,8.32c-.27.43-.36,1-.64,1.41-.51.77-.26,1.2.44,1.72,1.07.81,2.5.68,3.53,1.39a21.12,21.12,0,0,0,6.06,2.38c3.18,1,6.09,2.75,9.44,3.14l.11,0c1.66,1.28,3.76,1.53,5.66,1.92,2.86.58,5.47,2.14,8.48,2a.81.81,0,0,1,.41.21,4.3,4.3,0,0,0,2.5.67c.81.06,1.76-.21,2.41.37a3,3,0,0,0,2.09.66c1.07,0,2.19-.22,3.2.28a8.87,8.87,0,0,0,3.25.71c1.35.11,2.7.25,4,.4,4.63.51,9.25,1.17,13.9,1.51,3.7.27,7.43.16,11.15.2,1.35,0,2.07-.83,1.34-1.72s-.8-2.3-1.41-3.37a12.17,12.17,0,0,1-1.25-3.7c-.44-2.39-1.44-4.69-1.38-7.19,0-1.15-.72-2.18-.71-3.37,0-5.28,0-10.56-.07-15.84,0-1.49-.31-3,.74-4.37a1.6,1.6,0,0,0,.19-1.05c-.16-2.05.88-3.86,1.15-5.82a.61.61,0,0,1,.33-.45.48.48,0,0,1,.54.37c.08.9.92,1.65.76,2.48-.25,1.32.2,2.64-.06,3.87a5.33,5.33,0,0,0,.06,3.57,1.15,1.15,0,0,1-.16,1,3.23,3.23,0,0,0,0,3,3.93,3.93,0,0,1,.32,1.51c0,2.16.05,4.31.08,6.47.06,3.39,0,6.79.76,10.14.58,2.47.05,5,.43,7.52.22,1.46.89,2.8.84,4.33-.08,2.46,0,2.47,2.43,2.45,2.88,0,5.8.35,8.62-.26,4.57-1,9.27-.81,13.87-1.73,2.57-.51,5.16-1.4,7.88-1.25a3.26,3.26,0,0,0,1.38-.34,8.68,8.68,0,0,1,3-.68,6.91,6.91,0,0,0,1.76-.31,70.54,70.54,0,0,1,8.35-2,66.92,66.92,0,0,0,8.38-2.64c2.5-.93,5.2-1.3,7.58-2.73a22.37,22.37,0,0,1,5.11-2,37.66,37.66,0,0,0,5.46-2.39c1.23-.61,1.38-1.33.65-2.49a7.39,7.39,0,0,1-.62-1.68c-1-3-.78-6.08-1.21-9.11a16.48,16.48,0,0,1,.25-7.71,4.36,4.36,0,0,0,.1-1.31q0-10.14,0-20.28a2.56,2.56,0,0,0-.18-1.28,6.93,6.93,0,0,1-.8-3.45,5.37,5.37,0,0,0-.31-2.36c-1.44-2.62-1.14-5.71-2.52-8.45a65.35,65.35,0,0,1-3.14-8.44c-.11-.33-.19-.81-.6-.81s-.45.48-.55.81a4.14,4.14,0,0,1-.38,1c-2.06,3.09-4,6.26-6.26,9.2a66.41,66.41,0,0,0-5,8,8.27,8.27,0,0,0-1.42,3.62c0,.3.05.7-.31.83s-.69-.17-.94-.41a2.61,2.61,0,0,1-.42-2.93c.77-1.9.47-4,1.57-5.87.5-.85.63-2,1.29-2.89,1.12-1.44,1.92-3.07,3.09-4.5a38.55,38.55,0,0,0,4.43-6.42,9,9,0,0,0,.58-1.31,21.81,21.81,0,0,1,1.45-3.63c.52-1,.84-2.25.22-3.1a4.9,4.9,0,0,1-.81-3.12c0-1,0-2-.12-3-.13-1.38-.15-1.33-1.31-.58-3.56,2.29-6.83,5.06-10.88,6.51-.41.15-.93.65-1.28.16s.34-.7.59-1a28.61,28.61,0,0,0,2.74-3.29,8,8,0,0,1,2.92-2.86,16.46,16.46,0,0,0,4.56-4.36,20,20,0,0,0,2.08-3.48,2.84,2.84,0,0,1,2.66-1.7,2.19,2.19,0,0,1,2.34,1.59,5.22,5.22,0,0,0,1.87,2.29,16.6,16.6,0,0,1,3.2,3.23c1.55,1.87,3,3.84,4.49,5.76a49.41,49.41,0,0,1,3.67,4.66c2.29,3.71,5.54,6.72,7.5,10.66a1.52,1.52,0,0,0,2.05.79c1.75-.9,3.74-1.37,5.18-2.87a5.82,5.82,0,0,1,3.88-1.92,9,9,0,0,0,4-1.41,16.8,16.8,0,0,0,6.65-7.48c1.25-2.62,3.21-4.9,3.87-7.8.61-2.66,1.62-5.26,1.27-8.08-.16-1.31-.4-1.51-1.52-.87a78.86,78.86,0,0,1-7.14,3.83c-2.22,1-4.25,2.13-6.77,1.77-.4-.06-.61,0-.61.57,0,1.74-1.45,3.37-.38,5.2,0,.07-.05.22-.09.34a13.34,13.34,0,0,0-.46,4.27c.11,2.18-1.23,3.42-2.89,4.47a.66.66,0,0,1-1-.09c-1.06-1.28-2.16-2.45-2.33-4.32-.25-2.63-.62-5.3-2.41-7.5a10,10,0,0,1-1.25-2.83,2.35,2.35,0,0,0-.4-.86c-1.2-1.2-1.47-2.84-2.05-4.31a39.67,39.67,0,0,1-1.33-4.95,60.75,60.75,0,0,1-1.83-8.36,5.13,5.13,0,0,0-.27-1.28,7.31,7.31,0,0,1-.27-4.24c.3-1.24.65-2.47.93-3.71a5.72,5.72,0,0,1,2.24-3.78,2.1,2.1,0,0,0,.89-1.51,2,2,0,0,1,.51-1.18,37.3,37.3,0,0,1,4.54-4.61c2.53-1.95,4.84-4.36,8.39-4.41a.37.37,0,0,0,.29-.16c.46-.85,1.28-.65,2-.71a4,4,0,0,0,1.41-.19c.87-.4.93-1.07.18-1.64-.43-.34-1-.29-1.45-.54a6.79,6.79,0,0,0-6.76.07c-2.5,1.32-5.24,1.47-7.85,2.08a40.21,40.21,0,0,1-5.55,1.27c-.59.05-.94.54-1.21,1.06-.67,1.27-1.32,2.55-2.06,3.78-.53.88-1,1.65.05,2.51.23.19.26.65.33,1,.45,2.14-.6,3.88-1.55,5.63a8.94,8.94,0,0,0-1.47,3.5,13.77,13.77,0,0,1-1.3,4.44c-1.57,3.72-4.53,5.41-8.34,5.95-.48.07-1.27,0-1.21.68.17,1.94-1.16,3.25-1.88,4.8-1.64,3.51-4.63,5.45-8.2,6.58-.63.2-1,.45-1,1.1a3.26,3.26,0,0,1-1.28,2.58,10.65,10.65,0,0,0-1.58,1.64,11.55,11.55,0,0,1-9.12,4.65,15.61,15.61,0,0,1-2.27-.07,2.24,2.24,0,0,0-1.76.59q-.9.79-1.74,1.65c-1.4,1.43-3.6,1.4-5,2.77-.05,0-.16,0-.24,0a4.84,4.84,0,0,0-2,.35,4.61,4.61,0,0,1-2.58.17c-1.6-.37-3.19-.66-4.69.48a15.65,15.65,0,0,1-7.68,3.1,2,2,0,0,0-1.77,1.24c-.48,1.37-1.39,2.57-1.42,4.13,0,1.18-1.1,2.22-.82,3.44.41,1.82-1.37,3.49-.3,5.32.05.08,0,.25-.07.34-1.13,1.62-.83,3.23,0,4.86a2.19,2.19,0,0,1,.2.8c.09,2.08.17,4.15.24,6.23,0,.42.11,1-.46,1.09s-.65-.41-.8-.74a26.81,26.81,0,0,1-2.89-8.63c-.29-2.68-1.06-5.3-.43-8.05.35-1.51.41-3.08.61-4.63,0-.31,0-.76.21-.91.83-.66.63-1.57.73-2.42s-.28-1.15-1.09-1.14c-1.48,0-3,0-4.44,0-1.22-.08-2.55.38-3.64-.64a.81.81,0,0,0-.78.11,6,6,0,0,1-2.78,1,4.28,4.28,0,0,0-2.88,1.89,21.88,21.88,0,0,0-3.47,9.65c-.21,1.82-1.23,3.47-1,5.37,0,.2-.21.42-.57.35-.21-2.52-.31-5.06-.27-7.61,0-.93-.2-1.9.69-2.63.19-.16.21-.6.22-.91a7,7,0,0,1,1.32-3.66c1.08-1.56.58-2.66-1.35-2.86a11.14,11.14,0,0,1-2.88-.76c-1.62-.64-3.19-1.5-5.05-1.31a6.9,6.9,0,0,1-4.19-1c-.77-.44-.79-1.23-1.27-1.75-2.5-2.68-8.71-3.08-11.21-1.06-1.76,1.42-3.81.87-5.76,1a.55.55,0,0,1-.38-.24c-1-1.36-2.1-2.68-2.15-4.53a1.26,1.26,0,0,0-1.53-1.29,1.94,1.94,0,0,1-1.45-.44,14.4,14.4,0,0,1-3.83-3.91,3.31,3.31,0,0,0-3.19-1.73c-1.6,0-3.22-.11-4.79.07a9.14,9.14,0,0,1-7.51-2.68,14.52,14.52,0,0,1-2-2.18,2.72,2.72,0,0,0-2.68-1.21,13.5,13.5,0,0,1-3.11,0c-3.33-.47-6.41-1.44-8.09-4.75-.21-.43-.48-.83-.73-1.24-.89-1.5-2.35-1.61-3.39-.23a4,4,0,0,1-1,.85,25.27,25.27,0,0,0-4.6,3.63,1.86,1.86,0,0,1-.76.56,7.46,7.46,0,0,0-4.22,3.68,32.24,32.24,0,0,1-8.13,8.85,3.14,3.14,0,0,0-1.1,2.27c-.34,2.36.58,4.49,1.5,6.4,2.08,4.31,3.95,8.81,7.49,12.28,2,2,3.94,4.18,5.91,6.28a2.79,2.79,0,0,0,.83.68c1.89.79,3.24,2.32,4.76,3.58a12.69,12.69,0,0,1,4.55,8.41,4.33,4.33,0,0,0,.76,2,.93.93,0,0,0,1.43.3c3.91-2.46,8.21-4.5,10.07-9.21,0-.09.2-.12.27-.21,1-1.08.58-2.56,1.07-3.78-1.29-1.78-2.49-3.7-4.79-4.29a10.28,10.28,0,0,1-2.11-.79,104.43,104.43,0,0,0-9.67-4.47,6.21,6.21,0,0,1-3.88-3.93c-.36-1.05-.74-2.09-1.06-3.15-.23-.78-.91-1.14-1.21-1.86a30.78,30.78,0,0,0-2.29-5.19,2.6,2.6,0,0,1-.37-1.13,12,12,0,0,0-.82-3.23,2.34,2.34,0,0,1,.06-2.08,6.27,6.27,0,0,1,1.85,1.93c1.19,1.87,2.67,3.53,3.75,5.48a40.93,40.93,0,0,1,3.57,7,4.87,4.87,0,0,0,3.88,3.32,21.28,21.28,0,0,1,3.65,1.58A15.9,15.9,0,0,0,169.24,350.06Zm-21.9-84.2c-4.59-1.05-9.21-1.37-13.76-2.25l-11.77-2.3c-5.51-1.09-10.84-2.9-16.26-4.36-1.69-.46-3.25-1.28-4.92-1.83a57.11,57.11,0,0,1-9.65-4c-2.89-1.59-6.14-2.64-8.54-5.07a1.6,1.6,0,0,0-.72-.42,6.54,6.54,0,0,1-2.23-1.35,42.34,42.34,0,0,1-7.42-6.92c-1.34-1.51-2.39-3.28-4-4.55-.66-.51-.28-1.53-.91-2A9.59,9.59,0,0,1,65,227.93c-.66-1.2-1.92-1.92-2.41-3.22-.77-2-2.41-3.38-3.69-5.13a4.43,4.43,0,0,0-.54,2.54c-.07.7.22,1.5-.31,2.08a2.67,2.67,0,0,0-.61,2c0,2.76,0,5.52,0,8.27,0,1.27.13,2.55-.67,3.7a1.79,1.79,0,0,0-.17,1.63,8.16,8.16,0,0,1,.37,4.56c-.43,2.36.32,4.65.42,7,.13,3.27.14,6.55.17,9.83,0,1.53,1,2.84.93,4.42,0,1.87-.38,3.84.82,5.56a1.25,1.25,0,0,1,.09.82c-.47,3.19.91,6.13,1.44,9.16.42,2.47,1.14,5,1.55,7.47.15.91,1.09,1.25,1.07,2.18,0,1.15-.31,2.4.84,3.3.15.13.07.53.11.81a15.68,15.68,0,0,0,1.35,5.3,22.4,22.4,0,0,1,1.63,4.65c.6,2.2,1.58,4.25,2.37,6.34.64,1.67,1.28,3.44,2.07,5.11s1.71,3.38,2.48,5.11a12.78,12.78,0,0,0,1.26,2.94c1.29,1.58,1.69,3.57,2.72,5.25,1.58,2.56,2.41,5.54,4.49,7.8a1.81,1.81,0,0,1,.53.92,5.15,5.15,0,0,0,1.12,2.34c3,4.78,6.4,9.33,9.68,13.94a79.58,79.58,0,0,0,9.24,11.24c1.06,1,2.35,2,3,3.38a4.27,4.27,0,0,0,1.24,1.73c2.94,2.34,5.24,5.34,8.14,7.75,1.83,1.53,3.6,3.22,5.32,4.93s3.91,3,5.67,4.76a18.58,18.58,0,0,0,4.65,3.72c2.5,1.25,4.47,3.23,6.78,4.74,1.79,1.17,3.58,2.46,5.37,3.66,3.29,2.22,6.82,4.09,10.25,6.1a7.1,7.1,0,0,0,1,.47c2,.81,3.73,2.09,5.63,3.06a2,2,0,0,0,2.57-.33c1.8-1.72,2.08-4.05,2.47-6.26a18.2,18.2,0,0,0,0-5.61c-.31-2,.64-3.6,1.16-5.29,1.08-3.5,3.3-6.55,4.22-10.14a.49.49,0,0,1,.24-.27c.38-.21.4-.54.4-.91,0-2.16,0-4.32,0-6.48,0-.7-.16-.77-.81-.56a27.59,27.59,0,0,0-4.81,2.38c-1.85,1-3.77,1.4-5.59-.11-1.21-1-.59-2.87-1.72-3.94.45-2.49-1.23-4.29-2.09-6.35-.37-.88-1.28-1-2.15-1s-.79.74-1.06,1.21-.56,1.06-.89,1.56a25.29,25.29,0,0,0-2.32,3.89,4.4,4.4,0,0,1-3.2,2.48,5,5,0,0,0-1,.32c-2.18,1.13-3.67.94-5.41-.72-1.22-1.16-2.13-2.37-1.91-4.27s0-3.67.09-5.51c.11-2.26-.26-4.56.5-6.78a8.57,8.57,0,0,0,.49-3.3,1.77,1.77,0,0,1,.48-1.43,1.44,1.44,0,0,0,.12-2q-.33-.56-.63-1.14c-1-2-2.16-3.91-3.27-5.81-.74-1.24-1-2.63-1.57-3.86a13.69,13.69,0,0,1-1.3-6,9.08,9.08,0,0,1,1.3-5.22,14.7,14.7,0,0,1,2.75-2.82,32.75,32.75,0,0,0,4.82-5c1.8-2.43,3.46-5,6.34-6.33,1.12-.52,2.22-1.08,3.3-1.69.53-.3,1.48-.34,1.5-1s-1-.8-1.5-1.15c-1.33-.86-2.9-1.38-4.05-2.51-1.53-1.49-2.13-3.59-3.29-5.33a1.18,1.18,0,0,1-.1-.81,3.54,3.54,0,0,0-1.55-3.76c-2.64-2.14-3.52-5.2-4.28-8.28a3.92,3.92,0,0,1,.15-3c.62-1,.83-2.11,1.47-3.09a2.11,2.11,0,0,0-.19-2.69c-.78-1.08-.94-2.61-1.36-3.94a.74.74,0,0,1,.12-.46,6.76,6.76,0,0,0,.47-2.56,6.79,6.79,0,0,1,4.67-5.85A6.87,6.87,0,0,0,147.34,265.86Zm210.8-4.38v.08h-7.92c-.34,0-.69,0-.78.39s.28.51.57.63c.52.22,1,.41,1.55.64a4,4,0,0,1,1.85,5.8,40,40,0,0,1-4.64,5.59c-.63.7-.8,1.66-.13,1.85a10.44,10.44,0,0,1,3.52,2c1.36,1.05,3.29,1.68,3.33,3.9,0,.15.22.32.36.46a2,2,0,0,0,2.62.23,35.55,35.55,0,0,1,6.79-3.59,15.51,15.51,0,0,1,2.47-.88c3-.47,4.84,0,6,1.83a10.62,10.62,0,0,1,1.27,2.68c.21.71.6,1.61-.13,2.24a2.23,2.23,0,0,0-.65,1.34,4,4,0,0,1-2.45,3,10.55,10.55,0,0,0-2.67,1.32c-1.42.93-1.32,2.15.11,3.09.87.57,1.88.31,2.74.67,2.85,1.21,5.71,2.32,7.9,4.72a20.18,20.18,0,0,1,2.27,3.71c.42.74.14,1.84.79,2.66a1.4,1.4,0,0,1-.09,1.49,5.87,5.87,0,0,0-.68,1.52,1.69,1.69,0,0,1-1.73,1.53c-3.09.09-6.22.51-9.25-.48-1.13-.37-1.88-.4-2.11,1a1.69,1.69,0,0,1-.6.88c-1.53,1.23-2.66,2.87-4.14,4.16a3.54,3.54,0,0,0-1.22,3c.09,2.63.1,5.27.13,7.91a11.77,11.77,0,0,1-1.08,5.31c-1,2.13-2.5,4-3.29,6.21-.68,1.93-2.11,3.34-3.15,5-1.87,2.93-5.1,4.47-8.23,5.93a2.42,2.42,0,0,1-1.16.21,4.45,4.45,0,0,0-4.09,1.81c-1.47,1.93-3.9,1.95-5.73,3.14a1.17,1.17,0,0,1-.47.05c-1.44,0-2.88,0-4.32,0-3.87-.05-6.95-1.83-9.58-4.5a16.14,16.14,0,0,0-4-2.95c-.29-.15-.71-.38-.77.07a3.2,3.2,0,0,0,.15,2.11,11.83,11.83,0,0,1,1.89,4.68,9.48,9.48,0,0,0,.33,1.27c.44,2,1.73,3.73,1.62,5.86,0,.12,0,.3.06.35,1.06.76.82,1.9.88,2.95.15,3.06,1.22,6,1,9.12a17.29,17.29,0,0,0,.18,4.54,13.48,13.48,0,0,1,0,6.85,5.66,5.66,0,0,0-.22,1.53c-.15,3.5.17,7-.67,10.49a2,2,0,0,0,0,.95c.89,3.33.18,6.91,1.59,10.17a8.21,8.21,0,0,0,.94,1.9c.18.23.32.47.68.32a27.43,27.43,0,0,0,4.24-1.88c3.2-2.12,6.7-3.68,9.93-5.76,5.18-3.34,10.39-6.62,15.25-10.44a5.22,5.22,0,0,1,1.23-.72,4.66,4.66,0,0,0,1.85-1.29c2.31-2.89,5.7-4.59,8.13-7.36,1.78-2,4.33-3.16,6.11-5.17,2.94-3.31,6.33-6.21,9.05-9.73a40.84,40.84,0,0,1,3.76-4c2.26-2.26,4-5,5.92-7.49a22.46,22.46,0,0,0,2.5-3.15c1-1.82,2.36-3.36,3.48-5.09,1.93-3,4.19-5.79,6-8.9,1-1.72,2-3.43,2.87-5.22,1.15-2.4,2.42-4.74,3.7-7.06a27,27,0,0,0,2.34-4.85c.93-3.06,2.76-5.64,3.88-8.6.79-2.08,1.24-4.3,2.22-6.32.27-.55.91-.86.9-1.61a12.43,12.43,0,0,1,.91-3.57c.37-1.23,1.43-2.19,1.29-3.61a4.15,4.15,0,0,1,.44-1.84,18.43,18.43,0,0,0,1.35-4.06c.22-2,1.47-3.82,1.22-5.92,0-.07.06-.15.1-.22a5.87,5.87,0,0,0,.77-3.09c0-.36-.06-.84.13-1.05,1.07-1.13.78-2.54.88-3.87,0-.36-.07-.81.11-1.05,1-1.33.65-2.92,1-4.37.8-3.72.61-7.6,1.76-11.26a2,2,0,0,0,0-.6c.06-3.51.1-7,.17-10.54,0-1.06-.24-2.18.65-3.07.22-.22.07-.53,0-.79a12.38,12.38,0,0,1-.6-4.72,42.26,42.26,0,0,0-.18-6.46c-.1-.61-.3-.88-.77-.36-1.3,1.44-3.08,2.13-4.68,3.07-2.47,1.46-4.88,3.07-7.43,4.31-4.25,2.06-8.24,4.61-12.6,6.48-3.53,1.51-6.93,3.34-10.58,4.61a15.32,15.32,0,0,0-1.86.8,52.71,52.71,0,0,1-10,3.38c-2.31.65-4.47,2-7,1.88a.65.65,0,0,0-.22.08c-2.77,1.12-5.76,1.24-8.64,1.75C363,261.81,360.54,261.48,358.14,261.48ZM338.4,301.2c-.06-1.37-.24-2.6.5-3.65a2.07,2.07,0,0,0,.41-1.45c-.1-1.54,1.05-2.53,1.67-3.75.19-.37.71-.47,1.16-.56.86-.18,1.21,0,1.19,1-.06,3,0,6.08,0,9.12,0,2.17.39,2.56,2.56,2.65a19.46,19.46,0,0,1,6,.83c2.77,1,3.3,3.23,1.33,5.41a21.53,21.53,0,0,1-3.13,2.59c-2,1.55-2.88,1.5-4.73-.34a2.16,2.16,0,0,0-2.62-.42c-1.46.62-1.42,1.78-1.58,3.12a3.74,3.74,0,0,0,1.78,4,2.54,2.54,0,0,1,1.3,2c0,.67.31.75.86.81a9.88,9.88,0,0,0,6.67-1.8,21.9,21.9,0,0,1,4.2-2.53,15.15,15.15,0,0,0,4.17-2.51c2.69-2.2,5.59-4.22,7.17-7.44.74-1.49,1.72-1.73,3.24-1.68,2.11.07,4,1,6.1,1.12,2.89.12,2.89.19,2.76-2.85,0-.79.09-1.66-.62-2.23-1.63-1.31-2.77-3.16-4.93-3.95a25.22,25.22,0,0,0-4.09-1.57c-1.21-.23-2.43-.47-3.64-.72-1.79-.37-2.36-1.61-1.45-3.15a2.73,2.73,0,0,0,.53-1.44c-.08-2.38,1.69-3.44,3.41-3.94a5.42,5.42,0,0,0,3.4-3.06c.69-1.26-.59-3.2-2-3.29-1.62-.1-3.21-.21-4.46,1.15a1.64,1.64,0,0,1-.87.37c-2.39.43-4,2.47-6.43,3a4.62,4.62,0,0,1-3.07,0c-1.56-.71-3.14-1.38-4.72-2a1.53,1.53,0,0,0-.9-.21c-2.56.75-5.34,1.05-7.58,2.49a26.67,26.67,0,0,0-8.34,7.63c-.34.53-.51,1,.06,1.48s.58.67,0,1.12-.51.76.06,1.16a1.21,1.21,0,0,1,.37,1.2c0,.2,0,.4-.07.6-.19,1.25.42,2.57-.3,3.76-.81,1.36.63,2.42.46,3.72-.06.52-.35,1.44.47,1.68s1.33-.39,1.93-.78a1.86,1.86,0,0,0,.73-1.07C338,304.89,338.61,303,338.4,301.2Zm-187,62.58a2.08,2.08,0,0,0-.64-1.68c-2.27-2.53-5.16-4.42-7.24-7.14a.64.64,0,0,0-.83-.27c-.36.15-.4.47-.39.79a3.61,3.61,0,0,1-.45,2.19,3.79,3.79,0,0,0-.49,2.06c-.12,2.67.28,5.38-.37,8-.31,1.26.71,2.22.39,3.39,0,0,.1.11.15.17,1.46,1.69,5.18,1.07,6-1a10.79,10.79,0,0,1,2.21-3.76A13.29,13.29,0,0,0,151.44,363.78ZM344,261.63a17.32,17.32,0,0,0,3.29-.18c.28-.08.76-.05.72-.47s-.49-.27-.78-.34c-.92-.21-2,.05-2.76-.51a3.22,3.22,0,0,0-2-.66c-.74,0-1.25.12-1.24,1s.41,1.2,1.27,1.14A14.67,14.67,0,0,1,344,261.63Z" transform="translate(-9.34 -42.81)"/><path class="cls-2" d="M334.67,172.22c1.49.78,2.55-.67,3.81-.61,7.61.34,15.15-.78,22.72-1.27,3.41-.22,6.84-.49,10.26-.79,1.43-.12,2.87,0,4.3-.07a7.22,7.22,0,0,0,3.41-.46.39.39,0,0,1,.34-.05c2,1.08,3.77-.77,5.77-.5a21.39,21.39,0,0,0,6-.05c1.79-.27,3.64-.1,5.38-.71a2.77,2.77,0,0,1,1.06-.17c4.38.42,8.67-.53,13-.8.52,0,1-.14,1.55-.12,6,.18,12-.66,18-1.19,5.55-.5,11.13-.74,16.67-1.54,3.22-.47,6.51-.59,9.72-1.23a19.41,19.41,0,0,1,2.75-.14c1.52-.09,3.08.23,4.53-.73a4,4,0,0,1,2.11-.21,20.87,20.87,0,0,0,6-.67,15.67,15.67,0,0,1,3.57-.33c1,0,1.93.07,2.64-.81.22-.29.6-.14.91-.17a4.77,4.77,0,0,0,1.94-.53c1.74-1,3.87-.81,4.71,1.18a2,2,0,0,1,0,1.93,19.82,19.82,0,0,1-3.53,4.9c-1.5,1.49-2.75,3.27-4.13,4.91-1.77,2.09-3.86,3.95-5.18,6.41a1.53,1.53,0,0,1-.39.45c-3.36,2.64-5.83,6.16-8.35,9.47s-6.12,5.93-8.11,9.77a5.66,5.66,0,0,1-1.1,1.26c-1.25,1.28-2.34,2.72-3.54,4-3.21,3.47-6.14,7.16-9,10.85-2.55,3.26-5.47,6.21-7.95,9.55-2.06,2.77-4.28,5.46-7.5,7.19-1.85,1-3.86,1.9-5.33,3.57a5.79,5.79,0,0,1-1.76,1c-2.21,1.13-4.1,2.8-6.5,3.65s-4.4,2.57-6.72,3.59c-1.65.73-3.06,1.81-4.75,2.5-3.3,1.36-6.59,2.79-9.83,4.29a17.76,17.76,0,0,1-3.21,1.28,19,19,0,0,0-5.09,2c-1.67,1-3.64.88-5.38,1.54-4.14,1.58-8.6,1.66-12.82,2.86-1.64.47-3.34.2-5,.23-1.24,0-2.49-.09-3.72,0-2.94.29-5.68-.71-8.49-1.21-1.67-.31-3.2-1.33-4.93-1.71-3.69-.81-5.95.87-6.08,4.69,0,1.08,0,2.16-.05,3.24,0,.63-.22,1.07-1,1a1.75,1.75,0,0,0-1.59.66c-.29.4-.71.32-1.1.32-1.68,0-3.36.11-5,0a12.58,12.58,0,0,0-8.93,2.7,2.82,2.82,0,0,1-1.83.44c-2.24,0-4.48,0-6.71-.11a7.57,7.57,0,0,0-4.33,1.09,17.12,17.12,0,0,1-3.16,1.68c-.9.29-1.87.72-2.57-.41a.43.43,0,0,0-.29-.18c-2.29-.2-4.48-1.27-6.85-.68a9.62,9.62,0,0,1-3.53.5c-.93-.12-1.5.67-2.2,1-2.2,1.08-4.8,1.67-6.07,4.16-.38.75-2.6,1.31-3.37.7-1-.79-2.23-.76-3.29-1.29-2.38-1.19-5-1.41-7.57-1.86-2.77-.47-5.31.1-7.93.34a19.23,19.23,0,0,0-6,1.74,60.67,60.67,0,0,0-5.81,3.06,7.89,7.89,0,0,1-5.88.9c-1.29-.25-2.58-.53-3.88-.73a8.12,8.12,0,0,0-4.36.35,12.34,12.34,0,0,1-5.19.67c-5.71-.26-11.41-.43-17.08.61-1.29.24-2.62.27-3.93.41a3.83,3.83,0,0,0-1.52.23c-1.94,1.3-3.5.15-5.07-.73a6.23,6.23,0,0,0-1.62-.69,8,8,0,0,1-3-1.17,1.3,1.3,0,0,0-.65-.28c-3.14,0-6-2-9.27-1.24-.93.21-1.88.35-2.79.65a1.69,1.69,0,0,1-2-.6,25.25,25.25,0,0,0-5-4.63,18.09,18.09,0,0,0-6.21-2.6c-1.38-.22-2.73-.58-4.11-.83a7.66,7.66,0,0,0-4.46.41,5.12,5.12,0,0,1-4.93-.27,12.83,12.83,0,0,0-1.82-.9,4.72,4.72,0,0,1-2.62-2.13,6.79,6.79,0,0,0-5-3c-4.82-.81-9.69-1.38-14.49-2.24-3.83-.68-7.65-1.5-11.45-2.36-2.24-.5-4.42-1.25-6.62-1.83a69.51,69.51,0,0,1-7.63-2.29,5.86,5.86,0,0,0-2.42-.62c-.83.06-1-.91-1.77-1a17,17,0,0,1-6.1-2.35,3.47,3.47,0,0,0-1.54-.61c-1.93-.1-3.21-1.72-5-2-2.17-2.34-5.45-2.88-7.84-4.81-3-2.41-6.14-4.66-8.5-7.76-.63-.82-1.32-1.6-2-2.41-.88-1.1-2.14-1.93-2.42-3.47a.87.87,0,0,0-.25-.39c-3.16-3.57-5.54-7.7-8.29-11.55A23.81,23.81,0,0,1,59.74,213a18.61,18.61,0,0,0-2-2.76c-.72-1-1.2-2.22-1.93-3.25-2.65-3.72-4.48-7.91-7-11.73-1.73-2.68-3.6-5.27-5.46-7.85-1.42-2-2.74-4.06-4.38-5.92A15.21,15.21,0,0,1,36.65,178a7.78,7.78,0,0,0-1.9-2.44c-1.84-1.64-3.14-3.71-4.76-5.52S26.76,166,24.7,164.4a12.41,12.41,0,0,1-1.8-1.75,20.45,20.45,0,0,0-7-5.48,4.12,4.12,0,0,1-2.4-3.48A2.76,2.76,0,0,1,15,150.85c3-1.92,6.24-1.61,9.51-1,1.69.31,3.39.53,5.09.78,1.21.18,2.34.75,3.56,1,2.7.64,5.57.43,8.12,1.72a1.82,1.82,0,0,0,.46.11c4,.32,7.94,1.45,11.92,2.12,2.71.46,5.45,1,8.15,1.7,3.86,1,7.84,1.44,11.73,2.31,3,.66,5.94,1.17,8.9,1.79.85.17,1.88-.1,2.59.28,3.32,1.77,7.11,1.44,10.62,2.49a71.74,71.74,0,0,0,10.47,2.43,67.34,67.34,0,0,1,6.92,1.26c2.57.65,5.16,1.23,7.74,1.63,3.51.53,7,1,10.5,1.73,3.66.81,7.5.92,11,2.24,2.74,1.05,5.61,1.73,8.26,3a17.89,17.89,0,0,0,2.37.81c1.5.48,2.62.06,4.06-.74,2.21-1.23,3.68-3.45,6.16-4.22.41-.13.68-.65,1-.95a56.75,56.75,0,0,1,12.14-7.75,3.42,3.42,0,0,0,.85-.44c3.06-2.79,7-4.21,10.55-6a59.23,59.23,0,0,1,6.54-3.08c1.82-.66,3.66-1.36,5.4-2.13s3.73-1.13,5.24-2.43a1.4,1.4,0,0,1,.74-.34c2-.16,3.77-1.24,5.69-1.76,1.59-.43,3-1.38,4.7-1.67,1.32-.24,2.83,0,3.89-1.18.13-.15.54,0,.82-.05,1-.05,2,.21,2.87-.75.35-.41,1.27-.33,1.94-.44A56.42,56.42,0,0,0,232.1,142a7.59,7.59,0,0,1,2.36-.35c3.34.08,6.52-1.08,9.86-1.16,4.36-.1,8.72,0,13.05.28a58.51,58.51,0,0,1,7.68,1c1.83.37,3.71.58,5.52,1.05,2.58.68,5.14,1.41,7.77,1.95a23,23,0,0,1,2.93,1.11,10.85,10.85,0,0,0,2.18.61,20.91,20.91,0,0,1,4.57,1.68,51.27,51.27,0,0,0,6,2.37,19.78,19.78,0,0,1,2.71,1.2c2.53,1.15,5.26,2,7.57,3.44,2.49,1.56,5.2,2.66,7.73,4.09,2.7,1.52,5.24,3.3,7.94,4.8,3.07,1.71,6,3.74,8.88,5.69,1.56,1,2.44,2.94,3.33,4.61a31.33,31.33,0,0,1,1.65,3c.42,1,.82,2,1.15,3,.88,2.71,1.33,5.52,2.06,8.26a10,10,0,0,1,.3,2.49c0,4.84.05,9.67.12,14.51a40.9,40.9,0,0,0,1.07,6.91,2.46,2.46,0,0,0,.71-2,3.34,3.34,0,0,1,.78-2.67c.27-.24.19-.67.19-1q0-8.28-.08-16.55a2.15,2.15,0,0,0-.24-1.16,4.49,4.49,0,0,1-.57-2.52,6.71,6.71,0,0,0-.65-3c-.5-1.07-.42-2.31-.81-3.45-.82-2.41-2.18-4.61-2.85-7.07C334.9,172.81,334.78,172.52,334.67,172.22ZM34.05,158.54c-.42.22-1.41-.46-1.53.41a5,5,0,0,0,.37,3.59A18.2,18.2,0,0,1,34.72,166a51,51,0,0,0,3,5.91c.22.43.28,1,.61,1.28,1.29.94,1.94,2.41,2.77,3.62,2.65,3.93,5.77,7.56,7.92,11.82a5.7,5.7,0,0,0,1.37,1.49,2.52,2.52,0,0,1,1.06,1.8,1,1,0,0,0,.47.8,7.92,7.92,0,0,1,1.48,2c1,1.65,1.8,3.47,3.36,4.75a2.17,2.17,0,0,1,.55.78,18.2,18.2,0,0,0,4,5.69c2.11,2.14,3.88,4.54,5.82,6.78,4.48,5.2,9.62,9.7,14.6,14.36a95,95,0,0,0,9.16,6.9,86.17,86.17,0,0,0,9.78,6.2,26.84,26.84,0,0,0,13.7,3.47c5.32-.14,10.58.7,15.85,1.47,3.1.46,6.25,1.08,9.44.48a2.06,2.06,0,0,0,1.84-1.88c.31-1.75.08-3.52.36-5.26.5-3.15,1-6.3.52-9.51a14.69,14.69,0,0,1-.2-4.18,76.93,76.93,0,0,0,.21-9c0-.31.12-.7-.17-.91-1-.72-.67-1.78-.73-2.74,0-.36.13-.86-.06-1-1.06-1.1-1-2.58-1.26-3.9-.52-2.24-2-4-2.91-6a23.91,23.91,0,0,0-8.35-9.53c-4.39-3.09-9.07-5.91-14.49-7.17-1.15-.26-2.23-1-3.51-1-.17,0-.36-.19-.49-.33a1.87,1.87,0,0,0-1.52-.58c-2.1.11-3.89-1.36-6-1.12a.28.28,0,0,1-.22-.07c-.87-1.06-2.1-.78-3.23-.87-.39,0-.88.06-1.17-.14-1.82-1.2-4-1.25-6-1.57a76.48,76.48,0,0,1-11-2.56,151.57,151.57,0,0,1-15.54-5.74c-2.94-1.3-6.1-2.07-8.83-3.88-1.09-.71-2.47-.83-3.67-1.39-3.85-1.78-7.63-3.75-11.83-4.65-.11,0-.26-.05-.32-.13-.68-.87-1.65-.83-2.62-.89a2.54,2.54,0,0,1-1.48-.37A3.4,3.4,0,0,0,34.05,158.54Zm363.49,26v.16c-3.72,0-7.44-.09-11.15,0a18.89,18.89,0,0,0-7.06,1.59c-2.25,1-4.69,1.48-6.95,2.51-1.22.56-2.18,1.44-3.38,2a21,21,0,0,0-5.92,3.77c-2.73,2.57-5.69,4.89-8.34,7.56a53.42,53.42,0,0,0-8.54,10.36,8.16,8.16,0,0,0-.89,4.15c0,.9.86,1.08,1.23,1.67a3.2,3.2,0,0,1,.48.81c.4,1.42,1.66,2.59,1.28,4.25a.88.88,0,0,0,.2.56,6.26,6.26,0,0,1,.74,3.45c0,4.64,0,9.28.08,13.91,0,1.9.8,2.35,2.69,2.22,3.3-.22,6.29-1.93,9.62-2a.68.68,0,0,0,.44-.16,3.39,3.39,0,0,1,2.66-.78,6.45,6.45,0,0,0,2.6-.33c2.09-1,4.43-1,6.61-1.36,4.79-.83,9.51-2,14.28-2.92a74.24,74.24,0,0,0,10.27-3.06c2.06-.72,4.07-1.58,6.09-2.38,3.74-1.49,7.23-3.5,11-4.85a10.7,10.7,0,0,0,2.79-1.33c1.71-1.22,3.79-1.62,5.63-2.6a28.21,28.21,0,0,0,5.45-3.31c2.31-2,4.48-4.18,6.76-6.23a26.21,26.21,0,0,0,4.51-4.93,37.45,37.45,0,0,1,3.62-4.18c.29-.33.56-.68.84-1,3.35-3.94,5.74-8.59,9.22-12.43,1.07-1.18,2-2.53,3-3.75,3.26-3.89,6.92-7.42,10.1-11.37.91-1.13,1.9-2.15,1.81-3.76-.05-.81-.31-1.23-1.18-1.21a12.45,12.45,0,0,0-3.92.69c-2.32.78-4.33,2.31-6.79,2.71a1.74,1.74,0,0,0-.67.24c-2.38,1.58-5.2,2-7.81,2.93-.82.3-1.64.63-2.46.91-1.42.48-2.65,1.37-4.12,1.75a45.06,45.06,0,0,0-7.28,2.22A32.06,32.06,0,0,1,425,183.38c-2.63.3-5.29,0-7.9.35-2.84.39-5.7.4-8.55.7A103.76,103.76,0,0,1,397.54,184.53ZM288.91,252.48h4.23a1.78,1.78,0,0,0,1.14-.25,3.75,3.75,0,0,1,2.51-.65c3.89.24,7.32-1.82,11.08-2.19a.62.62,0,0,0,.22-.1c1.92-1.17,4.15-1.57,6.23-2.3,1.77-.62,3.31-1.65,5-2.35,2.19-.91,3.91-2.58,5.85-3.9a12.92,12.92,0,0,0,4.91-7,18.22,18.22,0,0,0,.18-7.72c-.5-3.59-.88-7.29-3-10.48-.4-.62-.51-1.44-.92-2.06a30.37,30.37,0,0,0-2.81-3.92,17.75,17.75,0,0,0-2.93-2.27c-1.91-1.37-4.28-1.64-6.37-2.6-.95-.44-2.29-.18-3.4-.52-1.83-.56-3.63.25-5.47,0a28.26,28.26,0,0,0-3.08.29c-3.62,0-7,1.32-10.27,2.53-2.52.93-4.72,2.64-7.23,3.71a3.6,3.6,0,0,0-1.07.74c-3.06,3.05-6.36,5.86-8.9,9.38a13,13,0,0,0-2.24,3.49,8.7,8.7,0,0,1-1.49,3,3.67,3.67,0,0,0-.78,1.47c-.36,1.69-1.43,3.12-1.73,4.8-.22,1.23-1.27,2.09-1.3,3.35a7.45,7.45,0,0,1-.59,2.78c-.41,1-1,2.18.25,3.15.16.12.19.43.23.66a7,7,0,0,0,5.14,4.84,6.85,6.85,0,0,1,2.48.78C279.29,251.45,283.94,253,288.91,252.48Zm-87.13-2a20.07,20.07,0,0,0,8.81-1.2c2-.64,3.69-1.93,5.65-2.5,2.89-.85,5.26-2.07,6.58-5a4.62,4.62,0,0,0,.25-4,12.23,12.23,0,0,1-1-3.17A21.85,21.85,0,0,0,219,226.6a10.37,10.37,0,0,1-1-2.27c-1.14-3.29-3.69-5.63-5.71-8.29a28,28,0,0,0-5.81-5.28c-1.82-1.35-3.83-2.38-5.71-3.62s-4-1.68-6.09-2.4c-1.52-.53-3.21-.43-4.75-1.12a9.53,9.53,0,0,0-3-.28c-2.14-.19-4.28-.65-6.42,0a5.89,5.89,0,0,1-1.78.11,14.92,14.92,0,0,0-5.63,1.44,17.84,17.84,0,0,0-6.13,4.61,11.71,11.71,0,0,0-1.3,1.23,29.32,29.32,0,0,0-4.36,12c-.38,2.32.08,4.69-.64,7a2.54,2.54,0,0,0,.07.94c.27,3.64,2.54,6.16,5,8.43,4.14,3.8,9.4,5.55,14.54,7.51a62.72,62.72,0,0,0,10.3,2.7C194.24,249.94,197.93,251.06,201.78,250.51Zm53.64-83.36c.91.58,2,.47,2.87,1a24.55,24.55,0,0,0,7,2.45c3.12.73,6,2.31,9.39,2.12,2.8-.15,5.54.71,8.32.8,4.2.15,8.4-.05,12.59.11s8.13-.33,12.15.86c1.27.38,2.53.84,3.81,1.17a23.09,23.09,0,0,1,8,3.57,2.27,2.27,0,0,0,.78.28c.27.06.57.13.75-.19a.59.59,0,0,0-.12-.76,15.11,15.11,0,0,0-1.6-1.6,34.72,34.72,0,0,0-8.95-4.88,33.58,33.58,0,0,0-9-2.39c-5.62-.36-11.27-.17-16.9-.22-2.75,0-5.56.44-8.25-.25a33.39,33.39,0,0,0-8.79-.71c-.35,0-.76.14-1-.13-.92-.85-2.05-.77-3.17-.78a13.16,13.16,0,0,1-5.53-.78A2,2,0,0,0,255.42,167.15Zm-104,38c0-2.43.3-4.9-.26-7.28a42.18,42.18,0,0,1-.84-6.51,21.44,21.44,0,0,0-1-4.3c-.07-.24-.21-.52-.42-.5a.68.68,0,0,0-.49.45c-.09,1.56-1.06,2.87-1,4.51.08,4.51,0,9,0,13.55a1.86,1.86,0,0,1-.29,1.37,1.77,1.77,0,0,0-.19,2.1,4.6,4.6,0,0,1,.12,3.13c-.3,1-1,2.15-.42,3.23a3.26,3.26,0,0,1,.25,2.62,11.76,11.76,0,0,0-.19,1.9c-.37,3.73,1,7.34.79,11.06a.48.48,0,0,0,0,.24c.1.2.12.5.4.54s.44-.22.55-.5c.5-1.29,1.38-2.46,1.05-4a1,1,0,0,1,.35-.86,2.79,2.79,0,0,0,.65-2.57,5.3,5.3,0,0,1,.12-2.6c.5-1.61-.06-3.33.63-4.91a1.46,1.46,0,0,0-.17-1,3.46,3.46,0,0,1,0-2.9,3.81,3.81,0,0,0,.35-1.62A38.35,38.35,0,0,1,151.41,205.18Zm37-27a1.53,1.53,0,0,0,1.09.43c2.55,0,5.1-.08,7.66-.08,3.36,0,6.62-.93,10-1a18,18,0,0,0,11.06-4.35,6.73,6.73,0,0,1,2.76-1.35c1.75-.38,3.57,0,5.34-.55a3.47,3.47,0,0,0-3.06-1.74c-1,0-2-.08-3-.11a8.48,8.48,0,0,0-6.37,2.25,3.14,3.14,0,0,1-2.71,1,.81.81,0,0,0-.85.27,2,2,0,0,1-1.73.62,23.13,23.13,0,0,0-4.78.12c-3.87.86-7.83,1.31-11.63,2.54A13.84,13.84,0,0,0,188.41,178.14Zm39-22.2a2.62,2.62,0,0,0,2,.55c11.5,0,23,0,34.52,0a16.66,16.66,0,0,0,6.79-1c.26-.12.58-.11.54-.49s-.36-.26-.58-.28c-1.51-.17-2.93-.77-4.4-1s-2.42-1.06-3.73-1.1c-2.56-.06-5.11-.12-7.67-.07-3.55.06-7,1-10.58,1.09-4.94.13-9.81,1.27-14.78,1A2.4,2.4,0,0,0,227.41,155.94Zm-44.2,42.48a23.32,23.32,0,0,0,4.4.11c1.57-.09,3-.83,4.57-.87,2.36-.06,4.72,0,7.07,0a1.31,1.31,0,0,1,1.1.34,2.06,2.06,0,0,0,1.77.54,6,6,0,0,1,3.1.77,10,10,0,0,0,2.79,1,.84.84,0,0,0,1-.35c.17-.32.38-.78.1-1-.68-.53-.88-1.45-1.62-1.89-1.27-.75-2.78-.75-4.13-1.41-1-.49-2.32-.34-3.47-.72a10.75,10.75,0,0,0-3.67-.36c-2.8.1-5.53.86-8.32.95A5.14,5.14,0,0,0,183.21,198.42ZM305,197.53c.44-.07,1,.3,1.3-.25s-.14-.92-.36-1.33c-.81-1.57-2.43-2-3.89-2.43-.78-.24-1.75-.78-2.48-.48-2.08.86-4.34,1-6.4,1.9a17.67,17.67,0,0,1-4.61,1.56c-1.84.29-3.07,1.61-4.68,2.23-.46.18-.5.68-.45,1.14s.52.53.9.59a5.22,5.22,0,0,0,2.92-.39,16.22,16.22,0,0,1,4-1.3c2.77-.29,5-1.89,7.67-2.5a5,5,0,0,1,4,.58A3.22,3.22,0,0,0,305,197.53Zm-69.12,46.16a9.44,9.44,0,0,0-2.07,2.45c-1.37,2.1-.23,4.27,2.26,4.42.47,0,.95,0,1.43,0a8.55,8.55,0,0,1,3.44.24c2.8,1.25,5.49.61,8.16-.24,3.09-1,4-2.26,4.14-4.87,0-1.26-.93-1.24-1.6-1.3s-.21.72-.37,1.09a1,1,0,0,0,0,.59c.18.84-.29,1.12-1,1.45-2.15,1-4.44,1-6.69.92s-4.43-.84-6.72-.16c-.81.24-1.44-.3-1.31-1.33a2.67,2.67,0,0,1,.43-1.45A1.3,1.3,0,0,0,235.86,243.69Zm19.85,20.81c.84,0,1.67,0,2.51,0,.33,0,.93.23,1-.36s-.51-.54-.91-.56c-3.81-.14-7.51-1.24-11.39-1.13-6.12.19-12.25-1.25-18.37.07-4.54-.54-8.89,1.18-13.39,1.14-.23,0-.54-.05-.57.27s.33.36.58.38c2.38.2,4.78.58,7.05-.57a2.23,2.23,0,0,1,1-.16c5.87,0,11.75,0,17.62,0,3.15,0,6.32-.21,9.41.55A14.33,14.33,0,0,0,255.71,264.5Zm-19,3c-.88-.17-2.1.52-3.43.83a17.59,17.59,0,0,0-6.69,2.72c-.42.31-1.35.49-1.07,1.12s1.07.2,1.63.06c2.75-.67,5.32-1.95,8.32-1.81,3.53.15,7.09-.31,10.49,1.06.85.35,1.72.63,2.59.93.21.08.44.23.62-.07a.33.33,0,0,0-.11-.5,14.82,14.82,0,0,0-2.66-2A23.33,23.33,0,0,0,236.76,267.51Zm25-2c.44-.26,1.32.33,1.34-.44s-.88-.33-1.33-.4-1.39-.36-1.41.31C260.34,265.86,261.3,265.22,261.77,265.49Z" transform="translate(-9.34 -42.81)"/><path class="cls-2" d="M169.24,350.06a15.9,15.9,0,0,1-2.79-1.09,21.28,21.28,0,0,0-3.65-1.58,4.87,4.87,0,0,1-3.88-3.32,40.93,40.93,0,0,0-3.57-7c-1.08-1.95-2.56-3.61-3.75-5.48a6.27,6.27,0,0,0-1.85-1.93,2.34,2.34,0,0,0-.06,2.08,12,12,0,0,1,.82,3.23,2.6,2.6,0,0,0,.37,1.13,30.78,30.78,0,0,1,2.29,5.19c.3.72,1,1.08,1.21,1.86.32,1.06.7,2.1,1.06,3.15a6.21,6.21,0,0,0,3.88,3.93,104.43,104.43,0,0,1,9.67,4.47,10.28,10.28,0,0,0,2.11.79c2.3.59,3.5,2.51,4.79,4.29-.49,1.22-.06,2.7-1.07,3.78-.07.09-.23.12-.27.21-1.86,4.71-6.16,6.75-10.07,9.21a.93.93,0,0,1-1.43-.3,4.33,4.33,0,0,1-.76-2,12.69,12.69,0,0,0-4.55-8.41c-1.52-1.26-2.87-2.79-4.76-3.58a2.79,2.79,0,0,1-.83-.68c-2-2.1-3.86-4.27-5.91-6.28-3.54-3.47-5.41-8-7.49-12.28-.92-1.91-1.84-4-1.5-6.4a3.14,3.14,0,0,1,1.1-2.27,32.24,32.24,0,0,0,8.13-8.85,7.46,7.46,0,0,1,4.22-3.68,1.86,1.86,0,0,0,.76-.56,25.27,25.27,0,0,1,4.6-3.63,4,4,0,0,0,1-.85c1-1.38,2.5-1.27,3.39.23.25.41.52.81.73,1.24,1.68,3.31,4.76,4.28,8.09,4.75a13.5,13.5,0,0,0,3.11,0,2.72,2.72,0,0,1,2.68,1.21,14.52,14.52,0,0,0,2,2.18,9.14,9.14,0,0,0,7.51,2.68c1.57-.18,3.19,0,4.79-.07a3.31,3.31,0,0,1,3.19,1.73,14.4,14.4,0,0,0,3.83,3.91,1.94,1.94,0,0,0,1.45.44,1.26,1.26,0,0,1,1.53,1.29c.05,1.85,1.13,3.17,2.15,4.53a.55.55,0,0,0,.38.24c2-.09,4,.46,5.76-1,2.5-2,8.71-1.62,11.21,1.06.48.52.5,1.31,1.27,1.75a6.9,6.9,0,0,0,4.19,1c1.86-.19,3.43.67,5.05,1.31a11.14,11.14,0,0,0,2.88.76c1.93.2,2.43,1.3,1.35,2.86a7,7,0,0,0-1.32,3.66c0,.31,0,.75-.22.91-.89.73-.67,1.7-.69,2.63,0,2.55.06,5.09.27,7.61.36.07.6-.15.57-.35-.23-1.9.79-3.55,1-5.37a21.88,21.88,0,0,1,3.47-9.65,4.28,4.28,0,0,1,2.88-1.89,6,6,0,0,0,2.78-1,.81.81,0,0,1,.78-.11c1.09,1,2.42.56,3.64.64,1.48.09,3,.07,4.44,0,.81,0,1.2.29,1.09,1.14s.1,1.76-.73,2.42c-.19.15-.17.6-.21.91-.2,1.55-.26,3.12-.61,4.63-.63,2.75.14,5.37.43,8.05a26.81,26.81,0,0,0,2.89,8.63c.15.33.29.85.8.74s.48-.67.46-1.09c-.07-2.08-.15-4.15-.24-6.23a2.19,2.19,0,0,0-.2-.8c-.83-1.63-1.13-3.24,0-4.86.06-.09.12-.26.07-.34-1.07-1.83.71-3.5.3-5.32-.28-1.22.8-2.26.82-3.44,0-1.56.94-2.76,1.42-4.13a2,2,0,0,1,1.77-1.24,15.65,15.65,0,0,0,7.68-3.1c1.5-1.14,3.09-.85,4.69-.48a4.61,4.61,0,0,0,2.58-.17,4.84,4.84,0,0,1,2-.35c.08,0,.19,0,.24,0,1.43-1.37,3.63-1.34,5-2.77q.84-.86,1.74-1.65a2.24,2.24,0,0,1,1.76-.59,15.61,15.61,0,0,0,2.27.07,11.55,11.55,0,0,0,9.12-4.65,10.65,10.65,0,0,1,1.58-1.64,3.26,3.26,0,0,0,1.28-2.58c0-.65.39-.9,1-1.1,3.57-1.13,6.56-3.07,8.2-6.58.72-1.55,2-2.86,1.88-4.8-.06-.7.73-.61,1.21-.68,3.81-.54,6.77-2.23,8.34-5.95a13.77,13.77,0,0,0,1.3-4.44,8.94,8.94,0,0,1,1.47-3.5c.95-1.75,2-3.49,1.55-5.63-.07-.35-.1-.81-.33-1-1.05-.86-.58-1.63-.05-2.51.74-1.23,1.39-2.51,2.06-3.78.27-.52.62-1,1.21-1.06a40.21,40.21,0,0,0,5.55-1.27c2.61-.61,5.35-.76,7.85-2.08a6.79,6.79,0,0,1,6.76-.07c.45.25,1,.2,1.45.54.75.57.69,1.24-.18,1.64a4,4,0,0,1-1.41.19c-.74.06-1.56-.14-2,.71a.37.37,0,0,1-.29.16c-3.55.05-5.86,2.46-8.39,4.41a37.3,37.3,0,0,0-4.54,4.61,2,2,0,0,0-.51,1.18,2.1,2.1,0,0,1-.89,1.51,5.72,5.72,0,0,0-2.24,3.78c-.28,1.24-.63,2.47-.93,3.71a7.31,7.31,0,0,0,.27,4.24,5.13,5.13,0,0,1,.27,1.28,60.75,60.75,0,0,0,1.83,8.36,39.67,39.67,0,0,0,1.33,4.95c.58,1.47.85,3.11,2.05,4.31a2.35,2.35,0,0,1,.4.86,10,10,0,0,0,1.25,2.83c1.79,2.2,2.16,4.87,2.41,7.5.17,1.87,1.27,3,2.33,4.32a.66.66,0,0,0,1,.09c1.66-1.05,3-2.29,2.89-4.47a13.34,13.34,0,0,1,.46-4.27c0-.12.13-.27.09-.34-1.07-1.83.36-3.46.38-5.2,0-.54.21-.63.61-.57,2.52.36,4.55-.77,6.77-1.77a78.86,78.86,0,0,0,7.14-3.83c1.12-.64,1.36-.44,1.52.87.35,2.82-.66,5.42-1.27,8.08-.66,2.9-2.62,5.18-3.87,7.8a16.8,16.8,0,0,1-6.65,7.48,9,9,0,0,1-4,1.41,5.82,5.82,0,0,0-3.88,1.92c-1.44,1.5-3.43,2-5.18,2.87a1.52,1.52,0,0,1-2.05-.79c-2-3.94-5.21-6.95-7.5-10.66a49.41,49.41,0,0,0-3.67-4.66c-1.5-1.92-2.94-3.89-4.49-5.76a16.6,16.6,0,0,0-3.2-3.23,5.22,5.22,0,0,1-1.87-2.29,2.19,2.19,0,0,0-2.34-1.59,2.84,2.84,0,0,0-2.66,1.7,20,20,0,0,1-2.08,3.48,16.46,16.46,0,0,1-4.56,4.36,8,8,0,0,0-2.92,2.86,28.61,28.61,0,0,1-2.74,3.29c-.25.31-.95.52-.59,1s.87,0,1.28-.16c4.05-1.45,7.32-4.22,10.88-6.51,1.16-.75,1.18-.8,1.31.58.1,1,.11,2,.12,3a4.9,4.9,0,0,0,.81,3.12c.62.85.3,2.12-.22,3.1a21.81,21.81,0,0,0-1.45,3.63,9,9,0,0,1-.58,1.31,38.55,38.55,0,0,1-4.43,6.42c-1.17,1.43-2,3.06-3.09,4.5-.66.85-.79,2-1.29,2.89-1.1,1.86-.8,4-1.57,5.87a2.61,2.61,0,0,0,.42,2.93c.25.24.55.55.94.41s.29-.53.31-.83a8.27,8.27,0,0,1,1.42-3.62,66.41,66.41,0,0,1,5-8c2.25-2.94,4.2-6.11,6.26-9.2a4.14,4.14,0,0,0,.38-1c.1-.33.12-.81.55-.81s.49.48.6.81a65.35,65.35,0,0,0,3.14,8.44c1.38,2.74,1.08,5.83,2.52,8.45a5.37,5.37,0,0,1,.31,2.36,6.93,6.93,0,0,0,.8,3.45,2.56,2.56,0,0,1,.18,1.28q0,10.14,0,20.28a4.36,4.36,0,0,1-.1,1.31,16.48,16.48,0,0,0-.25,7.71c.43,3,.23,6.15,1.21,9.11a7.39,7.39,0,0,0,.62,1.68c.73,1.16.58,1.88-.65,2.49a37.66,37.66,0,0,1-5.46,2.39,22.37,22.37,0,0,0-5.11,2c-2.38,1.43-5.08,1.8-7.58,2.73a66.92,66.92,0,0,1-8.38,2.64,70.54,70.54,0,0,0-8.35,2,6.91,6.91,0,0,1-1.76.31,8.68,8.68,0,0,0-3,.68,3.26,3.26,0,0,1-1.38.34c-2.72-.15-5.31.74-7.88,1.25-4.6.92-9.3.75-13.87,1.73-2.82.61-5.74.22-8.62.26-2.43,0-2.51,0-2.43-2.45.05-1.53-.62-2.87-.84-4.33-.38-2.5.15-5.05-.43-7.52-.8-3.35-.7-6.75-.76-10.14,0-2.16-.06-4.31-.08-6.47a3.93,3.93,0,0,0-.32-1.51,3.23,3.23,0,0,1,0-3,1.15,1.15,0,0,0,.16-1,5.33,5.33,0,0,1-.06-3.57c.26-1.23-.19-2.55.06-3.87.16-.83-.68-1.58-.76-2.48a.48.48,0,0,0-.54-.37.61.61,0,0,0-.33.45c-.27,2-1.31,3.77-1.15,5.82a1.6,1.6,0,0,1-.19,1.05c-1,1.34-.74,2.88-.74,4.37,0,5.28.07,10.56.07,15.84,0,1.19.74,2.22.71,3.37-.06,2.5.94,4.8,1.38,7.19a12.17,12.17,0,0,0,1.25,3.7c.61,1.07.56,2.34,1.41,3.37s0,1.74-1.34,1.72c-3.72,0-7.45.07-11.15-.2-4.65-.34-9.27-1-13.9-1.51-1.35-.15-2.7-.29-4-.4a8.87,8.87,0,0,1-3.25-.71c-1-.5-2.13-.25-3.2-.28a3,3,0,0,1-2.09-.66c-.65-.58-1.6-.31-2.41-.37a4.3,4.3,0,0,1-2.5-.67.81.81,0,0,0-.41-.21c-3,.09-5.62-1.47-8.48-2-1.9-.39-4-.64-5.66-1.92l-.11,0c-3.35-.39-6.26-2.18-9.44-3.14a21.12,21.12,0,0,1-6.06-2.38c-1-.71-2.46-.58-3.53-1.39-.7-.52-.95-1-.44-1.72.28-.43.37-1,.64-1.41a13.08,13.08,0,0,0,1.59-8.32c-.14-1.61.05-3.2,0-4.79,0-.78.93-1.07.83-1.78-.21-1.48.89-2.44,1.41-3.61,1-2.23,2.32-4.32,2.77-6.78.14-.78.81-1.24,1-2.06.73-2.67.34-5.3,0-7.92a5.36,5.36,0,0,0-1.86-3.93c-.45-.32-.15-.52.06-.75,1.19-1.35,2.13-2.89,3.2-4.32s1-3.15,1.46-4.75a5.71,5.71,0,0,0,.06-3,6.08,6.08,0,0,1,.76-4.05,13.08,13.08,0,0,0,1.14-6c-.09-3.36,0-6.72,0-10.08,0-.64.24-1.45-.68-1.68a2.51,2.51,0,0,0-2.17,1.59c0,.63-.07,1.17-.73,1.5-.33.17-.23.57-.2.88.18,1.68-.59,3.1-1.2,4.57-.17.41-.53.46-.84.58-1.42.52-2.84,1.08-4.29,1.5-1,.3-1.49.76-1,1.84A4.73,4.73,0,0,1,169.24,350.06Zm45.72,49a19.57,19.57,0,0,0,0-6.39,23.35,23.35,0,0,1-.62-5.81,1.38,1.38,0,0,0-.42-1.3,1.93,1.93,0,0,1-.54-1.63c-.09-2.22.36-4.48-.66-6.61a1.3,1.3,0,0,1,0-.93c.92-2.26.61-4.55.22-6.84-.07-.39-.22-.78.06-1.15a1.36,1.36,0,0,0-.18-1.93,1.21,1.21,0,0,1,.09-1.89c.27-.24.57-.63.3-.93-.63-.69-.14-1.36-.1-2,0-.29.33-.65,0-.87s-.67.11-.91.36c-1.7,1.74-3.11,3.61-2.91,6.25a1.7,1.7,0,0,1-.23.9c-1.11,2-.93,4-.56,6.16.56,3.26,1.34,6.46,2.09,9.67.7,3,1.11,6.11,2.64,8.88a.94.94,0,0,1,.1.57C213,395.65,214.39,397.24,215,399.1Z" transform="translate(-9.34 -42.81)"/><path class="cls-2" d="M338.4,301.2c.21,1.84-.45,3.69-1,5.56a1.86,1.86,0,0,1-.73,1.07c-.6.39-1.2,1-1.93.78s-.53-1.16-.47-1.68c.17-1.3-1.27-2.36-.46-3.72.72-1.19.11-2.51.3-3.76,0-.2.05-.4.07-.6a1.21,1.21,0,0,0-.37-1.2c-.57-.4-.47-.83-.06-1.16s.45-.74,0-1.12-.4-.95-.06-1.48a26.67,26.67,0,0,1,8.34-7.63c2.24-1.44,5-1.74,7.58-2.49a1.53,1.53,0,0,1,.9.21c1.58.66,3.16,1.33,4.72,2a4.62,4.62,0,0,0,3.07,0c2.42-.49,4-2.53,6.43-3a1.64,1.64,0,0,0,.87-.37c1.25-1.36,2.84-1.25,4.46-1.15,1.43.09,2.71,2,2,3.29a5.42,5.42,0,0,1-3.4,3.06c-1.72.5-3.49,1.56-3.41,3.94a2.73,2.73,0,0,1-.53,1.44c-.91,1.54-.34,2.78,1.45,3.15,1.21.25,2.43.49,3.64.72a25.22,25.22,0,0,1,4.09,1.57c2.16.79,3.3,2.64,4.93,3.95.71.57.59,1.44.62,2.23.13,3,.13,3-2.76,2.85-2.1-.09-4-1.05-6.1-1.12-1.52-.05-2.5.19-3.24,1.68-1.58,3.22-4.48,5.24-7.17,7.44a15.15,15.15,0,0,1-4.17,2.51,21.9,21.9,0,0,0-4.2,2.53,9.88,9.88,0,0,1-6.67,1.8c-.55-.06-.85-.14-.86-.81a2.54,2.54,0,0,0-1.3-2,3.74,3.74,0,0,1-1.78-4c.16-1.34.12-2.5,1.58-3.12a2.16,2.16,0,0,1,2.62.42c1.85,1.84,2.7,1.89,4.73.34a21.53,21.53,0,0,0,3.13-2.59c2-2.18,1.44-4.4-1.33-5.41a19.46,19.46,0,0,0-6-.83c-2.17-.09-2.56-.48-2.56-2.65,0-3,0-6.08,0-9.12,0-1-.33-1.18-1.19-1-.45.09-1,.19-1.16.56-.62,1.22-1.77,2.21-1.67,3.75a2.07,2.07,0,0,1-.41,1.45C338.16,298.6,338.34,299.83,338.4,301.2Z" transform="translate(-9.34 -42.81)"/><path class="cls-2" d="M151.44,363.78a13.29,13.29,0,0,1-1.66,2.71,10.79,10.79,0,0,0-2.21,3.76c-.82,2.11-4.54,2.73-6,1,0-.06-.16-.13-.15-.17.32-1.17-.7-2.13-.39-3.39.65-2.62.25-5.33.37-8a3.79,3.79,0,0,1,.49-2.06,3.61,3.61,0,0,0,.45-2.19c0-.32,0-.64.39-.79a.64.64,0,0,1,.83.27c2.08,2.72,5,4.61,7.24,7.14A2.08,2.08,0,0,1,151.44,363.78Z" transform="translate(-9.34 -42.81)"/><path class="cls-2" d="M344,261.63a14.67,14.67,0,0,0-1.47,0c-.86.06-1.25-.26-1.27-1.14s.5-1.05,1.24-1a3.22,3.22,0,0,1,2,.66c.77.56,1.84.3,2.76.51.29.07.75-.09.78.34s-.44.39-.72.47A17.32,17.32,0,0,1,344,261.63Z" transform="translate(-9.34 -42.81)"/><path class="cls-1" d="M34.05,158.54a3.4,3.4,0,0,1,2.83.63,2.54,2.54,0,0,0,1.48.37c1,.06,1.94,0,2.62.89.06.08.21.1.32.13,4.2.9,8,2.87,11.83,4.65,1.2.56,2.58.68,3.67,1.39,2.73,1.81,5.89,2.58,8.83,3.88a151.57,151.57,0,0,0,15.54,5.74,76.48,76.48,0,0,0,11,2.56c2,.32,4.17.37,6,1.57.29.2.78.1,1.17.14,1.13.09,2.36-.19,3.23.87a.28.28,0,0,0,.22.07c2.12-.24,3.91,1.23,6,1.12a1.87,1.87,0,0,1,1.52.58c.13.14.32.33.49.33,1.28,0,2.36.74,3.51,1,5.42,1.26,10.1,4.08,14.49,7.17a23.91,23.91,0,0,1,8.35,9.53c.91,2,2.39,3.75,2.91,6,.31,1.32.2,2.8,1.26,3.9.19.19,0,.69.06,1,.06,1-.28,2,.73,2.74.29.21.17.6.17.91a76.93,76.93,0,0,1-.21,9,14.69,14.69,0,0,0,.2,4.18c.51,3.21,0,6.36-.52,9.51-.28,1.74-.05,3.51-.36,5.26a2.06,2.06,0,0,1-1.84,1.88c-3.19.6-6.34,0-9.44-.48-5.27-.77-10.53-1.61-15.85-1.47a26.84,26.84,0,0,1-13.7-3.47,86.17,86.17,0,0,1-9.78-6.2,95,95,0,0,1-9.16-6.9c-5-4.66-10.12-9.16-14.6-14.36-1.94-2.24-3.71-4.64-5.82-6.78a18.2,18.2,0,0,1-4-5.69,2.17,2.17,0,0,0-.55-.78c-1.56-1.28-2.34-3.1-3.36-4.75a7.92,7.92,0,0,0-1.48-2,1,1,0,0,1-.47-.8,2.52,2.52,0,0,0-1.06-1.8A5.7,5.7,0,0,1,49,188.58c-2.15-4.26-5.27-7.89-7.92-11.82-.83-1.21-1.48-2.68-2.77-3.62-.33-.25-.39-.85-.61-1.28a51,51,0,0,1-3-5.91,18.2,18.2,0,0,0-1.83-3.41,5,5,0,0,1-.37-3.59C32.64,158.08,33.63,158.76,34.05,158.54Z" transform="translate(-9.34 -42.81)"/><path class="cls-1" d="M397.54,184.53a103.76,103.76,0,0,0,11-.1c2.85-.3,5.71-.31,8.55-.7,2.61-.36,5.27,0,7.9-.35A32.06,32.06,0,0,0,435.08,181a45.06,45.06,0,0,1,7.28-2.22c1.47-.38,2.7-1.27,4.12-1.75.82-.28,1.64-.61,2.46-.91,2.61-1,5.43-1.35,7.81-2.93a1.74,1.74,0,0,1,.67-.24c2.46-.4,4.47-1.93,6.79-2.71a12.45,12.45,0,0,1,3.92-.69c.87,0,1.13.4,1.18,1.21.09,1.61-.9,2.63-1.81,3.76-3.18,3.95-6.84,7.48-10.1,11.37-1,1.22-1.91,2.57-3,3.75-3.48,3.84-5.87,8.49-9.22,12.43-.28.33-.55.68-.84,1a37.45,37.45,0,0,0-3.62,4.18,26.21,26.21,0,0,1-4.51,4.93c-2.28,2.05-4.45,4.21-6.76,6.23a28.21,28.21,0,0,1-5.45,3.31c-1.84,1-3.92,1.38-5.63,2.6a10.7,10.7,0,0,1-2.79,1.33c-3.79,1.35-7.28,3.36-11,4.85-2,.8-4,1.66-6.09,2.38A74.24,74.24,0,0,1,388.22,236c-4.77.93-9.49,2.09-14.28,2.92-2.18.39-4.52.33-6.61,1.36a6.45,6.45,0,0,1-2.6.33,3.39,3.39,0,0,0-2.66.78.68.68,0,0,1-.44.16c-3.33.05-6.32,1.76-9.62,2-1.89.13-2.66-.32-2.69-2.22-.06-4.63-.07-9.27-.08-13.91a6.26,6.26,0,0,0-.74-3.45.88.88,0,0,1-.2-.56c.38-1.66-.88-2.83-1.28-4.25a3.2,3.2,0,0,0-.48-.81c-.37-.59-1.26-.77-1.23-1.67a8.16,8.16,0,0,1,.89-4.15,53.42,53.42,0,0,1,8.54-10.36c2.65-2.67,5.61-5,8.34-7.56A21,21,0,0,1,369,190.8c1.2-.54,2.16-1.42,3.38-2,2.26-1,4.7-1.52,6.95-2.51a18.89,18.89,0,0,1,7.06-1.59c3.71-.12,7.43,0,11.15,0Z" transform="translate(-9.34 -42.81)"/><path class="cls-1" d="M288.91,252.48c-5,.48-9.62-1-14.08-3.35a6.85,6.85,0,0,0-2.48-.78,7,7,0,0,1-5.14-4.84c0-.23-.07-.54-.23-.66-1.21-1-.66-2.12-.25-3.15a7.45,7.45,0,0,0,.59-2.78c0-1.26,1.08-2.12,1.3-3.35.3-1.68,1.37-3.11,1.73-4.8a3.67,3.67,0,0,1,.78-1.47,8.7,8.7,0,0,0,1.49-3,13,13,0,0,1,2.24-3.49c2.54-3.52,5.84-6.33,8.9-9.38a3.6,3.6,0,0,1,1.07-.74c2.51-1.07,4.71-2.78,7.23-3.71,3.3-1.21,6.65-2.5,10.27-2.53a28.26,28.26,0,0,1,3.08-.29c1.84.23,3.64-.58,5.47,0,1.11.34,2.45.08,3.4.52,2.09,1,4.46,1.23,6.37,2.6a17.75,17.75,0,0,1,2.93,2.27,30.37,30.37,0,0,1,2.81,3.92c.41.62.52,1.44.92,2.06,2.08,3.19,2.46,6.89,3,10.48a18.22,18.22,0,0,1-.18,7.72,12.92,12.92,0,0,1-4.91,7c-1.94,1.32-3.66,3-5.85,3.9-1.7.7-3.24,1.73-5,2.35-2.08.73-4.31,1.13-6.23,2.3a.62.62,0,0,1-.22.1c-3.76.37-7.19,2.43-11.08,2.19a3.75,3.75,0,0,0-2.51.65,1.78,1.78,0,0,1-1.14.25Zm8.36-42c-2.66-.5-5.26,1-7.67,2.28a20.47,20.47,0,0,0-7.92,6.85,3.38,3.38,0,0,1-.63.73,7.81,7.81,0,0,0-2.72,5,1.27,1.27,0,0,1-.32.63c-1.36,1.62.63,5.09,2.07,5.57a8,8,0,0,0,5.72.26,14.35,14.35,0,0,1,3.07-1c1-.15,1.4-1.28,2.43-1.3a1.07,1.07,0,0,0,1.05-.62c.26-.53.79-.39,1.28-.32s.46.48.5.87a4.23,4.23,0,0,0,4.37,3.15c3-.57,3.92-1.82,3.85-5,0-2-.64-2.78-2.54-3.16-.54-.11-.7-.29-.52-.78a4.06,4.06,0,0,1,.46-1.09,24.73,24.73,0,0,0,3-4.9,6.42,6.42,0,0,0,.18-5,3.37,3.37,0,0,0-3.28-2.21C299,210.46,298.31,210.48,297.27,210.48Z" transform="translate(-9.34 -42.81)"/><path class="cls-1" d="M201.78,250.51c-3.85.55-7.54-.57-11.23-1.29a62.72,62.72,0,0,1-10.3-2.7c-5.14-2-10.4-3.71-14.54-7.51-2.47-2.27-4.74-4.79-5-8.43a2.54,2.54,0,0,1-.07-.94c.72-2.28.26-4.65.64-7a29.32,29.32,0,0,1,4.36-12,11.71,11.71,0,0,1,1.3-1.23,17.84,17.84,0,0,1,6.13-4.61,14.92,14.92,0,0,1,5.63-1.44,5.89,5.89,0,0,0,1.78-.11c2.14-.63,4.28-.17,6.42,0a9.53,9.53,0,0,1,3,.28c1.54.69,3.23.59,4.75,1.12,2.05.72,4.26,1.19,6.09,2.4s3.89,2.27,5.71,3.62a28,28,0,0,1,5.81,5.28c2,2.66,4.57,5,5.71,8.29a10.37,10.37,0,0,0,1,2.27,21.85,21.85,0,0,1,3.13,8.05,12.23,12.23,0,0,0,1,3.17,4.62,4.62,0,0,1-.25,4c-1.32,2.9-3.69,4.12-6.58,5-2,.57-3.65,1.86-5.65,2.5A20.07,20.07,0,0,1,201.78,250.51Zm-18.53-41c-3.46-.56-6.2,1.62-8.91,3.66a21.76,21.76,0,0,0-7.84,11.3,6.23,6.23,0,0,0,0,3.29c.73,3.1,4.07,3.43,6.82,2.49a22.89,22.89,0,0,0,5.34-2.64c1.23-.84,1.25-.8,1.63.68a2.2,2.2,0,0,0,.25.54,4.44,4.44,0,0,0,4.26,2.27c2.67-.51,3.3-1.14,3.6-3.66a4.39,4.39,0,0,0-3.29-4.86c-1.23-.24-.73-.7-.36-1.2.56-.77,1.15-1.5,1.66-2.32,1.05-1.69,1.18-3.59,1.59-5.43a3.37,3.37,0,0,0-3.13-4.12Z" transform="translate(-9.34 -42.81)"/><path class="cls-1" d="M255.42,167.15a2,2,0,0,1,2.32-.36,13.16,13.16,0,0,0,5.53.78c1.12,0,2.25-.07,3.17.78.28.27.69.14,1,.13a33.39,33.39,0,0,1,8.79.71c2.69.69,5.5.23,8.25.25,5.63.05,11.28-.14,16.9.22a33.58,33.58,0,0,1,9,2.39,34.72,34.72,0,0,1,8.95,4.88,15.11,15.11,0,0,1,1.6,1.6.59.59,0,0,1,.12.76c-.18.32-.48.25-.75.19a2.27,2.27,0,0,1-.78-.28,23.09,23.09,0,0,0-8-3.57c-1.28-.33-2.54-.79-3.81-1.17-4-1.19-8.1-.71-12.15-.86s-8.39,0-12.59-.11c-2.78-.09-5.52-1-8.32-.8-3.36.19-6.27-1.39-9.39-2.12a24.55,24.55,0,0,1-7-2.45C257.42,167.62,256.33,167.73,255.42,167.15Z" transform="translate(-9.34 -42.81)"/><path class="cls-1" d="M151.41,205.18a38.35,38.35,0,0,0,0,5.14,3.81,3.81,0,0,1-.35,1.62,3.46,3.46,0,0,0,0,2.9,1.46,1.46,0,0,1,.17,1c-.69,1.58-.13,3.3-.63,4.91a5.3,5.3,0,0,0-.12,2.6,2.79,2.79,0,0,1-.65,2.57,1,1,0,0,0-.35.86c.33,1.51-.55,2.68-1.05,4-.11.28-.2.55-.55.5s-.3-.34-.4-.54a.48.48,0,0,1,0-.24c.19-3.72-1.16-7.33-.79-11.06a11.76,11.76,0,0,1,.19-1.9,3.26,3.26,0,0,0-.25-2.62c-.6-1.08.12-2.19.42-3.23a4.6,4.6,0,0,0-.12-3.13,1.77,1.77,0,0,1,.19-2.1,1.86,1.86,0,0,0,.29-1.37c0-4.52.12-9,0-13.55,0-1.64.95-3,1-4.51a.68.68,0,0,1,.49-.45c.21,0,.35.26.42.5a21.44,21.44,0,0,1,1,4.3,42.18,42.18,0,0,0,.84,6.51C151.71,200.28,151.44,202.75,151.41,205.18Z" transform="translate(-9.34 -42.81)"/><path class="cls-1" d="M188.41,178.14a13.84,13.84,0,0,1,3.78-1.94c3.8-1.23,7.76-1.68,11.63-2.54a23.13,23.13,0,0,1,4.78-.12,2,2,0,0,0,1.73-.62.81.81,0,0,1,.85-.27,3.14,3.14,0,0,0,2.71-1,8.48,8.48,0,0,1,6.37-2.25c1,0,2,.15,3,.11a3.47,3.47,0,0,1,3.06,1.74c-1.77.52-3.59.17-5.34.55a6.73,6.73,0,0,0-2.76,1.35,18,18,0,0,1-11.06,4.35c-3.37.05-6.63,1-10,1-2.56,0-5.11,0-7.66.08A1.53,1.53,0,0,1,188.41,178.14Z" transform="translate(-9.34 -42.81)"/><path class="cls-1" d="M227.41,155.94a2.4,2.4,0,0,1,2.14-1.31c5,.31,9.84-.83,14.78-1,3.56-.1,7-1,10.58-1.09,2.56-.05,5.11,0,7.67.07,1.31,0,2.41.88,3.73,1.1s2.89.84,4.4,1c.22,0,.54,0,.58.28s-.28.37-.54.49a16.66,16.66,0,0,1-6.79,1c-11.51,0-23,0-34.52,0A2.62,2.62,0,0,1,227.41,155.94Z" transform="translate(-9.34 -42.81)"/><path class="cls-1" d="M183.21,198.42a5.14,5.14,0,0,1,4.73-2.89c2.79-.09,5.52-.85,8.32-.95a10.75,10.75,0,0,1,3.67.36c1.15.38,2.49.23,3.47.72,1.35.66,2.86.66,4.13,1.41.74.44.94,1.36,1.62,1.89.28.23.07.69-.1,1a.84.84,0,0,1-1,.35,10,10,0,0,1-2.79-1,6,6,0,0,0-3.1-.77,2.06,2.06,0,0,1-1.77-.54,1.31,1.31,0,0,0-1.1-.34c-2.35,0-4.71,0-7.07,0-1.56,0-3,.78-4.57.87A23.32,23.32,0,0,1,183.21,198.42Z" transform="translate(-9.34 -42.81)"/><path class="cls-1" d="M305,197.53a3.22,3.22,0,0,1-2.09-.68,5,5,0,0,0-4-.58c-2.64.61-4.9,2.21-7.67,2.5a16.22,16.22,0,0,0-4,1.3,5.22,5.22,0,0,1-2.92.39c-.38-.06-.84,0-.9-.59s0-1,.45-1.14c1.61-.62,2.84-1.94,4.68-2.23a17.67,17.67,0,0,0,4.61-1.56c2.06-.95,4.32-1,6.4-1.9.73-.3,1.7.24,2.48.48,1.46.45,3.08.86,3.89,2.43.22.41.61.84.36,1.33S305.42,197.46,305,197.53Z" transform="translate(-9.34 -42.81)"/><path class="cls-1" d="M235.86,243.69a1.3,1.3,0,0,1,.12,1.85,2.67,2.67,0,0,0-.43,1.45c-.13,1,.5,1.57,1.31,1.33,2.29-.68,4.49.12,6.72.16s4.54.11,6.69-.92c.69-.33,1.16-.61,1-1.45a1,1,0,0,1,0-.59c.16-.37-.42-1.16.37-1.09s1.64,0,1.6,1.3c-.09,2.61-1.05,3.89-4.14,4.87-2.67.85-5.36,1.49-8.16.24a8.55,8.55,0,0,0-3.44-.24c-.48,0-1,0-1.43,0-2.49-.15-3.63-2.32-2.26-4.42A9.44,9.44,0,0,1,235.86,243.69Z" transform="translate(-9.34 -42.81)"/><path class="cls-1" d="M255.71,264.5a14.33,14.33,0,0,1-5.45-.4c-3.09-.76-6.26-.57-9.41-.55-5.87,0-11.75,0-17.62,0a2.23,2.23,0,0,0-1,.16c-2.27,1.15-4.67.77-7.05.57-.25,0-.63.06-.58-.38s.34-.27.57-.27c4.5,0,8.85-1.68,13.39-1.14,6.12-1.32,12.25.12,18.37-.07,3.88-.11,7.58,1,11.39,1.13.4,0,.94,0,.91.56s-.63.34-1,.36C257.38,264.54,256.55,264.5,255.71,264.5Z" transform="translate(-9.34 -42.81)"/><path class="cls-1" d="M236.76,267.51a23.33,23.33,0,0,1,9.69,2.34,14.82,14.82,0,0,1,2.66,2,.33.33,0,0,1,.11.5c-.18.3-.41.15-.62.07-.87-.3-1.74-.58-2.59-.93-3.4-1.37-7-.91-10.49-1.06-3-.14-5.57,1.14-8.32,1.81-.56.14-1.35.57-1.63-.06s.65-.81,1.07-1.12a17.59,17.59,0,0,1,6.69-2.72C234.66,268,235.88,267.34,236.76,267.51Z" transform="translate(-9.34 -42.81)"/><path class="cls-1" d="M261.77,265.49c-.47-.27-1.43.37-1.4-.53,0-.67.94-.39,1.41-.31s1.34-.33,1.33.4S262.21,265.23,261.77,265.49Z" transform="translate(-9.34 -42.81)"/><path class="cls-1" d="M215,399.1c-.57-1.86-2-3.45-1.65-5.53a.94.94,0,0,0-.1-.57c-1.53-2.77-1.94-5.87-2.64-8.88-.75-3.21-1.53-6.41-2.09-9.67-.37-2.14-.55-4.18.56-6.16a1.7,1.7,0,0,0,.23-.9c-.2-2.64,1.21-4.51,2.91-6.25.24-.25.51-.61.91-.36s.06.58,0,.87c0,.68-.53,1.35.1,2,.27.3,0,.69-.3.93a1.21,1.21,0,0,0-.09,1.89,1.36,1.36,0,0,1,.18,1.93c-.28.37-.13.76-.06,1.15.39,2.29.7,4.58-.22,6.84a1.3,1.3,0,0,0,0,.93c1,2.13.57,4.39.66,6.61a1.93,1.93,0,0,0,.54,1.63,1.38,1.38,0,0,1,.42,1.3,23.35,23.35,0,0,0,.62,5.81A19.57,19.57,0,0,1,215,399.1Z" transform="translate(-9.34 -42.81)"/><path class="cls-2" d="M297.27,210.48c1,0,1.72,0,2.4,0A3.37,3.37,0,0,1,303,212.7a6.42,6.42,0,0,1-.18,5,24.73,24.73,0,0,1-3,4.9,4.06,4.06,0,0,0-.46,1.09c-.18.49,0,.67.52.78,1.9.38,2.5,1.17,2.54,3.16.07,3.21-.89,4.46-3.85,5a4.23,4.23,0,0,1-4.37-3.15c0-.39.07-.78-.5-.87s-1-.21-1.28.32a1.07,1.07,0,0,1-1.05.62c-1,0-1.41,1.15-2.43,1.3a14.35,14.35,0,0,0-3.07,1,8,8,0,0,1-5.72-.26c-1.44-.48-3.43-3.95-2.07-5.57a1.27,1.27,0,0,0,.32-.63,7.81,7.81,0,0,1,2.72-5,3.38,3.38,0,0,0,.63-.73,20.47,20.47,0,0,1,7.92-6.85C292,211.5,294.61,210,297.27,210.48Z" transform="translate(-9.34 -42.81)"/><path class="cls-2" d="M183.25,209.5h1.62a3.37,3.37,0,0,1,3.13,4.12c-.41,1.84-.54,3.74-1.59,5.43-.51.82-1.1,1.55-1.66,2.32-.37.5-.87,1,.36,1.2a4.39,4.39,0,0,1,3.29,4.86c-.3,2.52-.93,3.15-3.6,3.66a4.44,4.44,0,0,1-4.26-2.27,2.2,2.2,0,0,1-.25-.54c-.38-1.48-.4-1.52-1.63-.68a22.89,22.89,0,0,1-5.34,2.64c-2.75.94-6.09.61-6.82-2.49a6.23,6.23,0,0,1,0-3.29,21.76,21.76,0,0,1,7.84-11.3C177.05,211.12,179.79,208.94,183.25,209.5Z" transform="translate(-9.34 -42.81)"/></svg>